STARTFONT 2.1
FONTBOUNDINGBOX 14 14 0 -2
CHARS 21116
STARTCHAR 0000
ENCODING 0
SWIDTH 520 0
DWIDTH 0 0
BBX 0 14 0 -2
BITMAP
80
ENDCHAR
STARTCHAR 3041
ENCODING 12353
SWIDTH 520 0
DWIDTH 14 0
BBX 14 14 0 -2
BITMAP
0000
0800
0800
0bc0
7c00
0900
0fc0
1920
2910
4610
4410
4a20
3040
0180
ENDCHAR
STARTCHAR 3042
ENCODING 12354
SWIDTH 520 0
DWIDTH 14 0
BBX 14 14 0 -2
BITMAP
0800
08c0
0f00
7800
0880
0880
3fe0
4890
8508
8508
8208
4508
3810
0060
ENDCHAR
STARTCHAR 3043
ENCODING 12355
SWIDTH 520 0
DWIDTH 14 0
BBX 14 14 0 -2
BITMAP
0000
0000
0000
2000
3040
2020
2010
2030
2020
2200
1400
0c00
0000
0000
ENDCHAR
STARTCHAR 3044
ENCODING 12356
SWIDTH 520 0
DWIDTH 14 0
BBX 14 14 0 -2
BITMAP
0000
0000
4080
6040
4020
4010
4010
4030
4020
4200
4400
2800
1800
0000
ENDCHAR
STARTCHAR 3045
ENCODING 12357
SWIDTH 520 0
DWIDTH 14 0
BBX 14 14 0 -2
BITMAP
0000
0000
0f00
0080
0300
0000
11c0
0e20
0020
0040
0080
0300
0c00
0000
ENDCHAR
STARTCHAR 3046
ENCODING 12358
SWIDTH 520 0
DWIDTH 14 0
BBX 14 14 0 -2
BITMAP
0f80
0040
0180
0000
21e0
1e10
0010
0020
0020
0040
0080
0300
0c00
0000
ENDCHAR
STARTCHAR 3047
ENCODING 12359
SWIDTH 520 0
DWIDTH 14 0
BBX 14 14 0 -2
BITMAP
0000
0e00
0100
0200
0000
0780
3900
0200
0600
0900
1100
2080
4070
0000
ENDCHAR
STARTCHAR 3048
ENCODING 12360
SWIDTH 520 0
DWIDTH 14 0
BBX 14 14 0 -2
BITMAP
1e00
0100
0200
0000
0780
7900
0200
0400
0700
0900
1100
2080
4078
0000
ENDCHAR
STARTCHAR 3049
ENCODING 12361
SWIDTH 520 0
DWIDTH 14 0
BBX 14 14 0 -2
BITMAP
0000
0800
0820
0810
7e08
0810
0fc0
0820
1810
2810
6810
2a60
1180
0000
ENDCHAR
STARTCHAR 304A
ENCODING 12362
SWIDTH 520 0
DWIDTH 14 0
BBX 14 14 0 -2
BITMAP
0800
0820
0f10
7808
0830
0b80
0c40
1820
2810
4810
c810
6a20
19c0
0800
ENDCHAR
STARTCHAR 304B
ENCODING 12363
SWIDTH 520 0
DWIDTH 14 0
BBX 14 14 0 -2
BITMAP
0400
0400
0400
0400
47a0
3890
0888
08a8
0898
1080
1100
2100
4500
8200
ENDCHAR
STARTCHAR 304C
ENCODING 12364
SWIDTH 520 0
DWIDTH 14 0
BBX 14 14 0 -2
BITMAP
0820
0810
0848
0820
8f10
7140
1120
1110
1108
1128
2218
2200
4a00
8400
ENDCHAR
STARTCHAR 304D
ENCODING 12365
SWIDTH 520 0
DWIDTH 14 0
BBX 14 14 0 -2
BITMAP
0400
04c0
0700
3a00
01c0
0700
3880
0080
07c0
0040
2000
2000
1000
0f80
ENDCHAR
STARTCHAR 304E
ENCODING 12366
SWIDTH 520 0
DWIDTH 14 0
BBX 14 14 0 -2
BITMAP
0820
0990
0e48
7420
0390
0e00
7100
0100
0f80
0080
4000
4000
2000
1f00
ENDCHAR
STARTCHAR 304F
ENCODING 12367
SWIDTH 520 0
DWIDTH 14 0
BBX 14 14 0 -2
BITMAP
0100
0080
0080
0100
0200
0400
0800
1000
0800
0400
0200
0100
0080
0080
ENDCHAR
STARTCHAR 3050
ENCODING 12368
SWIDTH 520 0
DWIDTH 14 0
BBX 14 14 0 -2
BITMAP
0420
0210
0288
0440
0820
1000
2000
4000
2000
1000
0800
0400
0200
0200
ENDCHAR
STARTCHAR 3051
ENCODING 12369
SWIDTH 520 0
DWIDTH 14 0
BBX 14 14 0 -2
BITMAP
0080
2040
1040
1040
2070
27c0
4040
4040
4040
5040
5040
2080
2080
0100
ENDCHAR
STARTCHAR 3052
ENCODING 12370
SWIDTH 520 0
DWIDTH 14 0
BBX 14 14 0 -2
BITMAP
0220
4110
2148
2120
41d0
5f00
8100
8100
8100
a100
a100
4200
4200
0400
ENDCHAR
STARTCHAR 3053
ENCODING 12371
SWIDTH 520 0
DWIDTH 14 0
BBX 14 14 0 -2
BITMAP
0000
1000
0fc0
0080
0300
0400
0000
2000
2000
1020
0ff0
0000
0000
0000
ENDCHAR
STARTCHAR 3054
ENCODING 12372
SWIDTH 520 0
DWIDTH 14 0
BBX 14 14 0 -2
BITMAP
0000
2020
1f90
0108
0640
0820
0010
4000
4000
2040
1fe0
0000
0000
0000
ENDCHAR
STARTCHAR 3055
ENCODING 12373
SWIDTH 520 0
DWIDTH 14 0
BBX 14 14 0 -2
BITMAP
0800
0460
0580
7e00
0200
0100
0080
03c0
1040
2000
2000
2000
1000
0fc0
ENDCHAR
STARTCHAR 3056
ENCODING 12374
SWIDTH 520 0
DWIDTH 14 0
BBX 14 14 0 -2
BITMAP
1020
0810
0b48
0c20
f410
0200
0100
0780
2080
4000
4000
4000
2000
1f80
ENDCHAR
STARTCHAR 3057
ENCODING 12375
SWIDTH 520 0
DWIDTH 14 0
BBX 14 14 0 -2
BITMAP
3000
1800
1000
1000
1000
1000
1000
1000
1020
1040
1080
1300
0c00
0000
ENDCHAR
STARTCHAR 3058
ENCODING 12376
SWIDTH 520 0
DWIDTH 14 0
BBX 14 14 0 -2
BITMAP
3020
1810
1048
1020
1010
1000
1000
1000
1020
1040
1080
1300
0c00
0000
ENDCHAR
STARTCHAR 3059
ENCODING 12377
SWIDTH 520 0
DWIDTH 14 0
BBX 14 14 0 -2
BITMAP
0400
0200
0200
03f0
7e00
0200
0e00
1300
1300
0d00
0100
0200
0400
1800
ENDCHAR
STARTCHAR 305A
ENCODING 12378
SWIDTH 520 0
DWIDTH 14 0
BBX 14 14 0 -2
BITMAP
0820
0410
0448
07a0
7c10
0400
1c00
2600
2600
1a00
0200
0400
0800
3000
ENDCHAR
STARTCHAR 305B
ENCODING 12379
SWIDTH 520 0
DWIDTH 14 0
BBX 14 14 0 -2
BITMAP
0100
1080
0880
0880
0bf0
7c80
0880
0880
0a80
0900
0800
0800
07e0
0000
ENDCHAR
STARTCHAR 305C
ENCODING 12380
SWIDTH 520 0
DWIDTH 14 0
BBX 14 14 0 -2
BITMAP
0020
0210
2148
1120
1110
17e0
f900
1100
1100
1500
1200
1000
1000
0fc0
ENDCHAR
STARTCHAR 305D
ENCODING 12381
SWIDTH 520 0
DWIDTH 14 0
BBX 14 14 0 -2
BITMAP
2000
1e00
0100
0600
1800
21e0
7e00
4400
0800
1000
1000
0800
07c0
0000
ENDCHAR
STARTCHAR 305E
ENCODING 12382
SWIDTH 520 0
DWIDTH 14 0
BBX 14 14 0 -2
BITMAP
0020
2010
1e48
0120
0610
1800
21e0
7e00
4400
0800
1000
1000
0800
07c0
ENDCHAR
STARTCHAR 305F
ENCODING 12383
SWIDTH 520 0
DWIDTH 14 0
BBX 14 14 0 -2
BITMAP
0800
0400
0400
2700
1c00
09c0
0860
0880
1000
1200
2200
2110
40f8
0000
ENDCHAR
STARTCHAR 3060
ENCODING 12384
SWIDTH 520 0
DWIDTH 14 0
BBX 14 14 0 -2
BITMAP
1020
0810
0848
4e20
3810
1380
10c0
1100
2000
2400
4400
4220
81f0
0000
ENDCHAR
STARTCHAR 3061
ENCODING 12385
SWIDTH 520 0
DWIDTH 14 0
BBX 14 14 0 -2
BITMAP
0800
0400
0500
4780
3c00
0800
0b80
0c40
1820
1020
0020
0040
0180
0600
ENDCHAR
STARTCHAR 3062
ENCODING 12386
SWIDTH 520 0
DWIDTH 14 0
BBX 14 14 0 -2
BITMAP
1020
0810
0a48
8f20
7810
1000
1700
1880
3040
2040
0040
0080
0300
0c00
ENDCHAR
STARTCHAR 3063
ENCODING 12387
SWIDTH 520 0
DWIDTH 14 0
BBX 14 14 0 -2
BITMAP
0000
0000
0000
0000
0000
0180
3e40
1020
0020
0020
0040
0080
0300
0000
ENDCHAR
STARTCHAR 3064
ENCODING 12388
SWIDTH 520 0
DWIDTH 14 0
BBX 14 14 0 -2
BITMAP
0000
0000
0000
01c0
0620
7810
2010
0010
0010
0020
0040
0180
0600
0000
ENDCHAR
STARTCHAR 3065
ENCODING 12389
SWIDTH 520 0
DWIDTH 14 0
BBX 14 14 0 -2
BITMAP
0020
0010
0048
0020
0390
0c40
f020
4020
0020
0020
0040
0080
0300
0c00
ENDCHAR
STARTCHAR 3066
ENCODING 12390
SWIDTH 520 0
DWIDTH 14 0
BBX 14 14 0 -2
BITMAP
0000
0080
07c0
fe00
4400
0800
1000
1000
1000
1000
1000
0800
07c0
0000
ENDCHAR
STARTCHAR 3067
ENCODING 12391
SWIDTH 520 0
DWIDTH 14 0
BBX 14 14 0 -2
BITMAP
0000
0080
07c0
fe00
4420
0810
1048
1020
1010
1000
1000
0800
07c0
0000
ENDCHAR
STARTCHAR 3068
ENCODING 12392
SWIDTH 520 0
DWIDTH 14 0
BBX 14 14 0 -2
BITMAP
0000
0400
0200
0200
0200
0280
01c0
0600
0800
1000
2000
2000
1000
0fe0
ENDCHAR
STARTCHAR 3069
ENCODING 12393
SWIDTH 520 0
DWIDTH 14 0
BBX 14 14 0 -2
BITMAP
0020
0410
0248
0220
0210
0280
01c0
0600
0800
1000
2000
2000
1000
0fe0
ENDCHAR
STARTCHAR 306A
ENCODING 12394
SWIDTH 520 0
DWIDTH 14 0
BBX 14 14 0 -2
BITMAP
0800
0400
0400
4740
3c20
0820
0840
0880
1080
1040
23c0
2460
4450
0388
ENDCHAR
STARTCHAR 306B
ENCODING 12395
SWIDTH 520 0
DWIDTH 14 0
BBX 14 14 0 -2
BITMAP
0000
2000
1070
13a0
2040
2080
4000
4000
4200
5200
5110
20f8
2000
0000
ENDCHAR
STARTCHAR 306C
ENCODING 12396
SWIDTH 520 0
DWIDTH 14 0
BBX 14 14 0 -2
BITMAP
0400
0200
2200
13c0
1620
1a10
1210
3410
54d0
4920
4920
5550
2088
0000
ENDCHAR
STARTCHAR 306D
ENCODING 12397
SWIDTH 520 0
DWIDTH 14 0
BBX 14 14 0 -2
BITMAP
1000
0800
0800
0cc0
7b20
0c10
0810
1810
2810
49d0
ca20
aa50
1988
0808
ENDCHAR
STARTCHAR 306E
ENCODING 12398
SWIDTH 520 0
DWIDTH 14 0
BBX 14 14 0 -2
BITMAP
0000
0000
0f80
1240
2220
4210
4410
4410
4810
3020
0040
0180
0000
0000
ENDCHAR
STARTCHAR 306F
ENCODING 12399
SWIDTH 520 0
DWIDTH 14 0
BBX 14 14 0 -2
BITMAP
0100
2080
1080
10e0
2780
2080
4080
4080
4080
5380
54c0
24a0
2310
0000
ENDCHAR
STARTCHAR 3070
ENCODING 12400
SWIDTH 520 0
DWIDTH 14 0
BBX 14 14 0 -2
BITMAP
0020
4210
2148
2120
41d0
4f00
8100
8100
8100
a700
a980
4940
4620
0000
ENDCHAR
STARTCHAR 3071
ENCODING 12401
SWIDTH 520 0
DWIDTH 14 0
BBX 14 14 0 -2
BITMAP
0030
4248
2148
2130
41c0
4f00
8100
8100
8100
a700
a980
4940
4620
0000
ENDCHAR
STARTCHAR 3072
ENCODING 12402
SWIDTH 520 0
DWIDTH 14 0
BBX 14 14 0 -2
BITMAP
0000
0000
4980
3880
10c0
20a0
2090
4100
4100
4100
4200
2200
1c00
0000
ENDCHAR
STARTCHAR 3073
ENCODING 12403
SWIDTH 520 0
DWIDTH 14 0
BBX 14 14 0 -2
BITMAP
0020
0010
0048
49a0
3890
10c0
20a0
2090
4100
4100
4100
4200
2200
1c00
ENDCHAR
STARTCHAR 3074
ENCODING 12404
SWIDTH 520 0
DWIDTH 14 0
BBX 14 14 0 -2
BITMAP
0030
0048
0048
49b0
3880
10c0
20a0
2090
4100
4100
4100
4200
2200
1c00
ENDCHAR
STARTCHAR 3075
ENCODING 12405
SWIDTH 520 0
DWIDTH 14 0
BBX 14 14 0 -2
BITMAP
0000
0800
0600
0300
0400
0800
0400
0380
0e60
1210
2230
e240
5a00
0400
ENDCHAR
STARTCHAR 3076
ENCODING 12406
SWIDTH 520 0
DWIDTH 14 0
BBX 14 14 0 -2
BITMAP
0020
0810
0648
0320
0410
0800
0400
0380
0e60
1210
2230
e240
5a00
0400
ENDCHAR
STARTCHAR 3077
ENCODING 12407
SWIDTH 520 0
DWIDTH 14 0
BBX 14 14 0 -2
BITMAP
0030
0848
0648
0330
0400
0800
0400
0380
0e60
1210
2230
e240
5a00
0400
ENDCHAR
STARTCHAR 3078
ENCODING 12408
SWIDTH 520 0
DWIDTH 14 0
BBX 14 14 0 -2
BITMAP
0000
0000
0000
0c00
1200
2100
c080
0040
0030
0000
0000
0000
0000
0000
ENDCHAR
STARTCHAR 3079
ENCODING 12409
SWIDTH 520 0
DWIDTH 14 0
BBX 14 14 0 -2
BITMAP
0020
0010
0048
0c20
1210
2100
c080
0040
0030
0000
0000
0000
0000
0000
ENDCHAR
STARTCHAR 307A
ENCODING 12410
SWIDTH 520 0
DWIDTH 14 0
BBX 14 14 0 -2
BITMAP
0060
0090
0090
0c60
1200
2100
c080
0040
0030
0000
0000
0000
0000
0000
ENDCHAR
STARTCHAR 307B
ENCODING 12411
SWIDTH 520 0
DWIDTH 14 0
BBX 14 14 0 -2
BITMAP
00c0
2380
1080
1080
20e0
2780
4080
4080
4080
5380
54c0
24a0
2310
0000
ENDCHAR
STARTCHAR 307C
ENCODING 12412
SWIDTH 520 0
DWIDTH 14 0
BBX 14 14 0 -2
BITMAP
01a0
4710
2148
2120
41d0
4f00
8100
8100
8100
a700
a980
4940
4620
0000
ENDCHAR
STARTCHAR 307D
ENCODING 12413
SWIDTH 520 0
DWIDTH 14 0
BBX 14 14 0 -2
BITMAP
01b0
4748
2148
2130
41c0
4f00
8100
8100
8100
a700
a980
4940
4620
0000
ENDCHAR
STARTCHAR 307E
ENCODING 12414
SWIDTH 520 0
DWIDTH 14 0
BBX 14 14 0 -2
BITMAP
0200
0200
03e0
7e00
0200
03c0
3e00
0200
0200
0200
3e00
4380
4260
3c10
ENDCHAR
STARTCHAR 307F
ENCODING 12415
SWIDTH 520 0
DWIDTH 14 0
BBX 14 14 0 -2
BITMAP
2700
1900
0100
0200
0220
0220
0420
3420
4f40
88e0
9050
6088
0100
0200
ENDCHAR
STARTCHAR 3080
ENCODING 12416
SWIDTH 520 0
DWIDTH 14 0
BBX 14 14 0 -2
BITMAP
0800
0400
0480
07c0
7c00
0400
1c20
2450
2488
2498
1848
0840
0820
07e0
ENDCHAR
STARTCHAR 3081
ENCODING 12417
SWIDTH 520 0
DWIDTH 14 0
BBX 14 14 0 -2
BITMAP
0100
2080
1080
1080
0fc0
1920
2910
4510
4210
4510
4810
3020
0040
0180
ENDCHAR
STARTCHAR 3082
ENCODING 12418
SWIDTH 520 0
DWIDTH 14 0
BBX 14 14 0 -2
BITMAP
0400
0200
0200
1380
0e00
0400
1420
2790
1c10
0410
0410
0410
0420
03c0
ENDCHAR
STARTCHAR 3083
ENCODING 12419
SWIDTH 520 0
DWIDTH 14 0
BBX 14 14 0 -2
BITMAP
0000
0400
0200
0100
0660
4990
3e10
0410
04a0
0240
0200
0100
0080
0000
ENDCHAR
STARTCHAR 3084
ENCODING 12420
SWIDTH 520 0
DWIDTH 14 0
BBX 14 14 0 -2
BITMAP
0000
0200
0100
0480
0b00
10c0
9320
7c10
1010
0920
08c0
0400
0200
0100
ENDCHAR
STARTCHAR 3085
ENCODING 12421
SWIDTH 520 0
DWIDTH 14 0
BBX 14 14 0 -2
BITMAP
0000
0200
0100
0100
43c0
2520
2910
4910
5110
5510
2320
21c0
0200
0400
ENDCHAR
STARTCHAR 3086
ENCODING 12422
SWIDTH 520 0
DWIDTH 14 0
BBX 14 14 0 -2
BITMAP
0100
0080
4080
21e0
2290
4488
4888
4888
5088
5488
22b0
21c0
0200
0c00
ENDCHAR
STARTCHAR 3087
ENCODING 12423
SWIDTH 520 0
DWIDTH 14 0
BBX 14 14 0 -2
BITMAP
0000
0400
0200
0260
0380
0200
0200
0200
0200
1e00
2380
2260
1c10
0000
ENDCHAR
STARTCHAR 3088
ENCODING 12424
SWIDTH 520 0
DWIDTH 14 0
BBX 14 14 0 -2
BITMAP
0400
0200
0200
0220
0270
0380
0200
0200
0200
3e00
4380
8260
8410
7808
ENDCHAR
STARTCHAR 3089
ENCODING 12425
SWIDTH 520 0
DWIDTH 14 0
BBX 14 14 0 -2
BITMAP
3800
0400
0400
0800
1000
2000
21c0
2620
2810
3010
0010
0060
0180
0600
ENDCHAR
STARTCHAR 308A
ENCODING 12426
SWIDTH 520 0
DWIDTH 14 0
BBX 14 14 0 -2
BITMAP
1000
0880
0940
0a20
0a20
1220
1420
1420
1820
0840
0040
0080
0100
0200
ENDCHAR
STARTCHAR 308B
ENCODING 12427
SWIDTH 520 0
DWIDTH 14 0
BBX 14 14 0 -2
BITMAP
2300
1c80
0100
0200
0400
0bc0
1c20
2010
4010
0610
0920
0940
0780
0000
ENDCHAR
STARTCHAR 308C
ENCODING 12428
SWIDTH 520 0
DWIDTH 14 0
BBX 14 14 0 -2
BITMAP
1000
0800
0880
0d40
7a40
0c80
0880
1880
2880
4880
c888
a890
1860
0800
ENDCHAR
STARTCHAR 308D
ENCODING 12429
SWIDTH 520 0
DWIDTH 14 0
BBX 14 14 0 -2
BITMAP
2300
1c80
0100
0200
0400
0bc0
1c20
2010
4010
0010
0020
0040
0380
0000
ENDCHAR
STARTCHAR 308E
ENCODING 12430
SWIDTH 520 0
DWIDTH 14 0
BBX 14 14 0 -2
BITMAP
0000
1000
0800
0800
0e00
79e0
0e10
1810
2810
4810
6820
1840
0980
0000
ENDCHAR
STARTCHAR 308F
ENCODING 12431
SWIDTH 520 0
DWIDTH 14 0
BBX 14 14 0 -2
BITMAP
1000
0800
0800
0c00
79e0
0e10
0808
1808
2808
4808
c810
a810
1820
08c0
ENDCHAR
STARTCHAR 3090
ENCODING 12432
SWIDTH 520 0
DWIDTH 14 0
BBX 14 14 0 -2
BITMAP
0000
4e00
3200
0200
0400
07c0
1820
2810
4810
9010
9190
a250
4220
01c0
ENDCHAR
STARTCHAR 3091
ENCODING 12433
SWIDTH 520 0
DWIDTH 14 0
BBX 14 14 0 -2
BITMAP
2180
1f00
0200
07c0
0c20
1020
2620
4940
0780
0400
0800
30e0
4910
8630
ENDCHAR
STARTCHAR 3092
ENCODING 12434
SWIDTH 520 0
DWIDTH 14 0
BBX 14 14 0 -2
BITMAP
0800
0400
4780
3c00
0800
0860
0e90
1120
11c0
2300
0500
0900
0800
07f0
ENDCHAR
STARTCHAR 3093
ENCODING 12435
SWIDTH 520 0
DWIDTH 14 0
BBX 14 14 0 -2
BITMAP
0800
0400
0400
0400
0800
0800
0e00
1900
1080
1080
2080
2090
20a0
2040
ENDCHAR
STARTCHAR 3094
ENCODING 12436
SWIDTH 520 0
DWIDTH 14 0
BBX 14 14 0 -2
BITMAP
0000
0420
03d8
0430
0180
0e40
0840
0040
0040
0040
0080
0100
0600
0000
ENDCHAR
STARTCHAR 309B
ENCODING 12443
SWIDTH 520 0
DWIDTH 14 0
BBX 14 14 0 -2
BITMAP
0000
0000
1200
0900
0d80
0480
0000
0000
0000
0000
0000
0000
0000
0000
ENDCHAR
STARTCHAR 309C
ENCODING 12444
SWIDTH 520 0
DWIDTH 14 0
BBX 14 14 0 -2
BITMAP
0000
0300
0480
0480
0300
0000
0000
0000
0000
0000
0000
0000
0000
0000
ENDCHAR
STARTCHAR 309D
ENCODING 12445
SWIDTH 520 0
DWIDTH 14 0
BBX 14 14 0 -2
BITMAP
0000
0000
2000
1000
0800
0600
0300
0180
00c0
0c60
03e0
0000
0000
0000
ENDCHAR
STARTCHAR 309E
ENCODING 12446
SWIDTH 520 0
DWIDTH 14 0
BBX 14 14 0 -2
BITMAP
0400
0300
0180
08c0
0640
2300
1180
0880
0600
0300
0180
0cc0
03c0
0000
ENDCHAR
STARTCHAR 30A1
ENCODING 12449
SWIDTH 520 0
DWIDTH 14 0
BBX 14 14 0 -2
BITMAP
0000
0000
3fe0
0020
04c0
0300
0200
0200
0200
0400
0400
0800
1000
0000
ENDCHAR
STARTCHAR 30A2
ENCODING 12450
SWIDTH 520 0
DWIDTH 14 0
BBX 14 14 0 -2
BITMAP
0000
7ff0
0020
0040
0580
0200
0200
0200
0200
0200
0400
0400
0800
1000
ENDCHAR
STARTCHAR 30A3
ENCODING 12451
SWIDTH 520 0
DWIDTH 14 0
BBX 14 14 0 -2
BITMAP
0000
0000
0200
0200
0400
0c00
1400
2400
0400
0400
0400
0400
0400
0000
ENDCHAR
STARTCHAR 30A4
ENCODING 12452
SWIDTH 520 0
DWIDTH 14 0
BBX 14 14 0 -2
BITMAP
0100
0100
0200
0400
0c00
1400
2400
4400
0400
0400
0400
0400
0400
0400
ENDCHAR
STARTCHAR 30A5
ENCODING 12453
SWIDTH 520 0
DWIDTH 14 0
BBX 14 14 0 -2
BITMAP
0000
0200
0200
3fe0
2020
2040
0040
0080
0100
0200
0400
1800
0000
0000
ENDCHAR
STARTCHAR 30A6
ENCODING 12454
SWIDTH 520 0
DWIDTH 14 0
BBX 14 14 0 -2
BITMAP
0200
0200
0200
7ff0
4010
4010
4020
0020
0040
0080
0100
0200
0c00
3000
ENDCHAR
STARTCHAR 30A7
ENCODING 12455
SWIDTH 520 0
DWIDTH 14 0
BBX 14 14 0 -2
BITMAP
0000
0000
0000
3fe0
0200
0200
0200
0200
0200
7ff0
0000
0000
0000
0000
ENDCHAR
STARTCHAR 30A8
ENCODING 12456
SWIDTH 520 0
DWIDTH 14 0
BBX 14 14 0 -2
BITMAP
0000
0000
0000
7ff0
0200
0200
0200
0200
0200
0200
fff8
0000
0000
0000
ENDCHAR
STARTCHAR 30A9
ENCODING 12457
SWIDTH 520 0
DWIDTH 14 0
BBX 14 14 0 -2
BITMAP
0000
0200
0200
0200
7ff0
0600
0a00
1200
2200
4200
0200
0a00
0400
0000
ENDCHAR
STARTCHAR 30AA
ENCODING 12458
SWIDTH 520 0
DWIDTH 14 0
BBX 14 14 0 -2
BITMAP
0100
0100
0100
0100
fff8
0100
0300
0500
0900
1100
2100
4100
8500
0200
ENDCHAR
STARTCHAR 30AB
ENCODING 12459
SWIDTH 520 0
DWIDTH 14 0
BBX 14 14 0 -2
BITMAP
0200
0200
0200
0200
3fe0
0420
0420
0420
0820
0820
1020
1040
2140
4080
ENDCHAR
STARTCHAR 30AC
ENCODING 12460
SWIDTH 520 0
DWIDTH 14 0
BBX 14 14 0 -2
BITMAP
0420
0410
0448
0420
7fd0
0840
0840
0840
1040
1040
2040
2080
4280
8100
ENDCHAR
STARTCHAR 30AD
ENCODING 12461
SWIDTH 520 0
DWIDTH 14 0
BBX 14 14 0 -2
BITMAP
0000
1000
1000
0800
09c0
7e00
0400
0200
02e0
7f00
0100
0080
0080
0040
ENDCHAR
STARTCHAR 30AE
ENCODING 12462
SWIDTH 520 0
DWIDTH 14 0
BBX 14 14 0 -2
BITMAP
0020
2010
2048
1020
1790
f800
0800
0400
05c0
fe00
0200
0100
0100
0080
ENDCHAR
STARTCHAR 30AF
ENCODING 12463
SWIDTH 520 0
DWIDTH 14 0
BBX 14 14 0 -2
BITMAP
0200
0200
0200
07e0
0820
1020
2040
0040
0080
0100
0200
0c00
3000
0000
ENDCHAR
STARTCHAR 30B0
ENCODING 12464
SWIDTH 520 0
DWIDTH 14 0
BBX 14 14 0 -2
BITMAP
0020
0810
0848
0820
1f90
2080
4080
8100
0100
0200
0400
0800
3000
c000
ENDCHAR
STARTCHAR 30B1
ENCODING 12465
SWIDTH 520 0
DWIDTH 14 0
BBX 14 14 0 -2
BITMAP
0800
0800
0800
1fe0
1080
2080
4100
0100
0200
0400
0800
1000
2000
0000
ENDCHAR
STARTCHAR 30B2
ENCODING 12466
SWIDTH 520 0
DWIDTH 14 0
BBX 14 14 0 -2
BITMAP
0020
1010
1048
1020
3fd0
2100
4100
8200
0200
0400
0800
1000
2000
4000
ENDCHAR
STARTCHAR 30B3
ENCODING 12467
SWIDTH 520 0
DWIDTH 14 0
BBX 14 14 0 -2
BITMAP
0000
0000
0000
0000
3fe0
0020
0020
0020
0040
0040
3fe0
0000
0000
0000
ENDCHAR
STARTCHAR 30B4
ENCODING 12468
SWIDTH 520 0
DWIDTH 14 0
BBX 14 14 0 -2
BITMAP
0020
0010
0048
0020
7fd0
0040
0040
0040
0080
0080
7fc0
0000
0000
0000
ENDCHAR
STARTCHAR 30B5
ENCODING 12469
SWIDTH 520 0
DWIDTH 14 0
BBX 14 14 0 -2
BITMAP
0000
0080
0880
0880
0880
7ff0
0880
0880
0880
0880
0880
0100
0100
0200
ENDCHAR
STARTCHAR 30B6
ENCODING 12470
SWIDTH 520 0
DWIDTH 14 0
BBX 14 14 0 -2
BITMAP
0020
0110
1148
1120
1110
ffe0
1100
1100
1100
1100
1100
0200
0200
0400
ENDCHAR
STARTCHAR 30B7
ENCODING 12471
SWIDTH 520 0
DWIDTH 14 0
BBX 14 14 0 -2
BITMAP
0000
0800
0400
0200
0000
1010
0820
0440
0080
0100
2200
1400
0800
0000
ENDCHAR
STARTCHAR 30B8
ENCODING 12472
SWIDTH 520 0
DWIDTH 14 0
BBX 14 14 0 -2
BITMAP
0020
0010
1048
0820
0410
0000
2020
1040
0880
0100
0200
4400
2800
1000
ENDCHAR
STARTCHAR 30B9
ENCODING 12473
SWIDTH 520 0
DWIDTH 14 0
BBX 14 14 0 -2
BITMAP
0000
0000
3fc0
0040
0080
0080
0100
0280
0440
0820
1010
6010
0000
0000
ENDCHAR
STARTCHAR 30BA
ENCODING 12474
SWIDTH 520 0
DWIDTH 14 0
BBX 14 14 0 -2
BITMAP
0020
0010
0048
7fa0
0090
0100
0100
0200
0500
0880
1040
2020
c020
0000
ENDCHAR
STARTCHAR 30BB
ENCODING 12475
SWIDTH 520 0
DWIDTH 14 0
BBX 14 14 0 -2
BITMAP
0000
1000
0800
0800
08c0
0f20
7820
0840
0880
0800
0800
0800
07f0
0000
ENDCHAR
STARTCHAR 30BC
ENCODING 12476
SWIDTH 520 0
DWIDTH 14 0
BBX 14 14 0 -2
BITMAP
0020
2010
1048
1020
1190
1e40
f040
1080
1100
1000
1000
1000
0fe0
0000
ENDCHAR
STARTCHAR 30BD
ENCODING 12477
SWIDTH 520 0
DWIDTH 14 0
BBX 14 14 0 -2
BITMAP
0000
0040
2020
1020
0840
0840
0080
0080
0100
0200
0400
0800
3000
0000
ENDCHAR
STARTCHAR 30BE
ENCODING 12478
SWIDTH 520 0
DWIDTH 14 0
BBX 14 14 0 -2
BITMAP
0020
0010
0148
80a0
4090
2100
2100
0200
0200
0400
0800
1000
2000
c000
ENDCHAR
STARTCHAR 30BF
ENCODING 12479
SWIDTH 520 0
DWIDTH 14 0
BBX 14 14 0 -2
BITMAP
0200
0200
0200
07e0
0820
1020
2240
0140
0080
0140
0220
0c20
3000
0000
ENDCHAR
STARTCHAR 30C0
ENCODING 12480
SWIDTH 520 0
DWIDTH 14 0
BBX 14 14 0 -2
BITMAP
0020
0810
0848
0820
1f90
2080
4080
8900
0500
0200
0500
0880
3080
c000
ENDCHAR
STARTCHAR 30C1
ENCODING 12481
SWIDTH 520 0
DWIDTH 14 0
BBX 14 14 0 -2
BITMAP
01c0
1e00
0200
0200
0200
7ff0
0200
0200
0200
0400
0400
0800
1000
2000
ENDCHAR
STARTCHAR 30C2
ENCODING 12482
SWIDTH 520 0
DWIDTH 14 0
BBX 14 14 0 -2
BITMAP
03a0
7c10
0448
0420
0410
ffe0
0400
0400
0400
0800
0800
1000
2000
4000
ENDCHAR
STARTCHAR 30C3
ENCODING 12483
SWIDTH 520 0
DWIDTH 14 0
BBX 14 14 0 -2
BITMAP
0000
0000
0000
0440
2220
1220
1040
0040
0080
0100
0200
0400
1800
0000
ENDCHAR
STARTCHAR 30C4
ENCODING 12484
SWIDTH 520 0
DWIDTH 14 0
BBX 14 14 0 -2
BITMAP
0000
0440
2220
1120
0940
0840
0080
0080
0100
0200
0400
0800
3000
0000
ENDCHAR
STARTCHAR 30C5
ENCODING 12485
SWIDTH 520 0
DWIDTH 14 0
BBX 14 14 0 -2
BITMAP
0020
0010
1148
88a0
4490
2500
2100
0200
0200
0400
0800
1000
2000
c000
ENDCHAR
STARTCHAR 30C6
ENCODING 12486
SWIDTH 520 0
DWIDTH 14 0
BBX 14 14 0 -2
BITMAP
0000
1fc0
0000
0000
0000
7ff0
0100
0100
0200
0200
0400
0800
1000
2000
ENDCHAR
STARTCHAR 30C7
ENCODING 12487
SWIDTH 520 0
DWIDTH 14 0
BBX 14 14 0 -2
BITMAP
0020
3f10
0048
0020
0010
ffe0
0200
0200
0400
0400
0800
1000
2000
4000
ENDCHAR
STARTCHAR 30C8
ENCODING 12488
SWIDTH 520 0
DWIDTH 14 0
BBX 14 14 0 -2
BITMAP
0800
0800
0800
0800
0c00
0a00
0900
0880
0880
0800
0800
0800
0800
0800
ENDCHAR
STARTCHAR 30C9
ENCODING 12489
SWIDTH 520 0
DWIDTH 14 0
BBX 14 14 0 -2
BITMAP
0820
0810
0848
0820
0c10
0a00
0900
0880
0880
0800
0800
0800
0800
0800
ENDCHAR
STARTCHAR 30CA
ENCODING 12490
SWIDTH 520 0
DWIDTH 14 0
BBX 14 14 0 -2
BITMAP
0000
0200
0200
0200
0200
7ff0
0200
0200
0200
0400
0400
0800
1000
2000
ENDCHAR
STARTCHAR 30CB
ENCODING 12491
SWIDTH 520 0
DWIDTH 14 0
BBX 14 14 0 -2
BITMAP
0000
0000
0000
0000
3fe0
0000
0000
0000
0000
fff8
0000
0000
0000
0000
ENDCHAR
STARTCHAR 30CC
ENCODING 12492
SWIDTH 520 0
DWIDTH 14 0
BBX 14 14 0 -2
BITMAP
0000
0000
1fe0
0020
0020
0040
0440
0280
0100
0280
0440
1840
6000
0000
ENDCHAR
STARTCHAR 30CD
ENCODING 12493
SWIDTH 520 0
DWIDTH 14 0
BBX 14 14 0 -2
BITMAP
0400
0300
0100
0000
3f80
0100
0200
0600
0a80
1260
2220
4200
0200
0200
ENDCHAR
STARTCHAR 30CE
ENCODING 12494
SWIDTH 520 0
DWIDTH 14 0
BBX 14 14 0 -2
BITMAP
0000
0040
0040
0040
0080
0080
0100
0200
0400
0800
1000
2000
c000
0000
ENDCHAR
STARTCHAR 30CF
ENCODING 12495
SWIDTH 520 0
DWIDTH 14 0
BBX 14 14 0 -2
BITMAP
0000
0000
0000
0900
0880
0840
1040
1020
2020
2010
4010
8000
0000
0000
ENDCHAR
STARTCHAR 30D0
ENCODING 12496
SWIDTH 520 0
DWIDTH 14 0
BBX 14 14 0 -2
BITMAP
0020
0010
0048
0920
0890
0840
1040
1020
2020
2010
4010
8000
0000
0000
ENDCHAR
STARTCHAR 30D1
ENCODING 12497
SWIDTH 520 0
DWIDTH 14 0
BBX 14 14 0 -2
BITMAP
0030
0048
0048
0930
0880
0840
1040
1020
2020
2010
4010
8000
0000
0000
ENDCHAR
STARTCHAR 30D2
ENCODING 12498
SWIDTH 520 0
DWIDTH 14 0
BBX 14 14 0 -2
BITMAP
0000
2000
2000
2100
2180
2600
3800
2000
2000
2000
2000
1fc0
0000
0000
ENDCHAR
STARTCHAR 30D3
ENCODING 12499
SWIDTH 520 0
DWIDTH 14 0
BBX 14 14 0 -2
BITMAP
0020
2010
2048
2120
2190
2600
3800
2000
2000
2000
2000
1fc0
0000
0000
ENDCHAR
STARTCHAR 30D4
ENCODING 12500
SWIDTH 520 0
DWIDTH 14 0
BBX 14 14 0 -2
BITMAP
0030
2048
2048
2130
2180
2600
3800
2000
2000
2000
2000
1fc0
0000
0000
ENDCHAR
STARTCHAR 30D5
ENCODING 12501
SWIDTH 520 0
DWIDTH 14 0
BBX 14 14 0 -2
BITMAP
0000
0000
0000
3fe0
0020
0020
0040
0040
0080
0100
0200
0c00
3000
0000
ENDCHAR
STARTCHAR 30D6
ENCODING 12502
SWIDTH 520 0
DWIDTH 14 0
BBX 14 14 0 -2
BITMAP
0020
0010
0048
ffa0
0090
0080
0100
0100
0200
0400
0800
3000
c000
0000
ENDCHAR
STARTCHAR 30D7
ENCODING 12503
SWIDTH 520 0
DWIDTH 14 0
BBX 14 14 0 -2
BITMAP
0030
0048
0048
ffb0
0080
0080
0100
0100
0200
0400
0800
3000
c000
0000
ENDCHAR
STARTCHAR 30D8
ENCODING 12504
SWIDTH 520 0
DWIDTH 14 0
BBX 14 14 0 -2
BITMAP
0000
0000
0000
0000
3000
4800
8400
0300
00c0
0038
0000
0000
0000
0000
ENDCHAR
STARTCHAR 30D9
ENCODING 12505
SWIDTH 520 0
DWIDTH 14 0
BBX 14 14 0 -2
BITMAP
0020
0010
0048
0020
3010
4800
8400
0300
00c0
0038
0000
0000
0000
0000
ENDCHAR
STARTCHAR 30DA
ENCODING 12506
SWIDTH 520 0
DWIDTH 14 0
BBX 14 14 0 -2
BITMAP
0030
0048
0048
0030
3000
4800
8400
0200
0180
0070
0000
0000
0000
0000
ENDCHAR
STARTCHAR 30DB
ENCODING 12507
SWIDTH 520 0
DWIDTH 14 0
BBX 14 14 0 -2
BITMAP
0000
0200
0200
0200
0200
7ff0
0200
1240
1220
2210
4210
0200
0a00
0400
ENDCHAR
STARTCHAR 30DC
ENCODING 12508
SWIDTH 520 0
DWIDTH 14 0
BBX 14 14 0 -2
BITMAP
0020
0290
0248
0220
0200
7ff0
0200
1240
1220
2210
4210
0200
0a00
0400
ENDCHAR
STARTCHAR 30DD
ENCODING 12509
SWIDTH 520 0
DWIDTH 14 0
BBX 14 14 0 -2
BITMAP
0030
0248
0248
0230
0200
7ff0
0200
1240
1220
2210
4210
0200
0a00
0400
ENDCHAR
STARTCHAR 30DE
ENCODING 12510
SWIDTH 520 0
DWIDTH 14 0
BBX 14 14 0 -2
BITMAP
0000
0000
0000
7fe0
0020
0040
0080
0500
0200
0100
0080
0000
0000
0000
ENDCHAR
STARTCHAR 30DF
ENCODING 12511
SWIDTH 520 0
DWIDTH 14 0
BBX 14 14 0 -2
BITMAP
0000
1c00
0300
00c0
0040
1c00
0300
00c0
0040
3800
0700
00e0
0020
0000
ENDCHAR
STARTCHAR 30E0
ENCODING 12512
SWIDTH 520 0
DWIDTH 14 0
BBX 14 14 0 -2
BITMAP
0000
0200
0200
0200
0200
0400
0400
0400
0800
0800
1040
2020
7ff0
0010
ENDCHAR
STARTCHAR 30E1
ENCODING 12513
SWIDTH 520 0
DWIDTH 14 0
BBX 14 14 0 -2
BITMAP
0000
0040
0040
0040
1080
0880
0500
0200
0500
0880
1040
2000
c000
0000
ENDCHAR
STARTCHAR 30E2
ENCODING 12514
SWIDTH 520 0
DWIDTH 14 0
BBX 14 14 0 -2
BITMAP
0000
0000
03c0
7c00
0400
0400
07f0
fc00
0400
0400
0400
0400
03f0
0000
ENDCHAR
STARTCHAR 30E3
ENCODING 12515
SWIDTH 520 0
DWIDTH 14 0
BBX 14 14 0 -2
BITMAP
0000
0000
1000
0800
0bf0
7c10
0420
0240
0200
0100
0100
0080
0000
0000
ENDCHAR
STARTCHAR 30E4
ENCODING 12516
SWIDTH 520 0
DWIDTH 14 0
BBX 14 14 0 -2
BITMAP
2000
1000
1000
0800
0bf0
fc10
0420
0240
0200
0100
0100
0080
0080
0040
ENDCHAR
STARTCHAR 30E5
ENCODING 12517
SWIDTH 520 0
DWIDTH 14 0
BBX 14 14 0 -2
BITMAP
0000
0000
0000
0000
1fc0
0040
0040
0040
0080
0080
7ff0
0000
0000
0000
ENDCHAR
STARTCHAR 30E6
ENCODING 12518
SWIDTH 520 0
DWIDTH 14 0
BBX 14 14 0 -2
BITMAP
0000
0000
0000
3fc0
0040
0040
0040
0080
0080
0080
fff8
0000
0000
0000
ENDCHAR
STARTCHAR 30E7
ENCODING 12519
SWIDTH 520 0
DWIDTH 14 0
BBX 14 14 0 -2
BITMAP
0000
0000
0000
3fc0
0040
0040
1fc0
0040
0040
3fc0
0000
0000
0000
0000
ENDCHAR
STARTCHAR 30E8
ENCODING 12520
SWIDTH 520 0
DWIDTH 14 0
BBX 14 14 0 -2
BITMAP
0000
0000
7fe0
0020
0020
0020
3fe0
0020
0020
0020
7fe0
0000
0000
0000
ENDCHAR
STARTCHAR 30E9
ENCODING 12521
SWIDTH 520 0
DWIDTH 14 0
BBX 14 14 0 -2
BITMAP
0000
0fc0
0000
0000
0000
3fe0
0020
0040
0040
0080
0100
0200
0400
1800
ENDCHAR
STARTCHAR 30EA
ENCODING 12522
SWIDTH 520 0
DWIDTH 14 0
BBX 14 14 0 -2
BITMAP
0080
0880
0880
0880
0880
0880
0880
0900
0100
0200
0200
0400
0800
1000
ENDCHAR
STARTCHAR 30EB
ENCODING 12523
SWIDTH 520 0
DWIDTH 14 0
BBX 14 14 0 -2
BITMAP
0000
0100
0900
0900
0900
0900
0900
0910
1120
1140
2180
4100
8000
0000
ENDCHAR
STARTCHAR 30EC
ENCODING 12524
SWIDTH 520 0
DWIDTH 14 0
BBX 14 14 0 -2
BITMAP
0000
0000
2000
2000
2000
2020
2040
2080
2100
2200
2400
1800
0000
0000
ENDCHAR
STARTCHAR 30ED
ENCODING 12525
SWIDTH 520 0
DWIDTH 14 0
BBX 14 14 0 -2
BITMAP
0000
0000
3fc0
2040
2040
2040
2040
2080
2080
3fc0
2000
0000
0000
0000
ENDCHAR
STARTCHAR 30EE
ENCODING 12526
SWIDTH 520 0
DWIDTH 14 0
BBX 14 14 0 -2
BITMAP
0000
0000
0000
3fe0
2020
2040
0040
0080
0100
0200
0400
1800
0000
0000
ENDCHAR
STARTCHAR 30EF
ENCODING 12527
SWIDTH 520 0
DWIDTH 14 0
BBX 14 14 0 -2
BITMAP
0000
0000
0000
7ff0
4010
4010
4020
0020
0040
0080
0100
0200
0c00
3000
ENDCHAR
STARTCHAR 30F0
ENCODING 12528
SWIDTH 520 0
DWIDTH 14 0
BBX 14 14 0 -2
BITMAP
0200
0200
0200
3fc0
2200
2200
2200
2200
fff8
0200
0200
0200
0200
0200
ENDCHAR
STARTCHAR 30F1
ENCODING 12529
SWIDTH 520 0
DWIDTH 14 0
BBX 14 14 0 -2
BITMAP
0000
0000
3fc0
0080
0500
0200
0200
0200
0200
fff8
0000
0000
0000
0000
ENDCHAR
STARTCHAR 30F2
ENCODING 12530
SWIDTH 520 0
DWIDTH 14 0
BBX 14 14 0 -2
BITMAP
0000
0000
1fe0
0020
0020
0040
7ff0
0080
0100
0200
0400
1800
6000
0000
ENDCHAR
STARTCHAR 30F3
ENCODING 12531
SWIDTH 520 0
DWIDTH 14 0
BBX 14 14 0 -2
BITMAP
0000
1000
0800
0400
0010
0020
0040
0080
0100
0200
4400
2800
1000
0000
ENDCHAR
STARTCHAR 30F4
ENCODING 12532
SWIDTH 520 0
DWIDTH 14 0
BBX 14 14 0 -2
BITMAP
0020
0010
0848
0820
ff90
8080
8100
0100
0200
0400
0800
1000
6000
0000
ENDCHAR
STARTCHAR 30F5
ENCODING 12533
SWIDTH 520 0
DWIDTH 14 0
BBX 14 14 0 -2
BITMAP
0000
0200
0200
0200
1fc0
0240
0240
0440
0440
0440
0a80
1100
0000
0000
ENDCHAR
STARTCHAR 30F6
ENCODING 12534
SWIDTH 520 0
DWIDTH 14 0
BBX 14 14 0 -2
BITMAP
0000
0400
0400
0400
07e0
0880
1080
2100
0100
0200
0400
0800
0000
0000
ENDCHAR
STARTCHAR 30F7
ENCODING 12535
SWIDTH 520 0
DWIDTH 14 0
BBX 14 14 0 -2
BITMAP
0010
0028
0010
3fe0
1020
1040
1040
1040
0080
0100
0200
1c00
0000
0000
ENDCHAR
STARTCHAR 30F8
ENCODING 12536
SWIDTH 520 0
DWIDTH 14 0
BBX 14 14 0 -2
BITMAP
0000
0018
0328
0110
2120
1fc0
0900
0900
9ff8
6100
0100
0100
0100
0000
ENDCHAR
STARTCHAR 30F9
ENCODING 12537
SWIDTH 520 0
DWIDTH 14 0
BBX 14 14 0 -2
BITMAP
0000
0010
0028
0010
1fe0
0040
0380
0200
0200
0200
7ff8
0000
0000
0000
ENDCHAR
STARTCHAR 30FA
ENCODING 12538
SWIDTH 520 0
DWIDTH 14 0
BBX 14 14 0 -2
BITMAP
0008
0024
2030
1fe8
0040
23c0
1c40
0080
0100
0100
0200
0400
1800
0000
ENDCHAR
STARTCHAR 30FB
ENCODING 12539
SWIDTH 520 0
DWIDTH 14 0
BBX 14 14 0 -2
BITMAP
0000
0000
0000
0000
0000
0200
0300
0300
0000
0000
0000
0000
0000
0000
ENDCHAR
STARTCHAR 30FC
ENCODING 12540
SWIDTH 520 0
DWIDTH 14 0
BBX 14 14 0 -2
BITMAP
0000
0000
0000
0000
07f0
fc78
6000
0000
0000
0000
0000
0000
0000
0000
ENDCHAR
STARTCHAR 30FD
ENCODING 12541
SWIDTH 520 0
DWIDTH 14 0
BBX 14 14 0 -2
BITMAP
0000
0400
0200
0300
0180
0100
0000
0000
0000
0000
0000
0000
0000
0000
ENDCHAR
STARTCHAR 30FE
ENCODING 12542
SWIDTH 520 0
DWIDTH 14 0
BBX 14 14 0 -2
BITMAP
0400
0300
0180
10c0
0c60
0640
0300
2180
1900
0c00
0600
0300
0200
0000
ENDCHAR
STARTCHAR 4E00
ENCODING 19968
SWIDTH 520 0
DWIDTH 14 0
BBX 14 14 0 -2
BITMAP
0000
0000
0000
0000
0000
0000
fff8
0000
0000
0000
0000
0000
0000
0000
ENDCHAR
STARTCHAR 4E01
ENCODING 19969
SWIDTH 520 0
DWIDTH 14 0
BBX 14 14 0 -2
BITMAP
0000
fff8
0200
0200
0200
0200
0200
0200
0200
0200
0200
0200
0200
0e00
ENDCHAR
STARTCHAR 4E02
ENCODING 19970
SWIDTH 520 0
DWIDTH 14 0
BBX 14 14 0 -2
BITMAP
0000
fff8
0800
0800
1000
1000
3fe0
0020
0020
0020
0020
0020
0020
00c0
ENDCHAR
STARTCHAR 4E03
ENCODING 19971
SWIDTH 520 0
DWIDTH 14 0
BBX 14 14 0 -2
BITMAP
0400
0400
0400
0400
0478
0780
fc00
0400
0400
0400
0400
0408
0408
03f8
ENDCHAR
STARTCHAR 4E04
ENCODING 19972
SWIDTH 520 0
DWIDTH 14 0
BBX 14 14 0 -2
BITMAP
0200
0200
0200
0200
0200
0200
0200
0200
0200
0200
0200
0200
0200
fff8
ENDCHAR
STARTCHAR 4E05
ENCODING 19973
SWIDTH 520 0
DWIDTH 14 0
BBX 14 14 0 -2
BITMAP
0000
fff8
0200
0200
0200
0200
0200
0200
0200
0200
0200
0200
0200
0200
ENDCHAR
STARTCHAR 4E06
ENCODING 19974
SWIDTH 520 0
DWIDTH 14 0
BBX 14 14 0 -2
BITMAP
0000
fff8
0400
0400
0800
1000
2000
4000
8000
0000
0000
0000
0000
0000
ENDCHAR
STARTCHAR 4E07
ENCODING 19975
SWIDTH 520 0
DWIDTH 14 0
BBX 14 14 0 -2
BITMAP
fff8
0800
0800
0800
0800
0fe0
0820
1020
1020
1020
2020
2020
4020
81c0
ENDCHAR
STARTCHAR 4E08
ENCODING 19976
SWIDTH 520 0
DWIDTH 14 0
BBX 14 14 0 -2
BITMAP
0100
0100
0100
fff8
0100
2100
2100
1100
1200
0a00
0400
0b00
30c0
c038
ENDCHAR
STARTCHAR 4E09
ENCODING 19977
SWIDTH 520 0
DWIDTH 14 0
BBX 14 14 0 -2
BITMAP
0000
7ff0
0000
0000
0000
0000
0000
3fe0
0000
0000
0000
0000
0000
fff8
ENDCHAR
STARTCHAR 4E0A
ENCODING 19978
SWIDTH 520 0
DWIDTH 14 0
BBX 14 14 0 -2
BITMAP
0200
0200
0200
0200
0200
03f0
0200
0200
0200
0200
0200
0200
0200
fff8
ENDCHAR
STARTCHAR 4E0B
ENCODING 19979
SWIDTH 520 0
DWIDTH 14 0
BBX 14 14 0 -2
BITMAP
0000
fff8
0400
0400
0400
0480
0440
0420
0420
0400
0400
0400
0400
0400
ENDCHAR
STARTCHAR 4E0C
ENCODING 19980
SWIDTH 520 0
DWIDTH 14 0
BBX 14 14 0 -2
BITMAP
0000
fff8
1040
1040
1040
1040
1040
1040
1040
1040
2040
2040
4040
8040
ENDCHAR
STARTCHAR 4E0D
ENCODING 19981
SWIDTH 520 0
DWIDTH 14 0
BBX 14 14 0 -2
BITMAP
0000
fff8
0100
0100
0200
0600
0a40
1220
2210
4208
8208
0200
0200
0200
ENDCHAR
STARTCHAR 4E0E
ENCODING 19982
SWIDTH 520 0
DWIDTH 14 0
BBX 14 14 0 -2
BITMAP
1000
1000
1ff8
1000
1000
2000
3ff8
0008
0008
ffe8
0008
0008
0008
0030
ENDCHAR
STARTCHAR 4E0F
ENCODING 19983
SWIDTH 520 0
DWIDTH 14 0
BBX 14 14 0 -2
BITMAP
0000
fff8
0200
0200
23f0
2210
2210
2210
3ff0
0010
0010
0010
0010
0060
ENDCHAR
STARTCHAR 4E10
ENCODING 19984
SWIDTH 520 0
DWIDTH 14 0
BBX 14 14 0 -2
BITMAP
0000
fff8
0200
0200
23f0
2200
2200
2200
3ff0
0010
0010
0010
0010
0060
ENDCHAR
STARTCHAR 4E11
ENCODING 19985
SWIDTH 520 0
DWIDTH 14 0
BBX 14 14 0 -2
BITMAP
0000
7fe0
0820
0820
0820
0820
0820
7fe0
1020
1020
1020
1020
1020
fff8
ENDCHAR
STARTCHAR 4E12
ENCODING 19986
SWIDTH 520 0
DWIDTH 14 0
BBX 14 14 0 -2
BITMAP
0000
7ff0
0410
0410
1410
0c10
0410
0a10
0910
1010
2020
40c0
0000
fff8
ENDCHAR
STARTCHAR 4E13
ENCODING 19987
SWIDTH 520 0
DWIDTH 14 0
BBX 14 14 0 -2
BITMAP
0200
0200
7ff0
0400
0400
fff8
0800
1000
3fe0
0020
0040
1c80
0300
0080
ENDCHAR
STARTCHAR 4E14
ENCODING 19988
SWIDTH 520 0
DWIDTH 14 0
BBX 14 14 0 -2
BITMAP
0000
3fe0
2020
2020
2020
3fe0
2020
2020
2020
3fe0
2020
2020
2020
fff8
ENDCHAR
STARTCHAR 4E15
ENCODING 19989
SWIDTH 520 0
DWIDTH 14 0
BBX 14 14 0 -2
BITMAP
fff8
0100
0100
0200
0600
0a40
1220
2210
4208
8208
0200
0200
0000
fff8
ENDCHAR
STARTCHAR 4E16
ENCODING 19990
SWIDTH 520 0
DWIDTH 14 0
BBX 14 14 0 -2
BITMAP
0420
2420
2420
2420
fff8
2420
2420
2420
2420
27e0
2000
2000
2000
3ff8
ENDCHAR
STARTCHAR 4E17
ENCODING 19991
SWIDTH 520 0
DWIDTH 14 0
BBX 14 14 0 -2
BITMAP
2220
2220
2220
2220
2220
fff8
2220
2220
2220
2220
2220
2220
3fe0
2020
ENDCHAR
STARTCHAR 4E18
ENCODING 19992
SWIDTH 520 0
DWIDTH 14 0
BBX 14 14 0 -2
BITMAP
0000
00e0
3f00
2000
2000
2000
3ff0
2080
2080
2080
2080
2080
2080
fff8
ENDCHAR
STARTCHAR 4E19
ENCODING 19993
SWIDTH 520 0
DWIDTH 14 0
BBX 14 14 0 -2
BITMAP
0000
fff8
0200
0200
7ff0
4210
4210
4510
4490
4850
5050
4010
4010
4070
ENDCHAR
STARTCHAR 4E1A
ENCODING 19994
SWIDTH 520 0
DWIDTH 14 0
BBX 14 14 0 -2
BITMAP
0880
0880
0880
8890
4890
4890
28a0
28a0
28c0
0880
0880
0880
0880
fff8
ENDCHAR
STARTCHAR 4E1B
ENCODING 19995
SWIDTH 520 0
DWIDTH 14 0
BBX 14 14 0 -2
BITMAP
1040
1040
1040
1040
1040
1040
28a0
24a0
4510
4110
8208
0000
0000
fff8
ENDCHAR
STARTCHAR 4E1C
ENCODING 19996
SWIDTH 520 0
DWIDTH 14 0
BBX 14 14 0 -2
BITMAP
0400
0400
7ff0
0800
1200
2200
3fe0
0200
0200
2240
2220
4210
8210
0e00
ENDCHAR
STARTCHAR 4E1D
ENCODING 19997
SWIDTH 520 0
DWIDTH 14 0
BBX 14 14 0 -2
BITMAP
2040
2040
4080
4488
8508
f9f0
0820
1040
2080
4100
fdf8
0000
0000
fff8
ENDCHAR
STARTCHAR 4E1E
ENCODING 19998
SWIDTH 520 0
DWIDTH 14 0
BBX 14 14 0 -2
BITMAP
0000
3fc0
0080
0110
7a20
0b40
1280
1240
2220
4218
8e00
0000
0000
7ff0
ENDCHAR
STARTCHAR 4E1F
ENCODING 19999
SWIDTH 520 0
DWIDTH 14 0
BBX 14 14 0 -2
BITMAP
0000
fff8
0200
0200
7ff0
0200
0200
0200
fff8
0800
1040
2020
7ff0
0010
ENDCHAR
STARTCHAR 4E20
ENCODING 20000
SWIDTH 520 0
DWIDTH 14 0
BBX 14 14 0 -2
BITMAP
0880
0880
0888
f890
08e0
0880
0880
3880
c888
0888
0878
0000
0000
fff8
ENDCHAR
STARTCHAR 4E21
ENCODING 20001
SWIDTH 520 0
DWIDTH 14 0
BBX 14 14 0 -2
BITMAP
0000
fff8
0200
0200
7ff0
4210
5250
5250
5250
5250
5fd0
4010
4010
4070
ENDCHAR
STARTCHAR 4E22
ENCODING 20002
SWIDTH 520 0
DWIDTH 14 0
BBX 14 14 0 -2
BITMAP
00f0
7f00
0200
0200
7ff0
0200
0200
0200
fff8
0800
1040
2020
7ff0
0010
ENDCHAR
STARTCHAR 4E23
ENCODING 20003
SWIDTH 520 0
DWIDTH 14 0
BBX 14 14 0 -2
BITMAP
0000
fff8
0880
0880
78f0
4890
4890
4890
78f0
0890
1080
1080
2080
4080
ENDCHAR
STARTCHAR 4E24
ENCODING 20004
SWIDTH 520 0
DWIDTH 14 0
BBX 14 14 0 -2
BITMAP
0000
fff8
0880
0880
7ff0
4890
4890
4890
5550
6230
4410
4010
4010
4070
ENDCHAR
STARTCHAR 4E25
ENCODING 20005
SWIDTH 520 0
DWIDTH 14 0
BBX 14 14 0 -2
BITMAP
7ff8
0480
2490
1490
14a0
0480
3ff8
2000
2000
2000
2000
4000
4000
8000
ENDCHAR
STARTCHAR 4E26
ENCODING 20006
SWIDTH 520 0
DWIDTH 14 0
BBX 14 14 0 -2
BITMAP
2020
1040
0880
7ff0
0880
0880
8888
4888
2890
28a0
0880
0880
0880
fff8
ENDCHAR
STARTCHAR 4E27
ENCODING 20007
SWIDTH 520 0
DWIDTH 14 0
BBX 14 14 0 -2
BITMAP
0200
0200
7ff0
0200
2220
1240
0200
fff8
2400
2220
2140
2880
3060
2018
ENDCHAR
STARTCHAR 4E28
ENCODING 20008
SWIDTH 520 0
DWIDTH 14 0
BBX 14 14 0 -2
BITMAP
0200
0200
0200
0200
0200
0200
0200
0200
0200
0200
0200
0200
0200
0200
ENDCHAR
STARTCHAR 4E29
ENCODING 20009
SWIDTH 520 0
DWIDTH 14 0
BBX 14 14 0 -2
BITMAP
0080
0080
2080
2080
2080
2080
2180
2680
3880
2080
0080
0080
0080
0080
ENDCHAR
STARTCHAR 4E2A
ENCODING 20010
SWIDTH 520 0
DWIDTH 14 0
BBX 14 14 0 -2
BITMAP
0200
0200
0500
0880
1040
2220
c218
0200
0200
0200
0200
0200
0200
0200
ENDCHAR
STARTCHAR 4E2B
ENCODING 20011
SWIDTH 520 0
DWIDTH 14 0
BBX 14 14 0 -2
BITMAP
4010
2020
1040
0880
0900
0200
0200
0200
0200
0200
0200
0200
0200
0200
ENDCHAR
STARTCHAR 4E2C
ENCODING 20012
SWIDTH 520 0
DWIDTH 14 0
BBX 14 14 0 -2
BITMAP
0200
0200
2200
1200
0a00
0200
0200
0600
1a00
6200
0200
0200
0200
0200
ENDCHAR
STARTCHAR 4E2D
ENCODING 20013
SWIDTH 520 0
DWIDTH 14 0
BBX 14 14 0 -2
BITMAP
0200
0200
7ff0
4210
4210
4210
4210
4210
7ff0
4210
0200
0200
0200
0200
ENDCHAR
STARTCHAR 4E2E
ENCODING 20014
SWIDTH 520 0
DWIDTH 14 0
BBX 14 14 0 -2
BITMAP
0000
7fe0
0820
0820
0820
ffa0
0820
0820
0820
ffa0
0820
0828
0818
0808
ENDCHAR
STARTCHAR 4E2F
ENCODING 20015
SWIDTH 520 0
DWIDTH 14 0
BBX 14 14 0 -2
BITMAP
0200
0230
03c0
0e00
f230
03c0
0e00
f218
02e0
0f00
f200
0200
0200
0200
ENDCHAR
STARTCHAR 4E30
ENCODING 20016
SWIDTH 520 0
DWIDTH 14 0
BBX 14 14 0 -2
BITMAP
0200
0200
7ff0
0200
0200
0200
3fe0
0200
0200
0200
fff8
0200
0200
0200
ENDCHAR
STARTCHAR 4E31
ENCODING 20017
SWIDTH 520 0
DWIDTH 14 0
BBX 14 14 0 -2
BITMAP
0880
0880
4890
4890
4890
4890
5890
68f0
0890
1080
1080
2080
4080
8080
ENDCHAR
STARTCHAR 4E32
ENCODING 20018
SWIDTH 520 0
DWIDTH 14 0
BBX 14 14 0 -2
BITMAP
0200
0200
7ff0
4210
4210
7ff0
0200
fff8
8208
8208
fff8
8208
0200
0200
ENDCHAR
STARTCHAR 4E33
ENCODING 20019
SWIDTH 520 0
DWIDTH 14 0
BBX 14 14 0 -2
BITMAP
0880
0880
7ff0
4890
4890
7ff0
0880
fff8
8888
8888
fff8
9088
2080
4080
ENDCHAR
STARTCHAR 4E34
ENCODING 20020
SWIDTH 520 0
DWIDTH 14 0
BBX 14 14 0 -2
BITMAP
0900
0900
49f8
4a40
4a20
4c20
4800
4bf8
4a48
4a48
4a48
0bf8
0a08
0800
ENDCHAR
STARTCHAR 4E35
ENCODING 20021
SWIDTH 520 0
DWIDTH 14 0
BBX 14 14 0 -2
BITMAP
0880
4890
28a0
0880
fff8
1040
0880
3fe0
0200
0200
fff8
0200
0200
0200
ENDCHAR
STARTCHAR 4E36
ENCODING 20022
SWIDTH 520 0
DWIDTH 14 0
BBX 14 14 0 -2
BITMAP
0000
0000
0000
0000
0800
0400
0200
0200
0100
0100
0000
0000
0000
0000
ENDCHAR
STARTCHAR 4E37
ENCODING 20023
SWIDTH 520 0
DWIDTH 14 0
BBX 14 14 0 -2
BITMAP
0010
4010
2020
1020
1040
0880
0900
0000
0000
0000
0000
0000
0000
0000
ENDCHAR
STARTCHAR 4E38
ENCODING 20024
SWIDTH 520 0
DWIDTH 14 0
BBX 14 14 0 -2
BITMAP
0800
0800
0800
7fc0
0840
0840
2840
1840
0840
1440
1240
2048
4048
8038
ENDCHAR
STARTCHAR 4E39
ENCODING 20025
SWIDTH 520 0
DWIDTH 14 0
BBX 14 14 0 -2
BITMAP
0000
3fe0
2020
2420
2220
2220
2020
fff8
2020
2020
2020
2020
4020
80e0
ENDCHAR
STARTCHAR 4E3A
ENCODING 20026
SWIDTH 520 0
DWIDTH 14 0
BBX 14 14 0 -2
BITMAP
0400
2400
1400
0400
fff0
0410
0810
0910
0890
1090
1010
2010
4020
80c0
ENDCHAR
STARTCHAR 4E3B
ENCODING 20027
SWIDTH 520 0
DWIDTH 14 0
BBX 14 14 0 -2
BITMAP
0400
0200
7ff0
0200
0200
0200
0200
3fe0
0200
0200
0200
0200
0200
fff8
ENDCHAR
STARTCHAR 4E3C
ENCODING 20028
SWIDTH 520 0
DWIDTH 14 0
BBX 14 14 0 -2
BITMAP
1040
1040
1040
7ff0
1040
1440
1240
1240
fff8
1040
2040
2040
4040
8040
ENDCHAR
STARTCHAR 4E3D
ENCODING 20029
SWIDTH 520 0
DWIDTH 14 0
BBX 14 14 0 -2
BITMAP
0000
fff8
0000
0000
7df0
4510
4510
6590
5550
5550
4510
4510
4510
5d70
ENDCHAR
STARTCHAR 4E3E
ENCODING 20030
SWIDTH 520 0
DWIDTH 14 0
BBX 14 14 0 -2
BITMAP
2420
1240
0080
fff8
0880
1240
2220
dfd8
0200
0200
7ff0
0200
0200
0200
ENDCHAR
STARTCHAR 4E3F
ENCODING 20031
SWIDTH 520 0
DWIDTH 14 0
BBX 14 14 0 -2
BITMAP
0200
0200
0200
0200
0200
0200
0200
0200
0200
0400
0400
0800
1000
2000
ENDCHAR
STARTCHAR 4E40
ENCODING 20032
SWIDTH 520 0
DWIDTH 14 0
BBX 14 14 0 -2
BITMAP
0400
0400
0800
1000
2800
4800
8800
0800
0400
0400
0200
0100
00c0
0038
ENDCHAR
STARTCHAR 4E41
ENCODING 20033
SWIDTH 520 0
DWIDTH 14 0
BBX 14 14 0 -2
BITMAP
0000
7e00
0200
0200
0200
0200
0200
0100
0100
0080
0040
0020
0010
0008
ENDCHAR
STARTCHAR 4E42
ENCODING 20034
SWIDTH 520 0
DWIDTH 14 0
BBX 14 14 0 -2
BITMAP
0020
2020
2020
1040
1040
0880
0880
0500
0200
0500
0880
1040
2020
c018
ENDCHAR
STARTCHAR 4E43
ENCODING 20035
SWIDTH 520 0
DWIDTH 14 0
BBX 14 14 0 -2
BITMAP
0000
7fe0
0820
0840
0840
0880
09f8
1008
1008
1008
2008
2008
4010
80e0
ENDCHAR
STARTCHAR 4E44
ENCODING 20036
SWIDTH 520 0
DWIDTH 14 0
BBX 14 14 0 -2
BITMAP
0020
0020
0020
0040
0840
0480
0280
0100
0280
4440
4820
5020
6000
4000
ENDCHAR
STARTCHAR 4E45
ENCODING 20037
SWIDTH 520 0
DWIDTH 14 0
BBX 14 14 0 -2
BITMAP
0800
0800
0800
1fc0
1040
2080
4080
8100
0200
0500
0880
1040
2020
c018
ENDCHAR
STARTCHAR 4E46
ENCODING 20038
SWIDTH 520 0
DWIDTH 14 0
BBX 14 14 0 -2
BITMAP
0800
0800
0840
1040
1080
2780
7900
0100
0200
0500
0880
1040
2020
c018
ENDCHAR
STARTCHAR 4E47
ENCODING 20039
SWIDTH 520 0
DWIDTH 14 0
BBX 14 14 0 -2
BITMAP
01e0
3e00
0400
0400
0400
0478
0780
fc00
0400
0400
0400
0408
0408
03f8
ENDCHAR
STARTCHAR 4E48
ENCODING 20040
SWIDTH 520 0
DWIDTH 14 0
BBX 14 14 0 -2
BITMAP
0200
0200
0400
0440
0840
1080
2080
4100
8200
0400
0820
1010
7ff8
0008
ENDCHAR
STARTCHAR 4E49
ENCODING 20041
SWIDTH 520 0
DWIDTH 14 0
BBX 14 14 0 -2
BITMAP
0420
2220
2220
1040
1040
0880
0880
0500
0200
0500
0880
1040
2020
c018
ENDCHAR
STARTCHAR 4E4A
ENCODING 20042
SWIDTH 520 0
DWIDTH 14 0
BBX 14 14 0 -2
BITMAP
0078
0780
f800
0020
2020
1040
1040
0880
0900
0000
0000
0000
0000
0000
ENDCHAR
STARTCHAR 4E4B
ENCODING 20043
SWIDTH 520 0
DWIDTH 14 0
BBX 14 14 0 -2
BITMAP
0400
0200
0000
7ff0
0020
0040
0080
0100
0200
0400
0800
3000
4c00
83f8
ENDCHAR
STARTCHAR 4E4C
ENCODING 20044
SWIDTH 520 0
DWIDTH 14 0
BBX 14 14 0 -2
BITMAP
0400
0800
3fc0
2040
2040
21c0
2000
3ff0
0010
0010
ffd0
0010
0010
0060
ENDCHAR
STARTCHAR 4E4D
ENCODING 20045
SWIDTH 520 0
DWIDTH 14 0
BBX 14 14 0 -2
BITMAP
1000
1000
1000
1ff8
2400
4400
87e0
0400
0400
07f0
0400
0400
0400
0400
ENDCHAR
STARTCHAR 4E4E
ENCODING 20046
SWIDTH 520 0
DWIDTH 14 0
BBX 14 14 0 -2
BITMAP
00f0
7f00
0200
2220
1220
1240
0200
fff8
0200
0200
0200
0200
0200
0e00
ENDCHAR
STARTCHAR 4E4F
ENCODING 20047
SWIDTH 520 0
DWIDTH 14 0
BBX 14 14 0 -2
BITMAP
0000
00f0
7f00
0000
0400
0200
7ff0
0060
0180
0600
1800
2000
5000
8ff8
ENDCHAR
STARTCHAR 4E50
ENCODING 20048
SWIDTH 520 0
DWIDTH 14 0
BBX 14 14 0 -2
BITMAP
00e0
3f00
2000
2200
4200
4200
7ff8
0200
0200
2240
2220
4210
8210
0e00
ENDCHAR
STARTCHAR 4E51
ENCODING 20049
SWIDTH 520 0
DWIDTH 14 0
BBX 14 14 0 -2
BITMAP
00f0
7f00
0200
1210
1320
2340
4a80
8a80
1240
2220
4210
8208
0200
0200
ENDCHAR
STARTCHAR 4E52
ENCODING 20050
SWIDTH 520 0
DWIDTH 14 0
BBX 14 14 0 -2
BITMAP
00e0
1f00
1000
1000
1ff0
1040
1040
1040
fff8
0000
1000
1000
2000
4000
ENDCHAR
STARTCHAR 4E53
ENCODING 20051
SWIDTH 520 0
DWIDTH 14 0
BBX 14 14 0 -2
BITMAP
00e0
3f00
2000
2000
3ff0
2080
2080
2080
fff8
0000
0080
0040
0020
0010
ENDCHAR
STARTCHAR 4E54
ENCODING 20052
SWIDTH 520 0
DWIDTH 14 0
BBX 14 14 0 -2
BITMAP
01e0
3e00
0200
fff8
0500
0880
3060
c018
1040
1040
1040
1040
2040
4040
ENDCHAR
STARTCHAR 4E55
ENCODING 20053
SWIDTH 520 0
DWIDTH 14 0
BBX 14 14 0 -2
BITMAP
00f0
3f00
2100
2ff0
2100
3ff8
2100
2ff0
2910
2910
4910
4970
8100
0100
ENDCHAR
STARTCHAR 4E56
ENCODING 20054
SWIDTH 520 0
DWIDTH 14 0
BBX 14 14 0 -2
BITMAP
00e0
3f00
0200
fff8
0200
0a80
7a88
0af0
0a88
1a88
ea78
0200
0200
0200
ENDCHAR
STARTCHAR 4E57
ENCODING 20055
SWIDTH 520 0
DWIDTH 14 0
BBX 14 14 0 -2
BITMAP
00e0
3f00
0200
fff8
1240
1240
fff8
1240
1240
7ff0
0a80
3260
c218
0200
ENDCHAR
STARTCHAR 4E58
ENCODING 20056
SWIDTH 520 0
DWIDTH 14 0
BBX 14 14 0 -2
BITMAP
00e0
3f00
0200
fff8
0a80
7aa0
0ac0
1a90
6a70
0700
0a80
3260
c218
0200
ENDCHAR
STARTCHAR 4E59
ENCODING 20057
SWIDTH 520 0
DWIDTH 14 0
BBX 14 14 0 -2
BITMAP
0000
7ff0
0020
0040
0080
0100
0200
0400
0800
1000
2008
2008
2008
1ff8
ENDCHAR
STARTCHAR 4E5A
ENCODING 20058
SWIDTH 520 0
DWIDTH 14 0
BBX 14 14 0 -2
BITMAP
2000
2000
2000
2000
2000
2000
2000
2000
2000
2000
2010
2010
2010
1ff0
ENDCHAR
STARTCHAR 4E5B
ENCODING 20059
SWIDTH 520 0
DWIDTH 14 0
BBX 14 14 0 -2
BITMAP
0000
0000
fff0
0010
0020
0040
0000
0000
0000
0000
0000
0000
0000
0000
ENDCHAR
STARTCHAR 4E5C
ENCODING 20060
SWIDTH 520 0
DWIDTH 14 0
BBX 14 14 0 -2
BITMAP
0000
0000
2060
21a0
2620
3820
e020
2020
2020
2060
2008
2008
2008
1ff8
ENDCHAR
STARTCHAR 4E5D
ENCODING 20061
SWIDTH 520 0
DWIDTH 14 0
BBX 14 14 0 -2
BITMAP
0800
0800
0800
7fc0
0840
0840
0840
0840
0840
1040
1040
2048
4048
8038
ENDCHAR
STARTCHAR 4E5E
ENCODING 20062
SWIDTH 520 0
DWIDTH 14 0
BBX 14 14 0 -2
BITMAP
1000
1000
1ff0
2000
4000
9fc0
0080
0300
0400
0800
1010
2010
2010
1ff0
ENDCHAR
STARTCHAR 4E5F
ENCODING 20063
SWIDTH 520 0
DWIDTH 14 0
BBX 14 14 0 -2
BITMAP
0200
0200
2260
23a0
2620
3a20
e220
2220
2220
2260
2208
2008
2008
1ff8
ENDCHAR
STARTCHAR 4E60
ENCODING 20064
SWIDTH 520 0
DWIDTH 14 0
BBX 14 14 0 -2
BITMAP
0000
7ff0
0010
0010
1010
0810
0890
0310
0c10
3010
c010
0010
0020
00c0
ENDCHAR
STARTCHAR 4E61
ENCODING 20065
SWIDTH 520 0
DWIDTH 14 0
BBX 14 14 0 -2
BITMAP
0800
0840
1040
2080
7f00
0210
0410
1820
7fe0
0040
0080
0300
1c00
e000
ENDCHAR
STARTCHAR 4E62
ENCODING 20066
SWIDTH 520 0
DWIDTH 14 0
BBX 14 14 0 -2
BITMAP
1040
1040
1040
9240
9240
9240
9240
9240
9240
9240
9e40
e248
0048
0038
ENDCHAR
STARTCHAR 4E63
ENCODING 20067
SWIDTH 520 0
DWIDTH 14 0
BBX 14 14 0 -2
BITMAP
1080
1080
1080
2080
2480
4480
f880
0880
1080
2080
4880
fc88
0488
0078
ENDCHAR
STARTCHAR 4E64
ENCODING 20068
SWIDTH 520 0
DWIDTH 14 0
BBX 14 14 0 -2
BITMAP
0000
fff8
0200
0280
0240
0220
0200
0000
7fe0
0180
0e08
3008
4008
3ff8
ENDCHAR
STARTCHAR 4E65
ENCODING 20069
SWIDTH 520 0
DWIDTH 14 0
BBX 14 14 0 -2
BITMAP
01e0
7e00
0000
1040
0840
0880
0000
0000
7fe0
0180
0e08
3008
4008
3ff8
ENDCHAR
STARTCHAR 4E66
ENCODING 20070
SWIDTH 520 0
DWIDTH 14 0
BBX 14 14 0 -2
BITMAP
0420
0410
7fe8
0420
0420
0420
0420
fff8
0408
0408
0408
0408
0430
0400
ENDCHAR
STARTCHAR 4E67
ENCODING 20071
SWIDTH 520 0
DWIDTH 14 0
BBX 14 14 0 -2
BITMAP
0880
0480
2080
1080
01f8
fe80
0080
0080
7fe0
0180
0e08
3008
4008
3ff8
ENDCHAR
STARTCHAR 4E68
ENCODING 20072
SWIDTH 520 0
DWIDTH 14 0
BBX 14 14 0 -2
BITMAP
1040
1040
2440
4240
ff40
0140
0040
7e40
4240
4240
4240
4248
7e48
4238
ENDCHAR
STARTCHAR 4E69
ENCODING 20073
SWIDTH 520 0
DWIDTH 14 0
BBX 14 14 0 -2
BITMAP
1040
1040
1040
1f40
1040
1040
1040
7e40
4240
4240
4240
4248
7e48
4238
ENDCHAR
STARTCHAR 4E6A
ENCODING 20074
SWIDTH 520 0
DWIDTH 14 0
BBX 14 14 0 -2
BITMAP
0000
f7f0
1490
1490
1490
27f0
2490
2490
4490
4490
87f0
8008
8008
7ff8
ENDCHAR
STARTCHAR 4E6B
ENCODING 20075
SWIDTH 520 0
DWIDTH 14 0
BBX 14 14 0 -2
BITMAP
2000
fdf0
2510
2510
4510
45f0
9800
0000
7fe0
0180
0e08
3008
4008
3ff8
ENDCHAR
STARTCHAR 4E6C
ENCODING 20076
SWIDTH 520 0
DWIDTH 14 0
BBX 14 14 0 -2
BITMAP
7ff0
4000
7fc0
4040
7fc0
4000
7ff0
0000
7fe0
0180
0e08
3008
4008
3ff8
ENDCHAR
STARTCHAR 4E6D
ENCODING 20077
SWIDTH 520 0
DWIDTH 14 0
BBX 14 14 0 -2
BITMAP
0000
fff8
0800
1fe0
3020
5020
9fe0
0000
7fe0
0180
0e08
3008
4008
3ff8
ENDCHAR
STARTCHAR 4E6E
ENCODING 20078
SWIDTH 520 0
DWIDTH 14 0
BBX 14 14 0 -2
BITMAP
0c00
71f0
4510
4510
5d10
6910
1170
6100
0000
ffe0
0380
3c08
4008
3ff8
ENDCHAR
STARTCHAR 4E6F
ENCODING 20079
SWIDTH 520 0
DWIDTH 14 0
BBX 14 14 0 -2
BITMAP
01e0
7e00
2220
1240
fff8
0200
0e00
0000
7fe0
0180
0e08
3008
4008
3ff8
ENDCHAR
STARTCHAR 4E70
ENCODING 20080
SWIDTH 520 0
DWIDTH 14 0
BBX 14 14 0 -2
BITMAP
0000
7ff0
0010
0920
0500
2500
1100
1100
fff8
0200
0480
0840
1020
6010
ENDCHAR
STARTCHAR 4E71
ENCODING 20081
SWIDTH 520 0
DWIDTH 14 0
BBX 14 14 0 -2
BITMAP
0080
0c80
7080
1080
1080
fc80
1080
1080
7c80
4480
4480
4488
7c88
4478
ENDCHAR
STARTCHAR 4E72
ENCODING 20082
SWIDTH 520 0
DWIDTH 14 0
BBX 14 14 0 -2
BITMAP
4200
23f0
0410
0920
0100
2280
4460
9818
0000
ffe0
0380
3c08
4008
3ff8
ENDCHAR
STARTCHAR 4E73
ENCODING 20083
SWIDTH 520 0
DWIDTH 14 0
BBX 14 14 0 -2
BITMAP
0e80
f080
2280
9280
5480
0080
fc80
0880
1080
1c80
f080
1088
1088
7078
ENDCHAR
STARTCHAR 4E74
ENCODING 20084
SWIDTH 520 0
DWIDTH 14 0
BBX 14 14 0 -2
BITMAP
1030
11c0
fd00
1100
1df8
f120
1220
7420
0000
ffe0
0380
3c08
4008
3ff8
ENDCHAR
STARTCHAR 4E75
ENCODING 20085
SWIDTH 520 0
DWIDTH 14 0
BBX 14 14 0 -2
BITMAP
1040
0840
7f40
0040
2240
1440
ffc0
0840
0840
7f40
0840
0848
0848
0838
ENDCHAR
STARTCHAR 4E76
ENCODING 20086
SWIDTH 520 0
DWIDTH 14 0
BBX 14 14 0 -2
BITMAP
0220
fff8
0200
7ff0
4210
7ff0
4210
7ff0
4210
0000
7fe0
1e00
6008
1ff8
ENDCHAR
STARTCHAR 4E77
ENCODING 20087
SWIDTH 520 0
DWIDTH 14 0
BBX 14 14 0 -2
BITMAP
2080
12a0
8290
5480
2020
41c0
4e00
0000
7fe0
0180
0e08
3008
4008
3ff8
ENDCHAR
STARTCHAR 4E78
ENCODING 20088
SWIDTH 520 0
DWIDTH 14 0
BBX 14 14 0 -2
BITMAP
1000
10f0
5490
5cd0
7490
d7f8
5510
5550
55f8
5410
5c18
5068
4008
3ff8
ENDCHAR
STARTCHAR 4E79
ENCODING 20089
SWIDTH 520 0
DWIDTH 14 0
BBX 14 14 0 -2
BITMAP
0840
0840
ff40
0840
7e40
4240
7e40
4240
7e40
0840
ff40
0848
0848
0838
ENDCHAR
STARTCHAR 4E7A
ENCODING 20090
SWIDTH 520 0
DWIDTH 14 0
BBX 14 14 0 -2
BITMAP
0000
7df0
4100
7df8
4520
7d20
4220
8420
0000
ffe0
0380
3c08
4008
3ff8
ENDCHAR
STARTCHAR 4E7B
ENCODING 20091
SWIDTH 520 0
DWIDTH 14 0
BBX 14 14 0 -2
BITMAP
2040
1040
fea0
2110
3c48
44a0
4440
9820
0000
ffe0
0380
3c08
4008
3ff8
ENDCHAR
STARTCHAR 4E7C
ENCODING 20092
SWIDTH 520 0
DWIDTH 14 0
BBX 14 14 0 -2
BITMAP
4200
2100
8ff0
4100
0ff0
2100
4100
9ff8
0000
ffe0
0380
3c08
4008
3ff8
ENDCHAR
STARTCHAR 4E7D
ENCODING 20093
SWIDTH 520 0
DWIDTH 14 0
BBX 14 14 0 -2
BITMAP
0400
3fd0
0420
fff8
0300
1fe0
f020
1fe0
1020
ffe0
0380
3c08
4008
3ff8
ENDCHAR
STARTCHAR 4E7E
ENCODING 20094
SWIDTH 520 0
DWIDTH 14 0
BBX 14 14 0 -2
BITMAP
1100
1100
fdf8
1200
7c00
4400
7df0
4410
7c20
1040
fc80
1108
1108
10f8
ENDCHAR
STARTCHAR 4E7F
ENCODING 20095
SWIDTH 520 0
DWIDTH 14 0
BBX 14 14 0 -2
BITMAP
0740
fa40
9240
4440
1040
2440
7840
1040
2240
ff40
0840
4a48
8948
3838
ENDCHAR
STARTCHAR 4E80
ENCODING 20096
SWIDTH 520 0
DWIDTH 14 0
BBX 14 14 0 -2
BITMAP
0800
1f80
2100
5fc0
1240
1fc0
1240
3fe0
2220
3fe0
2220
3fe8
2208
01f8
ENDCHAR
STARTCHAR 4E81
ENCODING 20097
SWIDTH 520 0
DWIDTH 14 0
BBX 14 14 0 -2
BITMAP
1040
fe40
10f8
7c80
4500
7cf0
4410
7c20
0040
7c40
1088
fe88
1078
1000
ENDCHAR
STARTCHAR 4E82
ENCODING 20098
SWIDTH 520 0
DWIDTH 14 0
BBX 14 14 0 -2
BITMAP
0e40
f240
5440
fc40
2840
fe40
9240
aa40
fe40
8240
ba40
aa48
9248
ae38
ENDCHAR
STARTCHAR 4E83
ENCODING 20099
SWIDTH 520 0
DWIDTH 14 0
BBX 14 14 0 -2
BITMAP
0840
4940
2a40
7f40
1c40
2a40
4940
a240
3740
5240
aa40
2f48
4248
8238
ENDCHAR
STARTCHAR 4E84
ENCODING 20100
SWIDTH 520 0
DWIDTH 14 0
BBX 14 14 0 -2
BITMAP
1040
ff40
1040
7e40
0040
ff40
8140
7e40
0040
7e40
4240
7e48
2448
ff38
ENDCHAR
STARTCHAR 4E85
ENCODING 20101
SWIDTH 520 0
DWIDTH 14 0
BBX 14 14 0 -2
BITMAP
0010
0010
0010
0010
0010
0010
0010
0010
0010
0010
0010
0010
0010
0070
ENDCHAR
STARTCHAR 4E86
ENCODING 20102
SWIDTH 520 0
DWIDTH 14 0
BBX 14 14 0 -2
BITMAP
7ff0
0020
0040
0080
0100
0200
0200
0200
0200
0200
0200
0200
0200
0e00
ENDCHAR
STARTCHAR 4E87
ENCODING 20103
SWIDTH 520 0
DWIDTH 14 0
BBX 14 14 0 -2
BITMAP
1000
1000
1000
3ff0
2010
4220
8240
0200
0200
0200
0200
0200
0200
0e00
ENDCHAR
STARTCHAR 4E88
ENCODING 20104
SWIDTH 520 0
DWIDTH 14 0
BBX 14 14 0 -2
BITMAP
0000
7fe0
0040
0880
0500
0200
fff8
0210
0220
0200
0200
0200
0200
0e00
ENDCHAR
STARTCHAR 4E89
ENCODING 20105
SWIDTH 520 0
DWIDTH 14 0
BBX 14 14 0 -2
BITMAP
1000
1fc0
2080
4100
bfe0
0220
0220
fff8
0220
0220
3fe0
0220
0200
0e00
ENDCHAR
STARTCHAR 4E8A
ENCODING 20106
SWIDTH 520 0
DWIDTH 14 0
BBX 14 14 0 -2
BITMAP
0200
0200
7ff0
2220
1240
7fe0
0220
fff8
0220
7fe0
0220
0200
0200
0e00
ENDCHAR
STARTCHAR 4E8B
ENCODING 20107
SWIDTH 520 0
DWIDTH 14 0
BBX 14 14 0 -2
BITMAP
0200
fff8
0200
3fe0
2220
3fe0
0200
3fe0
0220
fff8
0220
3fe0
0200
0e00
ENDCHAR
STARTCHAR 4E8C
ENCODING 20108
SWIDTH 520 0
DWIDTH 14 0
BBX 14 14 0 -2
BITMAP
0000
0000
7ff0
0000
0000
0000
0000
0000
0000
0000
0000
0000
fff8
0000
ENDCHAR
STARTCHAR 4E8D
ENCODING 20109
SWIDTH 520 0
DWIDTH 14 0
BBX 14 14 0 -2
BITMAP
0000
7ff0
0000
0000
0000
0000
fff8
0200
0200
0200
0200
0200
0200
0e00
ENDCHAR
STARTCHAR 4E8E
ENCODING 20110
SWIDTH 520 0
DWIDTH 14 0
BBX 14 14 0 -2
BITMAP
0000
7ff0
0200
0200
0200
0200
fff8
0200
0200
0200
0200
0200
0200
0e00
ENDCHAR
STARTCHAR 4E8F
ENCODING 20111
SWIDTH 520 0
DWIDTH 14 0
BBX 14 14 0 -2
BITMAP
3fe0
0000
0000
0000
fff8
0800
1000
2000
3fe0
0020
0020
0020
0020
01c0
ENDCHAR
STARTCHAR 4E90
ENCODING 20112
SWIDTH 520 0
DWIDTH 14 0
BBX 14 14 0 -2
BITMAP
3fe0
0400
0400
0400
fff8
0800
1000
2000
3fe0
0020
0020
0020
0020
01c0
ENDCHAR
STARTCHAR 4E91
ENCODING 20113
SWIDTH 520 0
DWIDTH 14 0
BBX 14 14 0 -2
BITMAP
0000
3fe0
0000
0000
0000
fff8
0400
0400
0800
0880
1040
2020
7ff0
0010
ENDCHAR
STARTCHAR 4E92
ENCODING 20114
SWIDTH 520 0
DWIDTH 14 0
BBX 14 14 0 -2
BITMAP
0000
7ff0
0800
0800
0fc0
1040
1040
2040
2040
3f80
0080
0080
0080
fff8
ENDCHAR
STARTCHAR 4E93
ENCODING 20115
SWIDTH 520 0
DWIDTH 14 0
BBX 14 14 0 -2
BITMAP
0000
3fe0
0000
0000
0000
fff8
1040
1040
1040
1040
2040
2040
4040
8040
ENDCHAR
STARTCHAR 4E94
ENCODING 20116
SWIDTH 520 0
DWIDTH 14 0
BBX 14 14 0 -2
BITMAP
0000
7ff0
0400
0400
0400
0400
7fe0
0820
0820
0820
1020
1020
1020
fff8
ENDCHAR
STARTCHAR 4E95
ENCODING 20117
SWIDTH 520 0
DWIDTH 14 0
BBX 14 14 0 -2
BITMAP
1040
1040
1040
7ff0
1040
1040
1040
1040
fff8
1040
2040
2040
4040
8040
ENDCHAR
STARTCHAR 4E96
ENCODING 20118
SWIDTH 520 0
DWIDTH 14 0
BBX 14 14 0 -2
BITMAP
0000
3fe0
0000
0000
0000
fff8
0000
0000
0000
3fe0
0000
0000
0000
fff8
ENDCHAR
STARTCHAR 4E97
ENCODING 20119
SWIDTH 520 0
DWIDTH 14 0
BBX 14 14 0 -2
BITMAP
0200
4210
4210
4210
7ff0
0000
0000
0000
7ff0
0000
0000
0000
0000
fff8
ENDCHAR
STARTCHAR 4E98
ENCODING 20120
SWIDTH 520 0
DWIDTH 14 0
BBX 14 14 0 -2
BITMAP
7ff0
0000
0000
3fe0
2020
2020
3fe0
2020
2020
2020
3fe0
0000
0000
fff8
ENDCHAR
STARTCHAR 4E99
ENCODING 20121
SWIDTH 520 0
DWIDTH 14 0
BBX 14 14 0 -2
BITMAP
0000
7ff0
0800
0800
0fc0
1040
1440
2240
2040
0880
0480
0080
0080
fff8
ENDCHAR
STARTCHAR 4E9A
ENCODING 20122
SWIDTH 520 0
DWIDTH 14 0
BBX 14 14 0 -2
BITMAP
0000
7ff0
0880
0880
0880
8888
4888
4890
2890
28a0
0880
0880
0880
fff8
ENDCHAR
STARTCHAR 4E9B
ENCODING 20123
SWIDTH 520 0
DWIDTH 14 0
BBX 14 14 0 -2
BITMAP
0880
0880
4890
4ea0
48c0
4888
4e88
f078
0000
0000
3fe0
0000
0000
fff8
ENDCHAR
STARTCHAR 4E9C
ENCODING 20124
SWIDTH 520 0
DWIDTH 14 0
BBX 14 14 0 -2
BITMAP
0000
7ff0
0880
0880
0880
7ff0
4890
4890
4890
7ff0
0880
0880
0880
fff8
ENDCHAR
STARTCHAR 4E9D
ENCODING 20125
SWIDTH 520 0
DWIDTH 14 0
BBX 14 14 0 -2
BITMAP
0800
1040
2020
7ff0
0010
2040
4890
fdf8
0408
0000
7ff0
0000
0000
fff8
ENDCHAR
STARTCHAR 4E9E
ENCODING 20126
SWIDTH 520 0
DWIDTH 14 0
BBX 14 14 0 -2
BITMAP
0000
7ff0
0880
0880
0880
78f0
4010
4010
4010
78f0
0880
0880
0880
fff8
ENDCHAR
STARTCHAR 4E9F
ENCODING 20127
SWIDTH 520 0
DWIDTH 14 0
BBX 14 14 0 -2
BITMAP
0000
3fc0
0080
0100
7af0
4a10
4b10
4aa0
4a40
7aa0
0310
0e00
0000
fff8
ENDCHAR
STARTCHAR 4EA0
ENCODING 20128
SWIDTH 520 0
DWIDTH 14 0
BBX 14 14 0 -2
BITMAP
0400
0200
0200
fff8
0000
0000
0000
0000
0000
0000
0000
0000
0000
0000
ENDCHAR
STARTCHAR 4EA1
ENCODING 20129
SWIDTH 520 0
DWIDTH 14 0
BBX 14 14 0 -2
BITMAP
0400
0200
0200
0000
fff8
2000
2000
2000
2000
2000
2000
2000
2000
3ff0
ENDCHAR
STARTCHAR 4EA2
ENCODING 20130
SWIDTH 520 0
DWIDTH 14 0
BBX 14 14 0 -2
BITMAP
0400
0200
0200
fff8
0000
0000
1f80
1080
1080
1080
2080
2088
4088
8078
ENDCHAR
STARTCHAR 4EA3
ENCODING 20131
SWIDTH 520 0
DWIDTH 14 0
BBX 14 14 0 -2
BITMAP
0400
0200
0200
fff8
0880
0880
0880
0880
0880
0880
1080
1080
2080
4080
ENDCHAR
STARTCHAR 4EA4
ENCODING 20132
SWIDTH 520 0
DWIDTH 14 0
BBX 14 14 0 -2
BITMAP
0400
0200
fff8
0000
1040
2020
4010
1040
0880
0500
0200
0500
18c0
e038
ENDCHAR
STARTCHAR 4EA5
ENCODING 20133
SWIDTH 520 0
DWIDTH 14 0
BBX 14 14 0 -2
BITMAP
0400
0200
fff8
0400
0840
1040
3f90
0110
0220
0c40
7080
0340
0c20
f010
ENDCHAR
STARTCHAR 4EA6
ENCODING 20134
SWIDTH 520 0
DWIDTH 14 0
BBX 14 14 0 -2
BITMAP
0400
0200
0200
fff8
0880
0880
28a0
2890
4888
8888
1080
1080
2080
4380
ENDCHAR
STARTCHAR 4EA7
ENCODING 20135
SWIDTH 520 0
DWIDTH 14 0
BBX 14 14 0 -2
BITMAP
0400
0200
7ff0
0000
1040
0880
7ff8
4000
4000
4000
4000
4000
4000
8000
ENDCHAR
STARTCHAR 4EA8
ENCODING 20136
SWIDTH 520 0
DWIDTH 14 0
BBX 14 14 0 -2
BITMAP
0400
0200
fff8
0000
3fe0
2020
3fe0
0000
7fe0
00c0
0300
0200
0200
0e00
ENDCHAR
STARTCHAR 4EA9
ENCODING 20137
SWIDTH 520 0
DWIDTH 14 0
BBX 14 14 0 -2
BITMAP
0400
0200
fff8
0000
7ff0
4210
4210
4210
7ff0
4210
4210
4210
7ff0
4010
ENDCHAR
STARTCHAR 4EAA
ENCODING 20138
SWIDTH 520 0
DWIDTH 14 0
BBX 14 14 0 -2
BITMAP
0400
0200
fff8
0880
4890
9088
2080
4380
0000
7fc0
0040
0040
0020
0018
ENDCHAR
STARTCHAR 4EAB
ENCODING 20139
SWIDTH 520 0
DWIDTH 14 0
BBX 14 14 0 -2
BITMAP
0200
fff8
0000
3fe0
2020
3fe0
0000
3fe0
00c0
0300
fff8
0200
0200
0e00
ENDCHAR
STARTCHAR 4EAC
ENCODING 20140
SWIDTH 520 0
DWIDTH 14 0
BBX 14 14 0 -2
BITMAP
0400
0200
fff8
0000
3fe0
2020
2020
2020
3fe0
0200
1240
2220
4210
0e00
ENDCHAR
STARTCHAR 4EAD
ENCODING 20141
SWIDTH 520 0
DWIDTH 14 0
BBX 14 14 0 -2
BITMAP
0200
fff8
0000
3fe0
2020
3fe0
0000
fff8
8008
bfe8
0200
0200
0200
0e00
ENDCHAR
STARTCHAR 4EAE
ENCODING 20142
SWIDTH 520 0
DWIDTH 14 0
BBX 14 14 0 -2
BITMAP
0200
fff8
0000
3fe0
2020
3fe0
0000
fff8
8008
9fc8
1040
1040
2048
c038
ENDCHAR
STARTCHAR 4EAF
ENCODING 20143
SWIDTH 520 0
DWIDTH 14 0
BBX 14 14 0 -2
BITMAP
0400
0200
fff8
0000
3fe0
2020
3fe0
0000
7ff0
4010
7ff0
4010
7ff0
4010
ENDCHAR
STARTCHAR 4EB0
ENCODING 20144
SWIDTH 520 0
DWIDTH 14 0
BBX 14 14 0 -2
BITMAP
0400
0200
fff8
0000
3fe0
2020
3fe0
2020
3fe0
0200
1240
2220
4210
0e00
ENDCHAR
STARTCHAR 4EB1
ENCODING 20145
SWIDTH 520 0
DWIDTH 14 0
BBX 14 14 0 -2
BITMAP
0400
0200
fff8
1000
17e0
2420
2420
67e0
a420
2420
27e0
2000
2ff8
2000
ENDCHAR
STARTCHAR 4EB2
ENCODING 20146
SWIDTH 520 0
DWIDTH 14 0
BBX 14 14 0 -2
BITMAP
0400
0200
7ff0
1040
0880
fff8
0200
0200
7ff0
0200
1240
2220
4210
0e00
ENDCHAR
STARTCHAR 4EB3
ENCODING 20147
SWIDTH 520 0
DWIDTH 14 0
BBX 14 14 0 -2
BITMAP
0200
fff8
0000
3fe0
2020
3fe0
0000
fff8
8008
83c8
3c00
07f0
fc08
03f8
ENDCHAR
STARTCHAR 4EB4
ENCODING 20148
SWIDTH 520 0
DWIDTH 14 0
BBX 14 14 0 -2
BITMAP
0200
7ff0
0000
1fc0
1040
fff8
8208
3fe0
0200
7ff0
0400
3fc0
0848
7038
ENDCHAR
STARTCHAR 4EB5
ENCODING 20149
SWIDTH 520 0
DWIDTH 14 0
BBX 14 14 0 -2
BITMAP
0200
fff8
0000
2100
fbe0
2120
3b20
e128
2298
6608
0920
38c0
ca38
0c00
ENDCHAR
STARTCHAR 4EB6
ENCODING 20150
SWIDTH 520 0
DWIDTH 14 0
BBX 14 14 0 -2
BITMAP
0200
fff8
0000
3fe0
28a0
2fa0
2020
3fe0
1040
1fc0
1040
1fc0
0000
fff8
ENDCHAR
STARTCHAR 4EB7
ENCODING 20151
SWIDTH 520 0
DWIDTH 14 0
BBX 14 14 0 -2
BITMAP
0100
3ff0
0840
0480
7ff8
4480
5ff0
4490
7ff8
4490
5ff0
4cc0
54a0
a498
ENDCHAR
STARTCHAR 4EB8
ENCODING 20152
SWIDTH 520 0
DWIDTH 14 0
BBX 14 14 0 -2
BITMAP
1088
fe50
00f8
7ca8
44a8
7cf8
00a8
7ca8
08f8
1e20
f1f8
1020
1020
7020
ENDCHAR
STARTCHAR 4EB9
ENCODING 20153
SWIDTH 520 0
DWIDTH 14 0
BBX 14 14 0 -2
BITMAP
0200
fff8
1000
6fb0
4890
6fb0
4890
fff8
a028
3fe0
2020
3fe0
2020
fff8
ENDCHAR
STARTCHAR 4EBA
ENCODING 20154
SWIDTH 520 0
DWIDTH 14 0
BBX 14 14 0 -2
BITMAP
0200
0200
0200
0200
0200
0200
0500
0500
0500
0880
0880
1040
2020
c018
ENDCHAR
STARTCHAR 4EBB
ENCODING 20155
SWIDTH 520 0
DWIDTH 14 0
BBX 14 14 0 -2
BITMAP
1000
1000
1000
2000
2000
6000
a000
2000
2000
2000
2000
2000
2000
2000
ENDCHAR
STARTCHAR 4EBC
ENCODING 20156
SWIDTH 520 0
DWIDTH 14 0
BBX 14 14 0 -2
BITMAP
0200
0200
0200
0200
0500
0500
0880
1040
2020
c018
0000
0000
0000
fff8
ENDCHAR
STARTCHAR 4EBD
ENCODING 20157
SWIDTH 520 0
DWIDTH 14 0
BBX 14 14 0 -2
BITMAP
0200
0200
0200
0500
0500
0880
1040
2020
4010
8408
0200
0100
0080
0080
ENDCHAR
STARTCHAR 4EBE
ENCODING 20158
SWIDTH 520 0
DWIDTH 14 0
BBX 14 14 0 -2
BITMAP
0100
0100
4100
4100
4280
4280
4440
4440
4820
5010
6008
4000
4000
7ff8
ENDCHAR
STARTCHAR 4EBF
ENCODING 20159
SWIDTH 520 0
DWIDTH 14 0
BBX 14 14 0 -2
BITMAP
1000
1000
17f0
2010
2020
6040
a080
2100
2200
2200
2400
2408
2408
23f8
ENDCHAR
STARTCHAR 4EC0
ENCODING 20160
SWIDTH 520 0
DWIDTH 14 0
BBX 14 14 0 -2
BITMAP
1080
1080
1080
2080
2080
6ff8
a080
2080
2080
2080
2080
2080
2080
2080
ENDCHAR
STARTCHAR 4EC1
ENCODING 20161
SWIDTH 520 0
DWIDTH 14 0
BBX 14 14 0 -2
BITMAP
1000
1000
17f0
2000
2000
6000
a000
2000
2000
2000
2000
2000
2ff8
2000
ENDCHAR
STARTCHAR 4EC2
ENCODING 20162
SWIDTH 520 0
DWIDTH 14 0
BBX 14 14 0 -2
BITMAP
1100
1100
1100
27f0
2110
6110
a110
2110
2110
2110
2210
2210
2410
2860
ENDCHAR
STARTCHAR 4EC3
ENCODING 20163
SWIDTH 520 0
DWIDTH 14 0
BBX 14 14 0 -2
BITMAP
1000
17f8
2040
2040
6040
a040
2040
2040
2040
2040
2040
2040
2040
21c0
ENDCHAR
STARTCHAR 4EC4
ENCODING 20164
SWIDTH 520 0
DWIDTH 14 0
BBX 14 14 0 -2
BITMAP
0000
3ff8
2000
2000
2100
2100
2100
2100
2100
2280
2280
4440
4820
b018
ENDCHAR
STARTCHAR 4EC5
ENCODING 20165
SWIDTH 520 0
DWIDTH 14 0
BBX 14 14 0 -2
BITMAP
1000
17f0
2210
2210
6210
a210
2220
2120
2140
2080
2140
2220
2410
2808
ENDCHAR
STARTCHAR 4EC6
ENCODING 20166
SWIDTH 520 0
DWIDTH 14 0
BBX 14 14 0 -2
BITMAP
1080
1080
1080
2080
20c0
60a0
a090
2088
2088
2080
2080
2080
2080
2080
ENDCHAR
STARTCHAR 4EC7
ENCODING 20167
SWIDTH 520 0
DWIDTH 14 0
BBX 14 14 0 -2
BITMAP
2400
2400
2400
5fc0
4440
c440
4440
4440
4440
4440
4440
4848
4848
5038
ENDCHAR
STARTCHAR 4EC8
ENCODING 20168
SWIDTH 520 0
DWIDTH 14 0
BBX 14 14 0 -2
BITMAP
1040
1240
1240
2240
2240
6240
a240
2240
2220
2220
2420
2410
2810
3008
ENDCHAR
STARTCHAR 4EC9
ENCODING 20169
SWIDTH 520 0
DWIDTH 14 0
BBX 14 14 0 -2
BITMAP
1000
13e0
1220
2220
2220
6220
a220
2220
2220
2220
2220
2428
2428
2818
ENDCHAR
STARTCHAR 4ECA
ENCODING 20170
SWIDTH 520 0
DWIDTH 14 0
BBX 14 14 0 -2
BITMAP
0200
0200
0500
0880
1440
2220
c218
0000
3fc0
0040
0080
0080
0100
0200
ENDCHAR
STARTCHAR 4ECB
ENCODING 20171
SWIDTH 520 0
DWIDTH 14 0
BBX 14 14 0 -2
BITMAP
0200
0200
0500
0880
1040
2020
d058
1040
1040
1040
1040
1040
2040
4040
ENDCHAR
STARTCHAR 4ECC
ENCODING 20172
SWIDTH 520 0
DWIDTH 14 0
BBX 14 14 0 -2
BITMAP
0200
0200
0500
0880
1040
2220
c210
0200
0500
0500
0880
1040
2020
c018
ENDCHAR
STARTCHAR 4ECD
ENCODING 20173
SWIDTH 520 0
DWIDTH 14 0
BBX 14 14 0 -2
BITMAP
1000
17f0
2110
2110
6120
a120
2138
2108
2108
2108
2208
2208
2408
2870
ENDCHAR
STARTCHAR 4ECE
ENCODING 20174
SWIDTH 520 0
DWIDTH 14 0
BBX 14 14 0 -2
BITMAP
1080
1080
1080
1080
1080
1080
1080
2940
2540
2540
4220
4220
8410
0808
ENDCHAR
STARTCHAR 4ECF
ENCODING 20175
SWIDTH 520 0
DWIDTH 14 0
BBX 14 14 0 -2
BITMAP
1040
1040
1040
2040
2040
6080
a080
2100
2120
2210
2210
27f8
2008
2008
ENDCHAR
STARTCHAR 4ED0
ENCODING 20176
SWIDTH 520 0
DWIDTH 14 0
BBX 14 14 0 -2
BITMAP
0200
0200
0500
0880
1040
2220
c218
0200
0200
7ff0
0200
0200
0200
0200
ENDCHAR
STARTCHAR 4ED1
ENCODING 20177
SWIDTH 520 0
DWIDTH 14 0
BBX 14 14 0 -2
BITMAP
0200
0200
0500
0880
1040
2020
d018
10c0
1300
1c00
1000
1020
1020
0fe0
ENDCHAR
STARTCHAR 4ED2
ENCODING 20178
SWIDTH 520 0
DWIDTH 14 0
BBX 14 14 0 -2
BITMAP
0200
0200
0500
0880
1040
2020
cc18
0300
0080
0000
1800
0600
0180
0040
ENDCHAR
STARTCHAR 4ED3
ENCODING 20179
SWIDTH 520 0
DWIDTH 14 0
BBX 14 14 0 -2
BITMAP
0200
0500
0880
1040
2020
c018
1fc0
1040
1040
1040
1180
1010
1010
0ff0
ENDCHAR
STARTCHAR 4ED4
ENCODING 20180
SWIDTH 520 0
DWIDTH 14 0
BBX 14 14 0 -2
BITMAP
1000
17f0
1020
2040
2080
6080
aff8
2080
2080
2080
2080
2080
2080
2380
ENDCHAR
STARTCHAR 4ED5
ENCODING 20181
SWIDTH 520 0
DWIDTH 14 0
BBX 14 14 0 -2
BITMAP
1080
1080
1080
2080
2080
6ff8
a080
2080
2080
2080
2080
2080
2080
27f0
ENDCHAR
STARTCHAR 4ED6
ENCODING 20182
SWIDTH 520 0
DWIDTH 14 0
BBX 14 14 0 -2
BITMAP
1080
1080
1490
24b0
25d0
6e90
a490
2490
2490
24b0
2480
2408
2408
23f8
ENDCHAR
STARTCHAR 4ED7
ENCODING 20183
SWIDTH 520 0
DWIDTH 14 0
BBX 14 14 0 -2
BITMAP
1040
1040
1040
2ff8
2040
6040
a440
2440
2240
2140
2080
2140
2220
2c18
ENDCHAR
STARTCHAR 4ED8
ENCODING 20184
SWIDTH 520 0
DWIDTH 14 0
BBX 14 14 0 -2
BITMAP
1020
1020
2020
27f8
6020
a020
2220
2120
2120
2020
2020
2020
2020
20e0
ENDCHAR
STARTCHAR 4ED9
ENCODING 20185
SWIDTH 520 0
DWIDTH 14 0
BBX 14 14 0 -2
BITMAP
1080
1080
2080
2888
6888
a888
2888
2888
2888
2888
2888
2888
2ff8
2008
ENDCHAR
STARTCHAR 4EDA
ENCODING 20186
SWIDTH 520 0
DWIDTH 14 0
BBX 14 14 0 -2
BITMAP
0200
0200
0500
0880
1040
2020
c218
0200
4210
4210
4210
4210
7ff0
0010
ENDCHAR
STARTCHAR 4EDB
ENCODING 20187
SWIDTH 520 0
DWIDTH 14 0
BBX 14 14 0 -2
BITMAP
1000
1070
1780
2080
2080
6080
a0f8
2f80
2080
2080
2080
2088
2088
2078
ENDCHAR
STARTCHAR 4EDC
ENCODING 20188
SWIDTH 520 0
DWIDTH 14 0
BBX 14 14 0 -2
BITMAP
1000
1000
17f0
2080
2080
6080
a080
2080
2080
2080
2080
2080
2080
2ff8
ENDCHAR
STARTCHAR 4EDD
ENCODING 20189
SWIDTH 520 0
DWIDTH 14 0
BBX 14 14 0 -2
BITMAP
0200
0200
0500
0880
1040
2020
c018
3fe0
0200
0200
0200
0200
0200
fff8
ENDCHAR
STARTCHAR 4EDE
ENCODING 20190
SWIDTH 520 0
DWIDTH 14 0
BBX 14 14 0 -2
BITMAP
1000
17f8
1088
2088
2288
6288
a288
2488
2088
2088
2108
2108
2208
2430
ENDCHAR
STARTCHAR 4EDF
ENCODING 20191
SWIDTH 520 0
DWIDTH 14 0
BBX 14 14 0 -2
BITMAP
1070
1780
1080
2080
2080
6080
aff8
2080
2080
2080
2080
2080
2080
2080
ENDCHAR
STARTCHAR 4EE0
ENCODING 20192
SWIDTH 520 0
DWIDTH 14 0
BBX 14 14 0 -2
BITMAP
1000
17f0
1080
2080
2080
6080
aff8
2080
2080
2080
2080
2080
2080
2080
ENDCHAR
STARTCHAR 4EE1
ENCODING 20193
SWIDTH 520 0
DWIDTH 14 0
BBX 14 14 0 -2
BITMAP
1200
1200
13f8
2400
2800
6000
a3f0
2020
2040
2080
2100
2208
2208
21f8
ENDCHAR
STARTCHAR 4EE2
ENCODING 20194
SWIDTH 520 0
DWIDTH 14 0
BBX 14 14 0 -2
BITMAP
1100
1100
11f8
2208
2408
6008
a108
2088
2088
2008
2008
2008
2008
2030
ENDCHAR
STARTCHAR 4EE3
ENCODING 20195
SWIDTH 520 0
DWIDTH 14 0
BBX 14 14 0 -2
BITMAP
1100
1120
1110
2110
2138
6fc0
a100
2100
2080
2080
2048
2028
2018
2008
ENDCHAR
STARTCHAR 4EE4
ENCODING 20196
SWIDTH 520 0
DWIDTH 14 0
BBX 14 14 0 -2
BITMAP
0200
0500
0880
1040
2420
c218
0200
3fe0
0020
0040
0080
1d00
0300
00c0
ENDCHAR
STARTCHAR 4EE5
ENCODING 20197
SWIDTH 520 0
DWIDTH 14 0
BBX 14 14 0 -2
BITMAP
1040
8840
8440
8440
8040
8040
8040
8040
9080
a0a0
c110
8210
0c08
3008
ENDCHAR
STARTCHAR 4EE6
ENCODING 20198
SWIDTH 520 0
DWIDTH 14 0
BBX 14 14 0 -2
BITMAP
1080
1080
1080
2080
2080
62a0
a290
2490
2488
2888
2080
2080
2080
2380
ENDCHAR
STARTCHAR 4EE7
ENCODING 20199
SWIDTH 520 0
DWIDTH 14 0
BBX 14 14 0 -2
BITMAP
0400
0400
07e0
0400
0400
0400
fff8
0000
0200
0200
0500
0880
3060
c018
ENDCHAR
STARTCHAR 4EE8
ENCODING 20200
SWIDTH 520 0
DWIDTH 14 0
BBX 14 14 0 -2
BITMAP
1000
1000
17f0
2000
2000
6000
a000
23e0
2000
2000
2000
2000
2000
2ff8
ENDCHAR
STARTCHAR 4EE9
ENCODING 20201
SWIDTH 520 0
DWIDTH 14 0
BBX 14 14 0 -2
BITMAP
1080
1080
1080
2080
2080
60f0
a080
2080
2080
2080
2080
2080
2080
2ff8
ENDCHAR
STARTCHAR 4EEA
ENCODING 20202
SWIDTH 520 0
DWIDTH 14 0
BBX 14 14 0 -2
BITMAP
1100
1080
1090
2410
2410
6220
a220
2140
2140
2080
2140
2220
2410
2808
ENDCHAR
STARTCHAR 4EEB
ENCODING 20203
SWIDTH 520 0
DWIDTH 14 0
BBX 14 14 0 -2
BITMAP
1080
1080
1100
2100
2220
6220
a440
2840
2080
2100
2210
2408
2ff8
2008
ENDCHAR
STARTCHAR 4EEC
ENCODING 20204
SWIDTH 520 0
DWIDTH 14 0
BBX 14 14 0 -2
BITMAP
1400
1200
20f8
2408
6408
a408
2408
2408
2408
2408
2408
2408
2408
2438
ENDCHAR
STARTCHAR 4EED
ENCODING 20205
SWIDTH 520 0
DWIDTH 14 0
BBX 14 14 0 -2
BITMAP
1000
17e0
1220
2220
2a20
6620
a220
23a0
2260
2238
2420
2420
2820
30c0
ENDCHAR
STARTCHAR 4EEE
ENCODING 20206
SWIDTH 520 0
DWIDTH 14 0
BBX 14 14 0 -2
BITMAP
1000
1038
17c0
2400
2400
67f0
a510
2510
2510
24a0
24a0
2840
28a0
3318
ENDCHAR
STARTCHAR 4EEF
ENCODING 20207
SWIDTH 520 0
DWIDTH 14 0
BBX 14 14 0 -2
BITMAP
1080
1080
1080
22a0
2290
6488
a888
2080
2090
2020
2040
2080
2300
2c00
ENDCHAR
STARTCHAR 4EF0
ENCODING 20208
SWIDTH 520 0
DWIDTH 14 0
BBX 14 14 0 -2
BITMAP
1000
1080
1778
2448
2448
6448
a448
2448
2448
2548
2658
2440
2040
2040
ENDCHAR
STARTCHAR 4EF1
ENCODING 20209
SWIDTH 520 0
DWIDTH 14 0
BBX 14 14 0 -2
BITMAP
1080
1080
1140
2140
2220
6510
a888
2080
27f0
2010
2020
2020
2040
2080
ENDCHAR
STARTCHAR 4EF2
ENCODING 20210
SWIDTH 520 0
DWIDTH 14 0
BBX 14 14 0 -2
BITMAP
1080
1080
2080
2ff8
6888
a888
2888
2888
2ff8
2888
2080
2080
2080
2080
ENDCHAR
STARTCHAR 4EF3
ENCODING 20211
SWIDTH 520 0
DWIDTH 14 0
BBX 14 14 0 -2
BITMAP
1040
1440
1440
2448
2450
6760
a440
2440
2440
2440
2440
2548
2648
2438
ENDCHAR
STARTCHAR 4EF4
ENCODING 20212
SWIDTH 520 0
DWIDTH 14 0
BBX 14 14 0 -2
BITMAP
1000
13f8
1208
2208
2208
63f8
a208
2208
23f8
2208
2208
2408
2408
2838
ENDCHAR
STARTCHAR 4EF5
ENCODING 20213
SWIDTH 520 0
DWIDTH 14 0
BBX 14 14 0 -2
BITMAP
1200
1200
17f0
2480
2880
6080
a080
2ff8
2080
2080
2080
2080
2080
2080
ENDCHAR
STARTCHAR 4EF6
ENCODING 20214
SWIDTH 520 0
DWIDTH 14 0
BBX 14 14 0 -2
BITMAP
1080
1480
2480
27f0
6880
a080
2080
2080
2ff8
2080
2080
2080
2080
2080
ENDCHAR
STARTCHAR 4EF7
ENCODING 20215
SWIDTH 520 0
DWIDTH 14 0
BBX 14 14 0 -2
BITMAP
1080
1080
1140
2220
2410
6808
a220
2220
2220
2220
2220
2420
2420
2820
ENDCHAR
STARTCHAR 4EF8
ENCODING 20216
SWIDTH 520 0
DWIDTH 14 0
BBX 14 14 0 -2
BITMAP
1000
1070
1780
2080
2080
6080
aff8
2080
2080
2140
2140
2220
2410
2808
ENDCHAR
STARTCHAR 4EF9
ENCODING 20217
SWIDTH 520 0
DWIDTH 14 0
BBX 14 14 0 -2
BITMAP
1080
1080
1080
2ff8
2080
6080
a7f0
2080
2080
2ff8
2080
2080
2080
2080
ENDCHAR
STARTCHAR 4EFA
ENCODING 20218
SWIDTH 520 0
DWIDTH 14 0
BBX 14 14 0 -2
BITMAP
0200
0500
0880
3060
c018
0000
3fe0
2000
2000
3fe0
2000
2000
2000
3ff0
ENDCHAR
STARTCHAR 4EFB
ENCODING 20219
SWIDTH 520 0
DWIDTH 14 0
BBX 14 14 0 -2
BITMAP
1000
1070
1780
2080
2080
6080
a080
2ff8
2080
2080
2080
2080
2080
27f0
ENDCHAR
STARTCHAR 4EFC
ENCODING 20220
SWIDTH 520 0
DWIDTH 14 0
BBX 14 14 0 -2
BITMAP
1000
17f0
1080
2080
2080
6080
a080
27f0
2080
2080
2080
2080
2080
2ff8
ENDCHAR
STARTCHAR 4EFD
ENCODING 20221
SWIDTH 520 0
DWIDTH 14 0
BBX 14 14 0 -2
BITMAP
1040
1240
1220
2420
2410
6808
a7e0
2220
2220
2220
2220
2420
2420
28c0
ENDCHAR
STARTCHAR 4EFE
ENCODING 20222
SWIDTH 520 0
DWIDTH 14 0
BBX 14 14 0 -2
BITMAP
1000
1ff8
1200
2200
23f0
6210
a210
2410
2410
27f0
2020
2020
2020
2ff8
ENDCHAR
STARTCHAR 4EFF
ENCODING 20223
SWIDTH 520 0
DWIDTH 14 0
BBX 14 14 0 -2
BITMAP
1100
1080
1000
2ff8
2200
6200
a3f0
2210
2210
2210
2210
2410
2410
2860
ENDCHAR
STARTCHAR 4F00
ENCODING 20224
SWIDTH 520 0
DWIDTH 14 0
BBX 14 14 0 -2
BITMAP
1040
1240
1240
2220
2420
6490
a888
2100
2100
2240
2220
2420
2ff0
2010
ENDCHAR
STARTCHAR 4F01
ENCODING 20225
SWIDTH 520 0
DWIDTH 14 0
BBX 14 14 0 -2
BITMAP
0200
0500
0880
1040
2220
c218
0200
1200
13e0
1200
1200
1200
1200
fff8
ENDCHAR
STARTCHAR 4F02
ENCODING 20226
SWIDTH 520 0
DWIDTH 14 0
BBX 14 14 0 -2
BITMAP
1080
1080
2ff8
2080
6080
a7f0
2490
2490
2490
2490
2490
24b0
2080
2080
ENDCHAR
STARTCHAR 4F03
ENCODING 20227
SWIDTH 520 0
DWIDTH 14 0
BBX 14 14 0 -2
BITMAP
1000
17e0
1020
2140
2080
6ff0
a090
20a0
2080
2080
2080
2080
2080
2380
ENDCHAR
STARTCHAR 4F04
ENCODING 20228
SWIDTH 520 0
DWIDTH 14 0
BBX 14 14 0 -2
BITMAP
1000
17f0
1090
2090
27f0
6480
a480
27f8
2088
2088
2088
20b0
2080
2080
ENDCHAR
STARTCHAR 4F05
ENCODING 20229
SWIDTH 520 0
DWIDTH 14 0
BBX 14 14 0 -2
BITMAP
1080
1080
17f8
2080
2080
6490
a490
2490
27f0
2080
2080
2088
2088
2078
ENDCHAR
STARTCHAR 4F06
ENCODING 20230
SWIDTH 520 0
DWIDTH 14 0
BBX 14 14 0 -2
BITMAP
1200
1200
13f0
2550
2950
6150
a250
2250
2490
2890
2110
2210
2410
2060
ENDCHAR
STARTCHAR 4F07
ENCODING 20231
SWIDTH 520 0
DWIDTH 14 0
BBX 14 14 0 -2
BITMAP
1000
13e0
1220
2220
2220
6418
a800
27f0
2210
2220
2140
2080
2360
2c18
ENDCHAR
STARTCHAR 4F08
ENCODING 20232
SWIDTH 520 0
DWIDTH 14 0
BBX 14 14 0 -2
BITMAP
1000
1080
1040
2040
2200
6200
a210
2a08
2a08
2a08
3200
2210
2210
21f0
ENDCHAR
STARTCHAR 4F09
ENCODING 20233
SWIDTH 520 0
DWIDTH 14 0
BBX 14 14 0 -2
BITMAP
1100
1080
2000
2ff8
6000
a000
23e0
2220
2220
2220
2220
2428
2428
2818
ENDCHAR
STARTCHAR 4F0A
ENCODING 20234
SWIDTH 520 0
DWIDTH 14 0
BBX 14 14 0 -2
BITMAP
1000
17f0
1110
2110
2ff8
6110
a110
27f0
2110
2100
2200
2200
2400
2800
ENDCHAR
STARTCHAR 4F0B
ENCODING 20235
SWIDTH 520 0
DWIDTH 14 0
BBX 14 14 0 -2
BITMAP
1000
17e0
1220
2220
2240
6280
a2f0
2210
2210
2320
22a0
2440
24a0
2918
ENDCHAR
STARTCHAR 4F0C
ENCODING 20236
SWIDTH 520 0
DWIDTH 14 0
BBX 14 14 0 -2
BITMAP
1000
17f8
1400
2400
25f0
6510
a510
2510
2510
2560
2500
2508
2508
28f8
ENDCHAR
STARTCHAR 4F0D
ENCODING 20237
SWIDTH 520 0
DWIDTH 14 0
BBX 14 14 0 -2
BITMAP
2000
3ff0
2200
4200
4200
c200
5fe0
4420
4420
4420
4420
4420
4420
5ff8
ENDCHAR
STARTCHAR 4F0E
ENCODING 20238
SWIDTH 520 0
DWIDTH 14 0
BBX 14 14 0 -2
BITMAP
1080
1080
1080
2ff8
2080
6080
a7e0
2220
2220
2140
2080
2140
2220
2c18
ENDCHAR
STARTCHAR 4F0F
ENCODING 20239
SWIDTH 520 0
DWIDTH 14 0
BBX 14 14 0 -2
BITMAP
1080
10a0
2090
2090
6ff8
a080
2080
2140
2140
2140
2220
2220
2410
2808
ENDCHAR
STARTCHAR 4F10
ENCODING 20240
SWIDTH 520 0
DWIDTH 14 0
BBX 14 14 0 -2
BITMAP
1100
1120
1110
2110
2138
6fc0
a110
2120
20c0
2080
2148
2228
2c18
2008
ENDCHAR
STARTCHAR 4F11
ENCODING 20241
SWIDTH 520 0
DWIDTH 14 0
BBX 14 14 0 -2
BITMAP
1080
1080
1080
27f8
2080
61c0
a1c0
22a0
22a0
2490
2888
2080
2080
2080
ENDCHAR
STARTCHAR 4F12
ENCODING 20242
SWIDTH 520 0
DWIDTH 14 0
BBX 14 14 0 -2
BITMAP
1030
13c0
2200
2200
6200
a3f8
2220
2220
2220
2220
2220
2420
2420
2820
ENDCHAR
STARTCHAR 4F13
ENCODING 20243
SWIDTH 520 0
DWIDTH 14 0
BBX 14 14 0 -2
BITMAP
1000
17f8
1040
2040
2080
6080
a1a0
2290
2488
2888
2080
2080
2080
2080
ENDCHAR
STARTCHAR 4F14
ENCODING 20244
SWIDTH 520 0
DWIDTH 14 0
BBX 14 14 0 -2
BITMAP
2000
2ff0
2810
4810
4000
c7c0
4440
4440
4440
4440
4440
4848
4848
5038
ENDCHAR
STARTCHAR 4F15
ENCODING 20245
SWIDTH 520 0
DWIDTH 14 0
BBX 14 14 0 -2
BITMAP
1080
1080
2080
23f0
6080
a080
2080
27f8
2080
2140
2140
2220
2410
2808
ENDCHAR
STARTCHAR 4F16
ENCODING 20246
SWIDTH 520 0
DWIDTH 14 0
BBX 14 14 0 -2
BITMAP
1100
1100
1100
2ff8
2100
6100
a3f0
2290
2290
24a0
24a0
2840
20a0
2318
ENDCHAR
STARTCHAR 4F17
ENCODING 20247
SWIDTH 520 0
DWIDTH 14 0
BBX 14 14 0 -2
BITMAP
0200
0200
0500
0880
1040
2020
d058
1040
1040
1040
28a0
24a0
4510
8208
ENDCHAR
STARTCHAR 4F18
ENCODING 20248
SWIDTH 520 0
DWIDTH 14 0
BBX 14 14 0 -2
BITMAP
1100
1120
1110
2100
27f8
6140
a140
2140
2140
2140
2240
2248
2448
2838
ENDCHAR
STARTCHAR 4F19
ENCODING 20249
SWIDTH 520 0
DWIDTH 14 0
BBX 14 14 0 -2
BITMAP
1080
1080
1090
2490
2490
64a0
a880
2140
2140
2140
2220
2220
2410
2808
ENDCHAR
STARTCHAR 4F1A
ENCODING 20250
SWIDTH 520 0
DWIDTH 14 0
BBX 14 14 0 -2
BITMAP
0200
0500
0880
1040
2020
dfd8
0000
0000
7ff0
0400
0880
1040
3fe0
0020
ENDCHAR
STARTCHAR 4F1B
ENCODING 20251
SWIDTH 520 0
DWIDTH 14 0
BBX 14 14 0 -2
BITMAP
1000
17f8
1400
2410
2610
6520
a4a0
2440
24a0
2510
2610
2400
2400
27f8
ENDCHAR
STARTCHAR 4F1C
ENCODING 20252
SWIDTH 520 0
DWIDTH 14 0
BBX 14 14 0 -2
BITMAP
1100
1100
17e0
2120
2120
6220
a428
2898
2080
2ff8
2080
2080
2080
2080
ENDCHAR
STARTCHAR 4F1D
ENCODING 20253
SWIDTH 520 0
DWIDTH 14 0
BBX 14 14 0 -2
BITMAP
1000
13f0
1000
2000
2000
67f8
a080
2080
2080
2100
2110
2208
27f8
2008
ENDCHAR
STARTCHAR 4F1E
ENCODING 20254
SWIDTH 520 0
DWIDTH 14 0
BBX 14 14 0 -2
BITMAP
0200
0500
0880
3060
c218
0200
2220
1240
0200
fff8
0200
0200
0200
0200
ENDCHAR
STARTCHAR 4F1F
ENCODING 20255
SWIDTH 520 0
DWIDTH 14 0
BBX 14 14 0 -2
BITMAP
1080
1080
17f8
2080
2080
67f0
a080
2080
2ff8
2088
2088
2088
20b0
2080
ENDCHAR
STARTCHAR 4F20
ENCODING 20256
SWIDTH 520 0
DWIDTH 14 0
BBX 14 14 0 -2
BITMAP
1080
1080
17f0
2080
2100
6ff8
a100
2200
27f0
2010
2020
2140
2080
2040
ENDCHAR
STARTCHAR 4F21
ENCODING 20257
SWIDTH 520 0
DWIDTH 14 0
BBX 14 14 0 -2
BITMAP
1100
1100
2ff0
2200
6280
a480
2ff0
2080
2080
2080
2ff8
2080
2080
2080
ENDCHAR
STARTCHAR 4F22
ENCODING 20258
SWIDTH 520 0
DWIDTH 14 0
BBX 14 14 0 -2
BITMAP
1000
17f8
1020
2220
2220
6420
a7f8
20a0
2120
2120
2220
2420
2820
20e0
ENDCHAR
STARTCHAR 4F23
ENCODING 20259
SWIDTH 520 0
DWIDTH 14 0
BBX 14 14 0 -2
BITMAP
1000
17f0
1410
2490
2490
6490
a490
2490
2490
2140
2140
2248
2448
2838
ENDCHAR
STARTCHAR 4F24
ENCODING 20260
SWIDTH 520 0
DWIDTH 14 0
BBX 14 14 0 -2
BITMAP
1200
1200
13f8
2400
2900
6100
a7f0
2110
2110
2110
2210
2210
2410
2860
ENDCHAR
STARTCHAR 4F25
ENCODING 20261
SWIDTH 520 0
DWIDTH 14 0
BBX 14 14 0 -2
BITMAP
1200
1210
1220
2240
2280
6200
aff8
2240
2240
2220
2220
2290
2308
2200
ENDCHAR
STARTCHAR 4F26
ENCODING 20262
SWIDTH 520 0
DWIDTH 14 0
BBX 14 14 0 -2
BITMAP
1080
1080
1140
2140
2220
6410
aa08
2220
2240
2380
2200
2210
2210
21f0
ENDCHAR
STARTCHAR 4F27
ENCODING 20263
SWIDTH 520 0
DWIDTH 14 0
BBX 14 14 0 -2
BITMAP
1080
1080
2140
2220
6410
a808
23e0
2220
2220
2220
22c0
2208
2208
21f8
ENDCHAR
STARTCHAR 4F28
ENCODING 20264
SWIDTH 520 0
DWIDTH 14 0
BBX 14 14 0 -2
BITMAP
1200
1200
13f8
2408
2508
6888
a088
2008
2048
2088
2108
2608
2008
2030
ENDCHAR
STARTCHAR 4F29
ENCODING 20265
SWIDTH 520 0
DWIDTH 14 0
BBX 14 14 0 -2
BITMAP
1100
1080
1080
27f8
2220
6220
a220
2220
2140
2140
2080
2140
2220
2c18
ENDCHAR
STARTCHAR 4F2A
ENCODING 20266
SWIDTH 520 0
DWIDTH 14 0
BBX 14 14 0 -2
BITMAP
1080
1480
1280
2080
27f8
6088
a088
2148
2128
2128
2208
2208
2408
2830
ENDCHAR
STARTCHAR 4F2B
ENCODING 20267
SWIDTH 520 0
DWIDTH 14 0
BBX 14 14 0 -2
BITMAP
1080
1040
1040
27f8
2408
6408
a000
2000
2000
2000
2000
2000
27f8
2000
ENDCHAR
STARTCHAR 4F2C
ENCODING 20268
SWIDTH 520 0
DWIDTH 14 0
BBX 14 14 0 -2
BITMAP
1000
13f0
1210
2210
2210
6210
a3f0
2240
2240
2240
2220
2420
2410
2808
ENDCHAR
STARTCHAR 4F2D
ENCODING 20269
SWIDTH 520 0
DWIDTH 14 0
BBX 14 14 0 -2
BITMAP
1080
1040
17f8
2080
2100
6110
a210
27e0
2040
2080
2120
2210
27f8
2008
ENDCHAR
STARTCHAR 4F2E
ENCODING 20270
SWIDTH 520 0
DWIDTH 14 0
BBX 14 14 0 -2
BITMAP
1400
1400
24f0
2450
6f50
a550
2550
2550
2920
2520
2220
2550
2950
3088
ENDCHAR
STARTCHAR 4F2F
ENCODING 20271
SWIDTH 520 0
DWIDTH 14 0
BBX 14 14 0 -2
BITMAP
1080
1100
17f8
2408
2408
6408
a408
27f8
2408
2408
2408
2408
27f8
2408
ENDCHAR
STARTCHAR 4F30
ENCODING 20272
SWIDTH 520 0
DWIDTH 14 0
BBX 14 14 0 -2
BITMAP
1080
1080
1080
27f8
2080
6080
a080
27f0
2410
2410
2410
2410
27f0
2410
ENDCHAR
STARTCHAR 4F31
ENCODING 20273
SWIDTH 520 0
DWIDTH 14 0
BBX 14 14 0 -2
BITMAP
1080
1080
1140
2140
2220
6410
a888
2080
24a0
2490
2890
2080
2080
2380
ENDCHAR
STARTCHAR 4F32
ENCODING 20274
SWIDTH 520 0
DWIDTH 14 0
BBX 14 14 0 -2
BITMAP
1000
17f0
1410
2410
27f0
6400
a500
2510
2560
2580
2500
2908
2908
30f8
ENDCHAR
STARTCHAR 4F33
ENCODING 20275
SWIDTH 520 0
DWIDTH 14 0
BBX 14 14 0 -2
BITMAP
1090
1490
1490
2490
2ff8
6490
a490
2490
2490
2490
24f0
2400
2400
27f8
ENDCHAR
STARTCHAR 4F34
ENCODING 20276
SWIDTH 520 0
DWIDTH 14 0
BBX 14 14 0 -2
BITMAP
1080
1490
1290
22a0
2080
67f0
a080
2080
2080
2ff8
2080
2080
2080
2080
ENDCHAR
STARTCHAR 4F35
ENCODING 20277
SWIDTH 520 0
DWIDTH 14 0
BBX 14 14 0 -2
BITMAP
1000
17f8
2528
2528
6528
a528
2528
2528
2538
2608
2408
2408
27f8
2408
ENDCHAR
STARTCHAR 4F36
ENCODING 20278
SWIDTH 520 0
DWIDTH 14 0
BBX 14 14 0 -2
BITMAP
1080
1080
1140
2220
2510
6888
a000
27f0
2010
2020
2240
2180
2080
2040
ENDCHAR
STARTCHAR 4F37
ENCODING 20279
SWIDTH 520 0
DWIDTH 14 0
BBX 14 14 0 -2
BITMAP
1080
1080
2080
2ff8
6888
a888
2888
2ff8
2888
2888
2888
2888
2ff8
2808
ENDCHAR
STARTCHAR 4F38
ENCODING 20280
SWIDTH 520 0
DWIDTH 14 0
BBX 14 14 0 -2
BITMAP
1080
1080
17f0
2490
2490
6490
a7f0
2490
2490
2490
27f0
2490
2080
2080
ENDCHAR
STARTCHAR 4F39
ENCODING 20281
SWIDTH 520 0
DWIDTH 14 0
BBX 14 14 0 -2
BITMAP
1000
17f0
1410
2410
2410
67f0
a410
2410
2410
27f0
2410
2410
2410
2ff8
ENDCHAR
STARTCHAR 4F3A
ENCODING 20282
SWIDTH 520 0
DWIDTH 14 0
BBX 14 14 0 -2
BITMAP
1000
17f8
2008
2008
6fe8
a008
2008
27c8
2448
2448
27c8
2408
2008
2038
ENDCHAR
STARTCHAR 4F3B
ENCODING 20283
SWIDTH 520 0
DWIDTH 14 0
BBX 14 14 0 -2
BITMAP
1000
17f0
1080
2080
2490
6290
a2a0
2080
2ff8
2080
2080
2080
2080
2080
ENDCHAR
STARTCHAR 4F3C
ENCODING 20284
SWIDTH 520 0
DWIDTH 14 0
BBX 14 14 0 -2
BITMAP
1020
1120
14a0
24a0
24a0
6420
a420
2420
2420
2550
2650
2488
2108
2208
ENDCHAR
STARTCHAR 4F3D
ENCODING 20285
SWIDTH 520 0
DWIDTH 14 0
BBX 14 14 0 -2
BITMAP
1200
1200
1200
27b8
22a8
62a8
a2a8
22a8
22a8
22a8
22a8
24b8
24a8
2b00
ENDCHAR
STARTCHAR 4F3E
ENCODING 20286
SWIDTH 520 0
DWIDTH 14 0
BBX 14 14 0 -2
BITMAP
1000
17f8
1040
2040
2080
61a0
a290
2488
2888
2080
2080
2080
2000
2ff8
ENDCHAR
STARTCHAR 4F3F
ENCODING 20287
SWIDTH 520 0
DWIDTH 14 0
BBX 14 14 0 -2
BITMAP
1000
17f0
1410
2410
2410
6410
a410
27f0
2000
2000
2220
2210
2408
2808
ENDCHAR
STARTCHAR 4F40
ENCODING 20288
SWIDTH 520 0
DWIDTH 14 0
BBX 14 14 0 -2
BITMAP
1000
17e0
1420
2420
2420
67e0
a400
2400
27f0
2410
2410
2410
27f0
2410
ENDCHAR
STARTCHAR 4F41
ENCODING 20289
SWIDTH 520 0
DWIDTH 14 0
BBX 14 14 0 -2
BITMAP
1080
1080
1120
2210
27f8
6008
a000
23f0
2210
2210
2210
2210
23f0
2210
ENDCHAR
STARTCHAR 4F42
ENCODING 20290
SWIDTH 520 0
DWIDTH 14 0
BBX 14 14 0 -2
BITMAP
1000
17f8
1040
2040
2040
6240
a278
2240
2240
2240
2240
2240
2240
2ff8
ENDCHAR
STARTCHAR 4F43
ENCODING 20291
SWIDTH 520 0
DWIDTH 14 0
BBX 14 14 0 -2
BITMAP
1000
17f8
2488
2488
6488
a488
27f8
2488
2488
2488
2488
2488
27f8
2408
ENDCHAR
STARTCHAR 4F44
ENCODING 20292
SWIDTH 520 0
DWIDTH 14 0
BBX 14 14 0 -2
BITMAP
1210
1210
1210
27f8
2210
6210
a210
23f0
2210
2210
2210
2210
23f0
2210
ENDCHAR
STARTCHAR 4F45
ENCODING 20293
SWIDTH 520 0
DWIDTH 14 0
BBX 14 14 0 -2
BITMAP
1080
1080
17f0
2080
2080
6080
a7f8
21c0
22a0
22a0
2490
2888
2080
2080
ENDCHAR
STARTCHAR 4F46
ENCODING 20294
SWIDTH 520 0
DWIDTH 14 0
BBX 14 14 0 -2
BITMAP
1000
17f0
2410
2410
6410
a7f0
2410
2410
2410
2410
27f0
2000
2000
2ff8
ENDCHAR
STARTCHAR 4F47
ENCODING 20295
SWIDTH 520 0
DWIDTH 14 0
BBX 14 14 0 -2
BITMAP
1080
1040
17f8
2408
2408
6000
a7f8
2040
2040
2040
2040
2040
2040
21c0
ENDCHAR
STARTCHAR 4F48
ENCODING 20296
SWIDTH 520 0
DWIDTH 14 0
BBX 14 14 0 -2
BITMAP
1080
1080
27f8
2100
6140
a240
27f8
2a48
2248
2248
2248
2258
2040
2040
ENDCHAR
STARTCHAR 4F49
ENCODING 20297
SWIDTH 520 0
DWIDTH 14 0
BBX 14 14 0 -2
BITMAP
1080
1080
1080
27f0
2080
6080
a080
2ff8
2100
2100
2220
2410
2ff8
2008
ENDCHAR
STARTCHAR 4F4A
ENCODING 20298
SWIDTH 520 0
DWIDTH 14 0
BBX 14 14 0 -2
BITMAP
1080
1080
17f8
2488
2490
6480
a7f0
2510
2510
24a0
24a0
2440
28a0
3318
ENDCHAR
STARTCHAR 4F4B
ENCODING 20299
SWIDTH 520 0
DWIDTH 14 0
BBX 14 14 0 -2
BITMAP
1000
17f8
2108
2108
6208
a408
2830
2000
27f8
2408
2408
2408
27f8
2408
ENDCHAR
STARTCHAR 4F4C
ENCODING 20300
SWIDTH 520 0
DWIDTH 14 0
BBX 14 14 0 -2
BITMAP
1020
1120
2120
2120
6528
a530
25a0
2520
2520
2520
2520
25a8
2e28
2018
ENDCHAR
STARTCHAR 4F4D
ENCODING 20301
SWIDTH 520 0
DWIDTH 14 0
BBX 14 14 0 -2
BITMAP
1100
1080
1080
27f0
2000
6020
a420
2420
2220
2240
2240
2040
2080
2ff8
ENDCHAR
STARTCHAR 4F4E
ENCODING 20302
SWIDTH 520 0
DWIDTH 14 0
BBX 14 14 0 -2
BITMAP
1000
1070
17c0
2440
2440
6440
a7f8
2440
2440
2440
2520
2628
2498
2048
ENDCHAR
STARTCHAR 4F4F
ENCODING 20303
SWIDTH 520 0
DWIDTH 14 0
BBX 14 14 0 -2
BITMAP
1100
1080
1000
27f0
2080
6080
a080
2080
27f0
2080
2080
2080
2080
2ff8
ENDCHAR
STARTCHAR 4F50
ENCODING 20304
SWIDTH 520 0
DWIDTH 14 0
BBX 14 14 0 -2
BITMAP
1080
1080
1080
27f8
2080
6100
a100
23f0
2240
2440
2440
2840
2040
27f8
ENDCHAR
STARTCHAR 4F51
ENCODING 20305
SWIDTH 520 0
DWIDTH 14 0
BBX 14 14 0 -2
BITMAP
1080
1080
1080
27f8
2100
6100
a200
23f0
2610
2a10
2210
2210
23f0
2210
ENDCHAR
STARTCHAR 4F52
ENCODING 20306
SWIDTH 520 0
DWIDTH 14 0
BBX 14 14 0 -2
BITMAP
1080
1080
1080
27f0
2490
6490
a490
2490
2ff8
2140
2140
2220
2410
2808
ENDCHAR
STARTCHAR 4F53
ENCODING 20307
SWIDTH 520 0
DWIDTH 14 0
BBX 14 14 0 -2
BITMAP
1080
1080
1080
27f8
2080
61c0
a1c0
22a0
22a0
2490
2be8
2080
2080
2080
ENDCHAR
STARTCHAR 4F54
ENCODING 20308
SWIDTH 520 0
DWIDTH 14 0
BBX 14 14 0 -2
BITMAP
1080
1080
1080
20f8
2080
6080
a080
27f0
2410
2410
2410
2410
27f0
2410
ENDCHAR
STARTCHAR 4F55
ENCODING 20309
SWIDTH 520 0
DWIDTH 14 0
BBX 14 14 0 -2
BITMAP
1000
17f8
2010
2010
6790
a490
2490
2490
2490
2790
2410
2010
2010
2070
ENDCHAR
STARTCHAR 4F56
ENCODING 20310
SWIDTH 520 0
DWIDTH 14 0
BBX 14 14 0 -2
BITMAP
1100
1080
1080
2020
2220
6220
aa40
2a50
2a88
3308
2200
2620
2a20
31e0
ENDCHAR
STARTCHAR 4F57
ENCODING 20311
SWIDTH 520 0
DWIDTH 14 0
BBX 14 14 0 -2
BITMAP
1080
1040
17f8
2408
2000
6200
a210
2260
2380
2200
2200
2208
2208
21f8
ENDCHAR
STARTCHAR 4F58
ENCODING 20312
SWIDTH 520 0
DWIDTH 14 0
BBX 14 14 0 -2
BITMAP
0200
0500
0880
3060
c018
1fc0
0000
0000
7ff0
0200
1240
2220
4210
0e00
ENDCHAR
STARTCHAR 4F59
ENCODING 20313
SWIDTH 520 0
DWIDTH 14 0
BBX 14 14 0 -2
BITMAP
0200
0500
0880
1040
2020
dfd8
0200
0200
7ff0
0200
1240
2220
4210
0e00
ENDCHAR
STARTCHAR 4F5A
ENCODING 20314
SWIDTH 520 0
DWIDTH 14 0
BBX 14 14 0 -2
BITMAP
1080
1480
1480
27f0
2880
6080
a080
2ff8
2080
2140
2140
2220
2410
2808
ENDCHAR
STARTCHAR 4F5B
ENCODING 20315
SWIDTH 520 0
DWIDTH 14 0
BBX 14 14 0 -2
BITMAP
1140
1140
17f0
2150
2150
67f0
a540
2540
27f8
2148
2148
2248
2258
2440
ENDCHAR
STARTCHAR 4F5C
ENCODING 20316
SWIDTH 520 0
DWIDTH 14 0
BBX 14 14 0 -2
BITMAP
1200
1200
13f8
2500
2500
6900
a1f0
2100
2100
2100
21f8
2100
2100
2100
ENDCHAR
STARTCHAR 4F5D
ENCODING 20317
SWIDTH 520 0
DWIDTH 14 0
BBX 14 14 0 -2
BITMAP
1200
1200
13f0
2410
2810
6790
a490
2490
2490
2490
2790
2410
2010
2060
ENDCHAR
STARTCHAR 4F5E
ENCODING 20318
SWIDTH 520 0
DWIDTH 14 0
BBX 14 14 0 -2
BITMAP
1000
13f0
1000
2000
27f8
6080
a080
27f8
2120
2220
2340
20c0
2120
2610
ENDCHAR
STARTCHAR 4F5F
ENCODING 20319
SWIDTH 520 0
DWIDTH 14 0
BBX 14 14 0 -2
BITMAP
1100
1100
11e0
2220
2540
6080
a140
2220
2418
2180
2060
2300
20c0
2020
ENDCHAR
STARTCHAR 4F60
ENCODING 20320
SWIDTH 520 0
DWIDTH 14 0
BBX 14 14 0 -2
BITMAP
1200
1200
17f8
2408
2810
6080
a080
22a0
2290
2490
2488
2888
2080
2380
ENDCHAR
STARTCHAR 4F61
ENCODING 20321
SWIDTH 520 0
DWIDTH 14 0
BBX 14 14 0 -2
BITMAP
1080
1080
1140
2220
2410
6888
a080
2490
2490
2490
2490
2490
27f0
2010
ENDCHAR
STARTCHAR 4F62
ENCODING 20322
SWIDTH 520 0
DWIDTH 14 0
BBX 14 14 0 -2
BITMAP
1000
17f8
1400
2400
2400
67f0
a410
2410
2410
27f0
2400
2400
2400
27f8
ENDCHAR
STARTCHAR 4F63
ENCODING 20323
SWIDTH 520 0
DWIDTH 14 0
BBX 14 14 0 -2
BITMAP
1000
17f8
2488
2488
6488
a7f8
2488
2488
27f8
2488
2488
2488
2488
2838
ENDCHAR
STARTCHAR 4F64
ENCODING 20324
SWIDTH 520 0
DWIDTH 14 0
BBX 14 14 0 -2
BITMAP
1000
17f0
1200
2200
23e0
6220
a220
2520
24a0
2420
2420
2528
2628
2418
ENDCHAR
STARTCHAR 4F65
ENCODING 20325
SWIDTH 520 0
DWIDTH 14 0
BBX 14 14 0 -2
BITMAP
0200
0200
0500
0880
1040
2020
dfd8
0000
0400
2220
1220
1240
0080
fff8
ENDCHAR
STARTCHAR 4F66
ENCODING 20326
SWIDTH 520 0
DWIDTH 14 0
BBX 14 14 0 -2
BITMAP
1000
17f8
1080
2080
2100
6100
a3f8
2308
2508
2908
2108
2108
21f8
2108
ENDCHAR
STARTCHAR 4F67
ENCODING 20327
SWIDTH 520 0
DWIDTH 14 0
BBX 14 14 0 -2
BITMAP
1100
1100
1100
21f0
2100
6100
aff8
2100
2140
2120
2110
2110
2100
2100
ENDCHAR
STARTCHAR 4F68
ENCODING 20328
SWIDTH 520 0
DWIDTH 14 0
BBX 14 14 0 -2
BITMAP
1100
1100
13f0
2210
2410
6bd0
a250
2250
23d0
2210
2260
2208
2208
21f8
ENDCHAR
STARTCHAR 4F69
ENCODING 20329
SWIDTH 520 0
DWIDTH 14 0
BBX 14 14 0 -2
BITMAP
2000
3ff0
3010
57d0
5110
d110
57d0
5550
5550
5550
5550
55d0
5118
6108
ENDCHAR
STARTCHAR 4F6A
ENCODING 20330
SWIDTH 520 0
DWIDTH 14 0
BBX 14 14 0 -2
BITMAP
1000
17f8
1408
2408
25e8
6528
a528
2528
2528
25e8
2408
2408
27f8
2408
ENDCHAR
STARTCHAR 4F6B
ENCODING 20331
SWIDTH 520 0
DWIDTH 14 0
BBX 14 14 0 -2
BITMAP
1200
1200
17e0
2420
2a20
6240
a180
2660
3818
27e0
2420
2420
27e0
2420
ENDCHAR
STARTCHAR 4F6C
ENCODING 20332
SWIDTH 520 0
DWIDTH 14 0
BBX 14 14 0 -2
BITMAP
1080
1088
17e8
2090
2090
60a0
aff8
2080
2100
2330
25c0
2908
2108
20f8
ENDCHAR
STARTCHAR 4F6D
ENCODING 20333
SWIDTH 520 0
DWIDTH 14 0
BBX 14 14 0 -2
BITMAP
1100
13f0
1410
2a20
21c0
6e38
a080
23f0
2080
2480
27f8
2080
2080
2080
ENDCHAR
STARTCHAR 4F6E
ENCODING 20334
SWIDTH 520 0
DWIDTH 14 0
BBX 14 14 0 -2
BITMAP
1080
1080
1140
2220
2410
6be8
a000
2000
27f0
2410
2410
2410
27f0
2410
ENDCHAR
STARTCHAR 4F6F
ENCODING 20335
SWIDTH 520 0
DWIDTH 14 0
BBX 14 14 0 -2
BITMAP
1410
1220
1000
27f0
2080
6080
a7f0
2080
2080
2ff8
2080
2080
2080
2080
ENDCHAR
STARTCHAR 4F70
ENCODING 20336
SWIDTH 520 0
DWIDTH 14 0
BBX 14 14 0 -2
BITMAP
1000
1ff8
2080
2100
67f0
a410
2410
2410
27f0
2410
2410
2410
27f0
2410
ENDCHAR
STARTCHAR 4F71
ENCODING 20337
SWIDTH 520 0
DWIDTH 14 0
BBX 14 14 0 -2
BITMAP
0200
0500
0880
3060
dfd8
0000
0000
fff8
0200
1200
13e0
1200
1200
fff8
ENDCHAR
STARTCHAR 4F72
ENCODING 20338
SWIDTH 520 0
DWIDTH 14 0
BBX 14 14 0 -2
BITMAP
1100
1100
13f0
2410
2a20
6140
a080
2100
23f0
2610
2a10
2210
23f0
2210
ENDCHAR
STARTCHAR 4F73
ENCODING 20339
SWIDTH 520 0
DWIDTH 14 0
BBX 14 14 0 -2
BITMAP
1080
1080
17f0
2080
2080
6ff8
a000
2080
2080
27f0
2080
2080
2080
2ff8
ENDCHAR
STARTCHAR 4F74
ENCODING 20340
SWIDTH 520 0
DWIDTH 14 0
BBX 14 14 0 -2
BITMAP
1000
17f8
2210
2210
63f0
a210
2210
23f0
2210
2210
2278
2790
2010
2010
ENDCHAR
STARTCHAR 4F75
ENCODING 20341
SWIDTH 520 0
DWIDTH 14 0
BBX 14 14 0 -2
BITMAP
1410
1220
1000
27f0
2220
6220
a220
2ff8
2220
2220
2220
2420
2420
2820
ENDCHAR
STARTCHAR 4F76
ENCODING 20342
SWIDTH 520 0
DWIDTH 14 0
BBX 14 14 0 -2
BITMAP
1080
1080
2ff8
2080
6080
a7f0
2000
2000
27f0
2410
2410
2410
27f0
2410
ENDCHAR
STARTCHAR 4F77
ENCODING 20343
SWIDTH 520 0
DWIDTH 14 0
BBX 14 14 0 -2
BITMAP
1000
13f0
1210
2210
23f0
6210
a210
23f0
2248
2250
2220
22a0
2310
2208
ENDCHAR
STARTCHAR 4F78
ENCODING 20344
SWIDTH 520 0
DWIDTH 14 0
BBX 14 14 0 -2
BITMAP
1000
1070
1780
2080
2080
6ff8
a080
2080
27f0
2410
2410
2410
27f0
2410
ENDCHAR
STARTCHAR 4F79
ENCODING 20345
SWIDTH 520 0
DWIDTH 14 0
BBX 14 14 0 -2
BITMAP
1200
13f0
2420
2440
6ff8
b400
25f0
2510
2510
2510
2560
2908
2908
30f8
ENDCHAR
STARTCHAR 4F7A
ENCODING 20346
SWIDTH 520 0
DWIDTH 14 0
BBX 14 14 0 -2
BITMAP
1080
1080
1140
2220
2410
6808
a7f0
2080
2080
27f0
2080
2080
2080
2ff8
ENDCHAR
STARTCHAR 4F7B
ENCODING 20347
SWIDTH 520 0
DWIDTH 14 0
BBX 14 14 0 -2
BITMAP
1140
1140
1148
2550
2360
6140
a140
2360
2550
2148
2240
2248
2448
2838
ENDCHAR
STARTCHAR 4F7C
ENCODING 20348
SWIDTH 520 0
DWIDTH 14 0
BBX 14 14 0 -2
BITMAP
1100
1080
17f0
2000
2220
6410
aa28
2220
2140
2140
2080
2140
2220
2c18
ENDCHAR
STARTCHAR 4F7D
ENCODING 20349
SWIDTH 520 0
DWIDTH 14 0
BBX 14 14 0 -2
BITMAP
1040
1040
1440
22f8
2088
6110
a040
2240
2240
2440
24a0
28a0
2910
2208
ENDCHAR
STARTCHAR 4F7E
ENCODING 20350
SWIDTH 520 0
DWIDTH 14 0
BBX 14 14 0 -2
BITMAP
1240
1240
1420
2810
27e8
6420
a420
27e0
2420
2420
27e0
2420
2420
24e0
ENDCHAR
STARTCHAR 4F7F
ENCODING 20351
SWIDTH 520 0
DWIDTH 14 0
BBX 14 14 0 -2
BITMAP
1080
1080
2ff8
2080
6ff8
a888
2888
2ff8
2480
2280
2100
2280
2460
2818
ENDCHAR
STARTCHAR 4F80
ENCODING 20352
SWIDTH 520 0
DWIDTH 14 0
BBX 14 14 0 -2
BITMAP
1010
1f90
2510
2550
6550
a550
2fd0
2550
2550
2550
2510
2910
2910
3170
ENDCHAR
STARTCHAR 4F81
ENCODING 20353
SWIDTH 520 0
DWIDTH 14 0
BBX 14 14 0 -2
BITMAP
1080
1480
1480
27f0
2480
6880
a080
2ff8
2240
2240
2240
2448
2848
3038
ENDCHAR
STARTCHAR 4F82
ENCODING 20354
SWIDTH 520 0
DWIDTH 14 0
BBX 14 14 0 -2
BITMAP
1080
1040
17f8
2400
2430
65c0
a440
2440
2478
27c0
2440
2848
2848
3038
ENDCHAR
STARTCHAR 4F83
ENCODING 20355
SWIDTH 520 0
DWIDTH 14 0
BBX 14 14 0 -2
BITMAP
1000
17f0
1410
2410
2410
67f0
a000
22a0
22a0
22a0
22a0
22a8
24a8
2818
ENDCHAR
STARTCHAR 4F84
ENCODING 20356
SWIDTH 520 0
DWIDTH 14 0
BBX 14 14 0 -2
BITMAP
1000
17f0
1080
2120
2210
67f0
a090
2080
2080
27f0
2080
2080
2080
2ff8
ENDCHAR
STARTCHAR 4F85
ENCODING 20357
SWIDTH 520 0
DWIDTH 14 0
BBX 14 14 0 -2
BITMAP
1100
1080
27f8
2080
6120
a220
27c0
2090
2110
2220
2440
20a0
2110
2610
ENDCHAR
STARTCHAR 4F86
ENCODING 20358
SWIDTH 520 0
DWIDTH 14 0
BBX 14 14 0 -2
BITMAP
0200
0200
7ff0
0200
1240
1240
1240
2aa0
4710
0a80
1240
2220
c218
0200
ENDCHAR
STARTCHAR 4F87
ENCODING 20359
SWIDTH 520 0
DWIDTH 14 0
BBX 14 14 0 -2
BITMAP
1080
1080
17f8
2080
27f0
6090
a7f0
2480
27f8
2088
20b0
2140
2220
2418
ENDCHAR
STARTCHAR 4F88
ENCODING 20360
SWIDTH 520 0
DWIDTH 14 0
BBX 14 14 0 -2
BITMAP
2200
2200
27f0
4c20
5240
c1a0
4640
58f8
4108
4610
5920
40c0
4300
5c00
ENDCHAR
STARTCHAR 4F89
ENCODING 20361
SWIDTH 520 0
DWIDTH 14 0
BBX 14 14 0 -2
BITMAP
1080
1080
27f8
2220
6410
abe8
2000
2ff8
2200
23f0
2010
2010
2010
2060
ENDCHAR
STARTCHAR 4F8A
ENCODING 20362
SWIDTH 520 0
DWIDTH 14 0
BBX 14 14 0 -2
BITMAP
1080
1080
1490
2290
22a0
6080
aff8
2240
2240
2240
2240
2448
2448
2838
ENDCHAR
STARTCHAR 4F8B
ENCODING 20363
SWIDTH 520 0
DWIDTH 14 0
BBX 14 14 0 -2
BITMAP
1008
17c8
2208
2228
63a8
a4a8
24a8
24a8
2aa8
2128
2108
2208
2408
2838
ENDCHAR
STARTCHAR 4F8C
ENCODING 20364
SWIDTH 520 0
DWIDTH 14 0
BBX 14 14 0 -2
BITMAP
0200
0500
0880
3260
cf98
0080
0100
3fe0
0000
fff8
0800
1040
3fe0
0020
ENDCHAR
STARTCHAR 4F8D
ENCODING 20365
SWIDTH 520 0
DWIDTH 14 0
BBX 14 14 0 -2
BITMAP
1080
1080
17f0
2080
2080
6ff8
a020
2020
2ff8
2020
2420
2220
2020
20e0
ENDCHAR
STARTCHAR 4F8E
ENCODING 20366
SWIDTH 520 0
DWIDTH 14 0
BBX 14 14 0 -2
BITMAP
1080
1080
1490
2290
22a0
6080
a7f8
21c0
22a0
22a0
2490
2888
2080
2080
ENDCHAR
STARTCHAR 4F8F
ENCODING 20367
SWIDTH 520 0
DWIDTH 14 0
BBX 14 14 0 -2
BITMAP
1080
1280
1280
23f0
2480
6080
a080
27f8
21c0
22a0
22a0
2490
2888
2080
ENDCHAR
STARTCHAR 4F90
ENCODING 20368
SWIDTH 520 0
DWIDTH 14 0
BBX 14 14 0 -2
BITMAP
1100
1100
1200
27f0
2550
6550
a550
2550
2550
2550
2550
2550
2550
2ff8
ENDCHAR
STARTCHAR 4F91
ENCODING 20369
SWIDTH 520 0
DWIDTH 14 0
BBX 14 14 0 -2
BITMAP
1080
1080
17f8
2100
2200
63f0
a610
2a10
23f0
2210
23f0
2210
2210
2270
ENDCHAR
STARTCHAR 4F92
ENCODING 20370
SWIDTH 520 0
DWIDTH 14 0
BBX 14 14 0 -2
BITMAP
1080
1040
17f8
2408
2488
6080
a7f8
2110
2110
2320
20c0
20a0
2110
2608
ENDCHAR
STARTCHAR 4F93
ENCODING 20371
SWIDTH 520 0
DWIDTH 14 0
BBX 14 14 0 -2
BITMAP
1080
1080
17f0
2090
2ff8
6090
a7f0
2080
27f0
2080
2ff8
2080
2080
2080
ENDCHAR
STARTCHAR 4F94
ENCODING 20372
SWIDTH 520 0
DWIDTH 14 0
BBX 14 14 0 -2
BITMAP
1080
1080
1120
2210
27f0
6090
a480
27f0
2880
2080
2ff8
2080
2080
2080
ENDCHAR
STARTCHAR 4F95
ENCODING 20373
SWIDTH 520 0
DWIDTH 14 0
BBX 14 14 0 -2
BITMAP
1000
17f0
2080
2100
67f0
a550
2550
2550
2550
2550
2550
2550
2410
2470
ENDCHAR
STARTCHAR 4F96
ENCODING 20374
SWIDTH 520 0
DWIDTH 14 0
BBX 14 14 0 -2
BITMAP
0200
0500
0880
3060
cf98
0000
7ff0
4890
4890
7ff0
4890
4890
4890
4030
ENDCHAR
STARTCHAR 4F97
ENCODING 20375
SWIDTH 520 0
DWIDTH 14 0
BBX 14 14 0 -2
BITMAP
1000
17f8
2408
2408
65e8
a408
25e8
2528
2528
2528
25e8
2408
2408
2438
ENDCHAR
STARTCHAR 4F98
ENCODING 20376
SWIDTH 520 0
DWIDTH 14 0
BBX 14 14 0 -2
BITMAP
1080
1040
17f8
2408
2408
6070
a380
2080
20b8
27c0
2080
2088
2088
2078
ENDCHAR
STARTCHAR 4F99
ENCODING 20377
SWIDTH 520 0
DWIDTH 14 0
BBX 14 14 0 -2
BITMAP
1050
1048
2040
2ff8
6040
a040
2740
2240
2240
2220
2228
23a8
2e18
2008
ENDCHAR
STARTCHAR 4F9A
ENCODING 20378
SWIDTH 520 0
DWIDTH 14 0
BBX 14 14 0 -2
BITMAP
1200
1200
17f8
2808
27e8
6428
a428
27e8
2428
2428
27e8
2408
2008
2030
ENDCHAR
STARTCHAR 4F9B
ENCODING 20379
SWIDTH 520 0
DWIDTH 14 0
BBX 14 14 0 -2
BITMAP
1220
1220
1220
27f0
2220
6220
a220
2220
2ff8
2000
2220
2210
2408
2808
ENDCHAR
STARTCHAR 4F9C
ENCODING 20380
SWIDTH 520 0
DWIDTH 14 0
BBX 14 14 0 -2
BITMAP
1040
1080
13f0
2210
2290
6250
a250
27f8
2210
2290
2250
2210
2210
2470
ENDCHAR
STARTCHAR 4F9D
ENCODING 20381
SWIDTH 520 0
DWIDTH 14 0
BBX 14 14 0 -2
BITMAP
1100
1080
1000
2ff0
2100
6100
a290
26a0
2a40
3240
2220
2290
2308
2200
ENDCHAR
STARTCHAR 4F9E
ENCODING 20382
SWIDTH 520 0
DWIDTH 14 0
BBX 14 14 0 -2
BITMAP
1200
1200
2270
2f50
6550
a550
2550
2550
2950
2550
2250
2570
2550
2800
ENDCHAR
STARTCHAR 4F9F
ENCODING 20383
SWIDTH 520 0
DWIDTH 14 0
BBX 14 14 0 -2
BITMAP
1080
1080
1080
27f8
2100
6200
a2f0
2610
2a20
23f8
2220
2220
2220
22e0
ENDCHAR
STARTCHAR 4FA0
ENCODING 20384
SWIDTH 520 0
DWIDTH 14 0
BBX 14 14 0 -2
BITMAP
1080
1080
17f0
2080
2490
62a0
a080
2ff8
2080
2140
2140
2220
2410
2808
ENDCHAR
STARTCHAR 4FA1
ENCODING 20385
SWIDTH 520 0
DWIDTH 14 0
BBX 14 14 0 -2
BITMAP
1000
17f8
2140
2140
6140
a7f0
2550
2550
2550
2550
2550
2550
27f0
2410
ENDCHAR
STARTCHAR 4FA2
ENCODING 20386
SWIDTH 520 0
DWIDTH 14 0
BBX 14 14 0 -2
BITMAP
1000
1ff8
1080
27f0
2490
6490
a7f0
2490
2490
2ff8
2410
2410
2410
2470
ENDCHAR
STARTCHAR 4FA3
ENCODING 20387
SWIDTH 520 0
DWIDTH 14 0
BBX 14 14 0 -2
BITMAP
1000
13f0
1210
2210
2210
63f0
a000
2000
27f8
2408
2408
2408
27f8
2408
ENDCHAR
STARTCHAR 4FA4
ENCODING 20388
SWIDTH 520 0
DWIDTH 14 0
BBX 14 14 0 -2
BITMAP
1080
1090
13d0
20a0
2ff8
6080
a100
23f0
2480
2900
21f0
2010
2010
2060
ENDCHAR
STARTCHAR 4FA5
ENCODING 20389
SWIDTH 520 0
DWIDTH 14 0
BBX 14 14 0 -2
BITMAP
1100
1100
1170
2780
20a0
6048
a1a8
2618
2000
27f0
2140
2140
2248
2c38
ENDCHAR
STARTCHAR 4FA6
ENCODING 20390
SWIDTH 520 0
DWIDTH 14 0
BBX 14 14 0 -2
BITMAP
1080
10f8
1080
2080
27f0
6410
a410
2490
2490
2490
2490
2140
2220
2c10
ENDCHAR
STARTCHAR 4FA7
ENCODING 20391
SWIDTH 520 0
DWIDTH 14 0
BBX 14 14 0 -2
BITMAP
1008
1f88
2888
2aa8
6aa8
aaa8
2aa8
2aa8
2aa8
2aa8
2208
2508
2488
2838
ENDCHAR
STARTCHAR 4FA8
ENCODING 20392
SWIDTH 520 0
DWIDTH 14 0
BBX 14 14 0 -2
BITMAP
1070
1780
1080
2080
2ff8
6140
a220
2410
2a28
2220
2220
2220
2220
2420
ENDCHAR
STARTCHAR 4FA9
ENCODING 20393
SWIDTH 520 0
DWIDTH 14 0
BBX 14 14 0 -2
BITMAP
1080
1080
1140
2220
2410
6be8
a000
2000
27f0
2100
2240
2420
27f0
2010
ENDCHAR
STARTCHAR 4FAA
ENCODING 20394
SWIDTH 520 0
DWIDTH 14 0
BBX 14 14 0 -2
BITMAP
1100
1080
17f8
2220
2140
6080
a360
2c18
2220
2220
2220
2220
2420
2820
ENDCHAR
STARTCHAR 4FAB
ENCODING 20395
SWIDTH 520 0
DWIDTH 14 0
BBX 14 14 0 -2
BITMAP
1100
1080
1ff8
2400
2400
67f0
a100
2100
2ff8
2220
2640
2180
2260
2c10
ENDCHAR
STARTCHAR 4FAC
ENCODING 20396
SWIDTH 520 0
DWIDTH 14 0
BBX 14 14 0 -2
BITMAP
1080
1080
2ff8
2888
6908
a100
2290
26a0
2a40
3240
2220
2290
2308
2200
ENDCHAR
STARTCHAR 4FAD
ENCODING 20397
SWIDTH 520 0
DWIDTH 14 0
BBX 14 14 0 -2
BITMAP
1000
17f0
1410
2410
27f0
6480
a440
2420
2598
2440
2800
2180
2040
2020
ENDCHAR
STARTCHAR 4FAE
ENCODING 20398
SWIDTH 520 0
DWIDTH 14 0
BBX 14 14 0 -2
BITMAP
1200
1200
13f8
2400
2bf0
6290
a250
2ff8
2210
2490
2450
27f8
2010
2060
ENDCHAR
STARTCHAR 4FAF
ENCODING 20399
SWIDTH 520 0
DWIDTH 14 0
BBX 14 14 0 -2
BITMAP
1000
13e0
1020
2020
2ff8
6200
a3f0
2480
2080
27f8
2080
2140
2220
2c18
ENDCHAR
STARTCHAR 4FB0
ENCODING 20400
SWIDTH 520 0
DWIDTH 14 0
BBX 14 14 0 -2
BITMAP
1000
17f0
1110
2110
2ff8
6110
a110
27f0
2200
27f0
2a10
3210
23f0
2210
ENDCHAR
STARTCHAR 4FB1
ENCODING 20401
SWIDTH 520 0
DWIDTH 14 0
BBX 14 14 0 -2
BITMAP
1000
17f0
1410
2410
27f0
6000
a000
27f0
2080
2080
27f0
2080
2080
2ff8
ENDCHAR
STARTCHAR 4FB2
ENCODING 20402
SWIDTH 520 0
DWIDTH 14 0
BBX 14 14 0 -2
BITMAP
1000
17f8
1400
2400
25f0
6400
a400
27f8
2540
2548
2530
2520
2590
2908
ENDCHAR
STARTCHAR 4FB3
ENCODING 20403
SWIDTH 520 0
DWIDTH 14 0
BBX 14 14 0 -2
BITMAP
1080
1080
12a0
22a0
22a0
65d0
a888
2080
2080
27f0
2080
2080
2080
2ff8
ENDCHAR
STARTCHAR 4FB4
ENCODING 20404
SWIDTH 520 0
DWIDTH 14 0
BBX 14 14 0 -2
BITMAP
0200
0500
0880
3060
dfd8
0000
7c90
1490
1490
7c90
2490
2410
2e10
f070
ENDCHAR
STARTCHAR 4FB5
ENCODING 20405
SWIDTH 520 0
DWIDTH 14 0
BBX 14 14 0 -2
BITMAP
17f0
1010
13f0
2010
27f0
6000
aff8
2808
23e0
2220
2140
2080
2360
2c18
ENDCHAR
STARTCHAR 4FB6
ENCODING 20406
SWIDTH 520 0
DWIDTH 14 0
BBX 14 14 0 -2
BITMAP
1000
13e0
1220
2220
2220
63e0
a080
2100
27f0
2410
2410
2410
27f0
2410
ENDCHAR
STARTCHAR 4FB7
ENCODING 20407
SWIDTH 520 0
DWIDTH 14 0
BBX 14 14 0 -2
BITMAP
1000
17f0
2410
2410
67f0
a400
27f8
2408
25e8
2528
2528
29e8
2808
3030
ENDCHAR
STARTCHAR 4FB8
ENCODING 20408
SWIDTH 520 0
DWIDTH 14 0
BBX 14 14 0 -2
BITMAP
1000
17f0
1000
2000
27f0
6410
a410
2410
27f0
2000
2410
2220
2000
2ff8
ENDCHAR
STARTCHAR 4FB9
ENCODING 20409
SWIDTH 520 0
DWIDTH 14 0
BBX 14 14 0 -2
BITMAP
1010
1760
2120
2220
6220
a478
2720
2120
2120
2520
2578
2200
2500
28f8
ENDCHAR
STARTCHAR 4FBA
ENCODING 20410
SWIDTH 520 0
DWIDTH 14 0
BBX 14 14 0 -2
BITMAP
1080
1490
1490
27f0
2080
6140
a220
2510
2888
23e0
2020
2040
2040
2080
ENDCHAR
STARTCHAR 4FBB
ENCODING 20411
SWIDTH 520 0
DWIDTH 14 0
BBX 14 14 0 -2
BITMAP
1420
1220
2240
27f0
6410
a410
2410
27f0
2240
2240
2240
2448
2448
2838
ENDCHAR
STARTCHAR 4FBC
ENCODING 20412
SWIDTH 520 0
DWIDTH 14 0
BBX 14 14 0 -2
BITMAP
1080
1080
2ff8
2080
6ff8
a808
27e0
2040
2080
2ff8
2080
2080
2080
2380
ENDCHAR
STARTCHAR 4FBD
ENCODING 20413
SWIDTH 520 0
DWIDTH 14 0
BBX 14 14 0 -2
BITMAP
17f0
1490
1490
27f0
2490
6490
a7f0
2100
2ff0
2110
2210
2210
2410
2860
ENDCHAR
STARTCHAR 4FBE
ENCODING 20414
SWIDTH 520 0
DWIDTH 14 0
BBX 14 14 0 -2
BITMAP
1080
1088
17f0
20a0
20c0
6ff8
a100
2ff0
2420
2840
27f8
2040
2040
21c0
ENDCHAR
STARTCHAR 4FBF
ENCODING 20415
SWIDTH 520 0
DWIDTH 14 0
BBX 14 14 0 -2
BITMAP
1000
1ff8
1080
27f0
2490
6490
a7f0
2490
2490
27f0
2280
2100
22c0
2c38
ENDCHAR
STARTCHAR 4FC0
ENCODING 20416
SWIDTH 520 0
DWIDTH 14 0
BBX 14 14 0 -2
BITMAP
1070
1780
1110
2490
2220
6080
a080
27f8
2120
2220
2340
20c0
2120
2610
ENDCHAR
STARTCHAR 4FC1
ENCODING 20417
SWIDTH 520 0
DWIDTH 14 0
BBX 14 14 0 -2
BITMAP
1000
11e0
1120
2120
25e0
6400
a7f0
2090
2090
2ff8
2080
2140
2220
2418
ENDCHAR
STARTCHAR 4FC2
ENCODING 20418
SWIDTH 520 0
DWIDTH 14 0
BBX 14 14 0 -2
BITMAP
1070
1780
1080
2110
2220
67c0
a080
2110
27f8
2088
22a0
2490
2888
2380
ENDCHAR
STARTCHAR 4FC3
ENCODING 20419
SWIDTH 520 0
DWIDTH 14 0
BBX 14 14 0 -2
BITMAP
1000
17f0
1410
2410
2410
67f0
a080
2080
2480
24f0
2480
2480
2a80
31f8
ENDCHAR
STARTCHAR 4FC4
ENCODING 20420
SWIDTH 520 0
DWIDTH 14 0
BBX 14 14 0 -2
BITMAP
1040
1150
1648
2248
2240
6ff8
a240
2250
2350
2e30
2228
2228
2258
2e88
ENDCHAR
STARTCHAR 4FC5
ENCODING 20421
SWIDTH 520 0
DWIDTH 14 0
BBX 14 14 0 -2
BITMAP
10a0
1090
1080
2ff8
2080
6480
a2c8
20d0
21a0
22a0
2490
2888
2080
2380
ENDCHAR
STARTCHAR 4FC6
ENCODING 20422
SWIDTH 520 0
DWIDTH 14 0
BBX 14 14 0 -2
BITMAP
1080
1080
2140
2220
6410
abe8
2080
2080
27f0
2080
2490
2488
2888
2380
ENDCHAR
STARTCHAR 4FC7
ENCODING 20423
SWIDTH 520 0
DWIDTH 14 0
BBX 14 14 0 -2
BITMAP
1900
1500
22f8
2620
6a20
a220
2220
26f8
2a20
2220
2220
2220
2220
2cf8
ENDCHAR
STARTCHAR 4FC8
ENCODING 20424
SWIDTH 520 0
DWIDTH 14 0
BBX 14 14 0 -2
BITMAP
1080
1480
17f0
2880
2080
6ff8
a000
2000
27f0
2410
2410
2410
27f0
2410
ENDCHAR
STARTCHAR 4FC9
ENCODING 20425
SWIDTH 520 0
DWIDTH 14 0
BBX 14 14 0 -2
BITMAP
1000
1ff8
2100
2100
67f0
a210
2210
2ff8
2000
27f0
2410
2410
27f0
2410
ENDCHAR
STARTCHAR 4FCA
ENCODING 20426
SWIDTH 520 0
DWIDTH 14 0
BBX 14 14 0 -2
BITMAP
1080
1100
1220
27f0
2010
6220
a410
2908
21e0
2220
2540
2080
2360
2c18
ENDCHAR
STARTCHAR 4FCB
ENCODING 20427
SWIDTH 520 0
DWIDTH 14 0
BBX 14 14 0 -2
BITMAP
1000
13e0
1220
2220
23e0
6000
a7f0
2490
2490
27f0
2400
2408
2408
23f8
ENDCHAR
STARTCHAR 4FCC
ENCODING 20428
SWIDTH 520 0
DWIDTH 14 0
BBX 14 14 0 -2
BITMAP
10a0
1090
2ff8
2080
67f0
a490
2490
27f0
2490
2490
27f0
2490
2490
2430
ENDCHAR
STARTCHAR 4FCD
ENCODING 20429
SWIDTH 520 0
DWIDTH 14 0
BBX 14 14 0 -2
BITMAP
1100
1080
17f0
2410
2410
67f0
a410
2410
27f0
2488
2450
2520
2610
2408
ENDCHAR
STARTCHAR 4FCE
ENCODING 20430
SWIDTH 520 0
DWIDTH 14 0
BBX 14 14 0 -2
BITMAP
1000
11f0
1110
2910
2510
45f0
9110
1110
1110
29f0
2510
4510
8110
03f8
ENDCHAR
STARTCHAR 4FCF
ENCODING 20431
SWIDTH 520 0
DWIDTH 14 0
BBX 14 14 0 -2
BITMAP
1080
1490
12a0
2080
27f0
6410
a410
27f0
2410
2410
27f0
2410
2410
2470
ENDCHAR
STARTCHAR 4FD0
ENCODING 20432
SWIDTH 520 0
DWIDTH 14 0
BBX 14 14 0 -2
BITMAP
1188
1e08
2208
2228
6fa8
a228
2228
2728
26a8
2a28
2208
2208
2208
2238
ENDCHAR
STARTCHAR 4FD1
ENCODING 20433
SWIDTH 520 0
DWIDTH 14 0
BBX 14 14 0 -2
BITMAP
1000
1ff0
2220
2140
6ff8
a888
2888
2ff8
2888
2888
2ff8
2888
2888
2838
ENDCHAR
STARTCHAR 4FD2
ENCODING 20434
SWIDTH 520 0
DWIDTH 14 0
BBX 14 14 0 -2
BITMAP
1080
1040
17f8
2408
2000
63f0
a000
2000
27f8
2120
2120
2220
2428
2818
ENDCHAR
STARTCHAR 4FD3
ENCODING 20435
SWIDTH 520 0
DWIDTH 14 0
BBX 14 14 0 -2
BITMAP
1000
17f8
1000
2490
2490
6920
a490
2490
2000
27f0
2080
2080
2080
2ff8
ENDCHAR
STARTCHAR 4FD4
ENCODING 20436
SWIDTH 520 0
DWIDTH 14 0
BBX 14 14 0 -2
BITMAP
1000
17f0
1410
2410
27f0
6410
a7f0
2410
2410
27f0
2140
2140
2248
2c38
ENDCHAR
STARTCHAR 4FD5
ENCODING 20437
SWIDTH 520 0
DWIDTH 14 0
BBX 14 14 0 -2
BITMAP
1100
1080
2ff8
2808
6080
a080
2ff8
21c0
22a0
22a0
2490
2888
2080
2080
ENDCHAR
STARTCHAR 4FD6
ENCODING 20438
SWIDTH 520 0
DWIDTH 14 0
BBX 14 14 0 -2
BITMAP
1000
17f8
2040
2080
61a0
a290
2488
2080
2000
27f0
2410
2410
27f0
2410
ENDCHAR
STARTCHAR 4FD7
ENCODING 20439
SWIDTH 520 0
DWIDTH 14 0
BBX 14 14 0 -2
BITMAP
1220
1210
1488
2888
2140
6220
a410
2808
27f0
2410
2410
2410
27f0
2410
ENDCHAR
STARTCHAR 4FD8
ENCODING 20440
SWIDTH 520 0
DWIDTH 14 0
BBX 14 14 0 -2
BITMAP
1070
1780
2110
2490
62a0
a000
27e0
2040
2080
2ff8
2080
2080
2080
2380
ENDCHAR
STARTCHAR 4FD9
ENCODING 20441
SWIDTH 520 0
DWIDTH 14 0
BBX 14 14 0 -2
BITMAP
1010
1320
10c0
2120
2290
67f8
a100
2240
27f8
2a48
2248
2248
2258
2040
ENDCHAR
STARTCHAR 4FDA
ENCODING 20442
SWIDTH 520 0
DWIDTH 14 0
BBX 14 14 0 -2
BITMAP
1000
17f0
2490
2490
67f0
a490
2490
27f0
2080
2080
27f0
2080
2080
2ff8
ENDCHAR
STARTCHAR 4FDB
ENCODING 20443
SWIDTH 520 0
DWIDTH 14 0
BBX 14 14 0 -2
BITMAP
1100
1100
13e0
2420
2840
67f0
a490
2490
27f0
2140
2140
2240
2448
2838
ENDCHAR
STARTCHAR 4FDC
ENCODING 20444
SWIDTH 520 0
DWIDTH 14 0
BBX 14 14 0 -2
BITMAP
1080
17f0
1490
27f0
2490
67f0
a000
2ff8
2200
23f0
2010
2010
2010
2060
ENDCHAR
STARTCHAR 4FDD
ENCODING 20445
SWIDTH 520 0
DWIDTH 14 0
BBX 14 14 0 -2
BITMAP
1000
17f0
1410
2410
27f0
6080
a080
2ff8
21c0
22a0
22a0
2490
2888
2080
ENDCHAR
STARTCHAR 4FDE
ENCODING 20446
SWIDTH 520 0
DWIDTH 14 0
BBX 14 14 0 -2
BITMAP
0200
0500
0880
3060
dfd8
0000
7e10
4290
7e90
4290
7e90
4290
4210
4e70
ENDCHAR
STARTCHAR 4FDF
ENCODING 20447
SWIDTH 520 0
DWIDTH 14 0
BBX 14 14 0 -2
BITMAP
1080
1100
1220
27f0
2010
6200
a3f0
2480
2080
27f8
2080
2140
2220
2c18
ENDCHAR
STARTCHAR 4FE0
ENCODING 20448
SWIDTH 520 0
DWIDTH 14 0
BBX 14 14 0 -2
BITMAP
1080
1080
17f0
2080
22a0
62a0
a2a0
25d0
2888
2140
2140
2220
2410
2808
ENDCHAR
STARTCHAR 4FE1
ENCODING 20449
SWIDTH 520 0
DWIDTH 14 0
BBX 14 14 0 -2
BITMAP
1100
1080
2ff8
2000
67f0
a000
27f0
2000
27f0
2410
2410
2410
27f0
2410
ENDCHAR
STARTCHAR 4FE2
ENCODING 20450
SWIDTH 520 0
DWIDTH 14 0
BBX 14 14 0 -2
BITMAP
1100
11f0
1220
2540
2080
6360
ac58
2180
2620
20c0
2708
2030
20c0
2f00
ENDCHAR
STARTCHAR 4FE3
ENCODING 20451
SWIDTH 520 0
DWIDTH 14 0
BBX 14 14 0 -2
BITMAP
17f0
1410
2410
27f0
6000
a000
27f0
2080
2080
2ff8
2140
2220
2410
2808
ENDCHAR
STARTCHAR 4FE4
ENCODING 20452
SWIDTH 520 0
DWIDTH 14 0
BBX 14 14 0 -2
BITMAP
1220
1140
17f0
2090
2090
67f0
a480
2480
27f8
2188
2288
2488
28b0
2080
ENDCHAR
STARTCHAR 4FE5
ENCODING 20453
SWIDTH 520 0
DWIDTH 14 0
BBX 14 14 0 -2
BITMAP
1080
1080
17f8
2080
27f0
6490
a7f0
2490
27f0
2080
2ff8
2080
2080
2080
ENDCHAR
STARTCHAR 4FE6
ENCODING 20454
SWIDTH 520 0
DWIDTH 14 0
BBX 14 14 0 -2
BITMAP
1080
1080
2ff8
2100
67f0
a100
3ff8
2220
27f8
2420
2a20
3120
2020
20e0
ENDCHAR
STARTCHAR 4FE7
ENCODING 20455
SWIDTH 520 0
DWIDTH 14 0
BBX 14 14 0 -2
BITMAP
1080
1080
17f8
2080
2080
6080
a7f0
2000
2080
2050
2548
2508
2920
20e0
ENDCHAR
STARTCHAR 4FE8
ENCODING 20456
SWIDTH 520 0
DWIDTH 14 0
BBX 14 14 0 -2
BITMAP
1000
17f8
1120
2528
2330
6120
a7f8
2400
2400
2400
2400
2400
2400
2800
ENDCHAR
STARTCHAR 4FE9
ENCODING 20457
SWIDTH 520 0
DWIDTH 14 0
BBX 14 14 0 -2
BITMAP
1000
17f8
2120
2120
67f8
a528
2528
2528
26a8
2458
2408
2408
2408
2438
ENDCHAR
STARTCHAR 4FEA
ENCODING 20458
SWIDTH 520 0
DWIDTH 14 0
BBX 14 14 0 -2
BITMAP
1000
1ff8
2000
2000
6f78
a948
2948
2d68
2b58
2948
2948
2948
2948
2b58
ENDCHAR
STARTCHAR 4FEB
ENCODING 20459
SWIDTH 520 0
DWIDTH 14 0
BBX 14 14 0 -2
BITMAP
1080
1080
17f0
2080
2490
62a0
a080
2ff8
21c0
22a0
2490
2888
2080
2080
ENDCHAR
STARTCHAR 4FEC
ENCODING 20460
SWIDTH 520 0
DWIDTH 14 0
BBX 14 14 0 -2
BITMAP
1020
11a0
2e20
2220
6220
afa0
2220
2320
26a0
2650
2a50
2248
22f8
2208
ENDCHAR
STARTCHAR 4FED
ENCODING 20461
SWIDTH 520 0
DWIDTH 14 0
BBX 14 14 0 -2
BITMAP
1080
1080
1140
2220
2410
6be8
a000
2110
2090
2490
2220
2220
2040
2ff8
ENDCHAR
STARTCHAR 4FEE
ENCODING 20462
SWIDTH 520 0
DWIDTH 14 0
BBX 14 14 0 -2
BITMAP
1100
11f0
1210
2520
20c0
6920
ae58
2880
2b20
2848
2890
2320
20c0
2700
ENDCHAR
STARTCHAR 4FEF
ENCODING 20463
SWIDTH 520 0
DWIDTH 14 0
BBX 14 14 0 -2
BITMAP
1100
1080
27f8
2490
6490
a510
2778
2510
2590
2550
2510
2510
2510
2970
ENDCHAR
STARTCHAR 4FF0
ENCODING 20464
SWIDTH 520 0
DWIDTH 14 0
BBX 14 14 0 -2
BITMAP
1100
1e00
2278
2248
6f48
a248
2248
2748
26c8
2a48
2278
2248
2200
2200
ENDCHAR
STARTCHAR 4FF1
ENCODING 20465
SWIDTH 520 0
DWIDTH 14 0
BBX 14 14 0 -2
BITMAP
1000
17f0
1410
27f0
2410
67f0
a410
27f0
2410
2ff8
2000
2220
2410
2808
ENDCHAR
STARTCHAR 4FF2
ENCODING 20466
SWIDTH 520 0
DWIDTH 14 0
BBX 14 14 0 -2
BITMAP
2820
2420
2020
5f78
4028
ca28
5128
4228
4a48
4448
4448
4a88
4a88
5130
ENDCHAR
STARTCHAR 4FF3
ENCODING 20467
SWIDTH 520 0
DWIDTH 14 0
BBX 14 14 0 -2
BITMAP
1240
1240
1240
2e78
2240
6240
ae70
2240
2240
2e78
2240
2240
2240
2240
ENDCHAR
STARTCHAR 4FF4
ENCODING 20468
SWIDTH 520 0
DWIDTH 14 0
BBX 14 14 0 -2
BITMAP
1140
1120
1170
2780
20a0
6048
a1a8
2618
2120
2170
27a0
2040
21a8
2618
ENDCHAR
STARTCHAR 4FF5
ENCODING 20469
SWIDTH 520 0
DWIDTH 14 0
BBX 14 14 0 -2
BITMAP
1080
1080
17f0
2080
27f0
6080
aff8
2100
2110
22a0
2640
2aa0
2318
2200
ENDCHAR
STARTCHAR 4FF6
ENCODING 20470
SWIDTH 520 0
DWIDTH 14 0
BBX 14 14 0 -2
BITMAP
1200
1270
1350
2250
2250
6fd0
a050
2250
2b20
2aa0
32a0
2250
2250
2e88
ENDCHAR
STARTCHAR 4FF7
ENCODING 20471
SWIDTH 520 0
DWIDTH 14 0
BBX 14 14 0 -2
BITMAP
2000
2ef8
2aa8
4aa8
4aa8
cea8
4aa8
4af8
4e80
4a80
4a80
4a88
4a88
5678
ENDCHAR
STARTCHAR 4FF8
ENCODING 20472
SWIDTH 520 0
DWIDTH 14 0
BBX 14 14 0 -2
BITMAP
1080
17f0
1080
23e0
2100
6ff8
a220
2490
2be8
2080
2080
27f0
2080
2080
ENDCHAR
STARTCHAR 4FF9
ENCODING 20473
SWIDTH 520 0
DWIDTH 14 0
BBX 14 14 0 -2
BITMAP
1000
17f8
2120
2120
6120
a738
2408
2408
2408
2738
2120
2120
2120
2ff8
ENDCHAR
STARTCHAR 4FFA
ENCODING 20474
SWIDTH 520 0
DWIDTH 14 0
BBX 14 14 0 -2
BITMAP
1080
1080
2ff8
2220
6490
a888
27f0
2490
27f0
2490
27f0
2488
2088
2078
ENDCHAR
STARTCHAR 4FFB
ENCODING 20475
SWIDTH 520 0
DWIDTH 14 0
BBX 14 14 0 -2
BITMAP
1200
13f0
2620
2940
6080
a360
2c18
27f0
2490
27f0
2490
2490
27f0
2410
ENDCHAR
STARTCHAR 4FFC
ENCODING 20476
SWIDTH 520 0
DWIDTH 14 0
BBX 14 14 0 -2
BITMAP
1100
1080
2ff8
2200
6410
aff8
2008
27f0
2410
27f0
2410
27f0
2410
2470
ENDCHAR
STARTCHAR 4FFD
ENCODING 20477
SWIDTH 520 0
DWIDTH 14 0
BBX 14 14 0 -2
BITMAP
1020
11a0
1620
2478
2488
6410
a7a0
2520
2520
2520
2550
2550
2550
2988
ENDCHAR
STARTCHAR 4FFE
ENCODING 20478
SWIDTH 520 0
DWIDTH 14 0
BBX 14 14 0 -2
BITMAP
1080
1100
17f0
2490
2490
67f0
a490
2490
27f0
2140
2240
2ff8
2040
2040
ENDCHAR
STARTCHAR 4FFF
ENCODING 20479
SWIDTH 520 0
DWIDTH 14 0
BBX 14 14 0 -2
BITMAP
1080
10f0
2080
27f8
6488
a4e0
2780
2490
2470
2400
25e0
2520
2928
2218
ENDCHAR
STARTCHAR 5000
ENCODING 20480
SWIDTH 520 0
DWIDTH 14 0
BBX 14 14 0 -2
BITMAP
1000
13f0
1200
23e0
2200
63e0
a200
2ff8
2490
24a0
2440
2420
2510
2608
ENDCHAR
STARTCHAR 5001
ENCODING 20481
SWIDTH 520 0
DWIDTH 14 0
BBX 14 14 0 -2
BITMAP
1400
1400
2770
2a50
6250
a250
2250
2f50
2250
2250
2250
2570
2550
2800
ENDCHAR
STARTCHAR 5002
ENCODING 20482
SWIDTH 520 0
DWIDTH 14 0
BBX 14 14 0 -2
BITMAP
1110
1220
1770
2220
2220
6220
a220
2f78
2220
2220
2220
2220
2220
2420
ENDCHAR
STARTCHAR 5003
ENCODING 20483
SWIDTH 520 0
DWIDTH 14 0
BBX 14 14 0 -2
BITMAP
1220
1220
13b0
24a8
2aa0
6120
a2a0
2478
2800
23f0
2210
2210
23f0
2210
ENDCHAR
STARTCHAR 5004
ENCODING 20484
SWIDTH 520 0
DWIDTH 14 0
BBX 14 14 0 -2
BITMAP
1010
1320
10c0
2120
2290
67f8
a100
23f0
2610
2bf0
2210
23f0
2210
2270
ENDCHAR
STARTCHAR 5005
ENCODING 20485
SWIDTH 520 0
DWIDTH 14 0
BBX 14 14 0 -2
BITMAP
1100
1080
1ff8
2000
2220
6220
a550
2888
2000
2080
2ff8
2080
2080
2080
ENDCHAR
STARTCHAR 5006
ENCODING 20486
SWIDTH 520 0
DWIDTH 14 0
BBX 14 14 0 -2
BITMAP
1000
17f8
2080
2080
6ff8
a888
2888
2cc8
2aa8
2dd8
2888
2888
2888
2838
ENDCHAR
STARTCHAR 5007
ENCODING 20487
SWIDTH 520 0
DWIDTH 14 0
BBX 14 14 0 -2
BITMAP
1100
1080
2ff0
2810
6400
a470
2750
2950
3550
2570
2240
2250
2450
2830
ENDCHAR
STARTCHAR 5008
ENCODING 20488
SWIDTH 520 0
DWIDTH 14 0
BBX 14 14 0 -2
BITMAP
1080
1080
27f0
2080
6490
a490
2aa8
2080
21c0
22a0
2490
2888
2080
2080
ENDCHAR
STARTCHAR 5009
ENCODING 20489
SWIDTH 520 0
DWIDTH 14 0
BBX 14 14 0 -2
BITMAP
0200
0500
0880
3260
dfd8
1040
1fc0
1040
1fc0
2000
3fe0
5020
9fe0
1020
ENDCHAR
STARTCHAR 500A
ENCODING 20490
SWIDTH 520 0
DWIDTH 14 0
BBX 14 14 0 -2
BITMAP
1120
1120
2210
2488
6120
a210
27f8
2008
2080
2050
2548
2508
2920
20e0
ENDCHAR
STARTCHAR 500B
ENCODING 20491
SWIDTH 520 0
DWIDTH 14 0
BBX 14 14 0 -2
BITMAP
1000
1ff8
2888
2888
6ff8
a888
2888
2be8
2a28
2a28
2be8
2808
2ff8
2808
ENDCHAR
STARTCHAR 500C
ENCODING 20492
SWIDTH 520 0
DWIDTH 14 0
BBX 14 14 0 -2
BITMAP
1100
1080
2ff8
2808
67e0
a420
2420
27e0
2400
27f0
2410
2410
27f0
2410
ENDCHAR
STARTCHAR 500D
ENCODING 20493
SWIDTH 520 0
DWIDTH 14 0
BBX 14 14 0 -2
BITMAP
1100
1080
17f0
2000
2220
6140
aff8
2000
2000
27f0
2410
2410
27f0
2410
ENDCHAR
STARTCHAR 500E
ENCODING 20494
SWIDTH 520 0
DWIDTH 14 0
BBX 14 14 0 -2
BITMAP
1140
1140
17f0
2550
2550
6550
a7f0
2550
2550
2550
2ff8
2140
2220
2410
ENDCHAR
STARTCHAR 500F
ENCODING 20495
SWIDTH 520 0
DWIDTH 14 0
BBX 14 14 0 -2
BITMAP
1100
11f0
1210
2520
20c0
6920
ae18
28a0
2890
2ff8
2880
2140
2220
2410
ENDCHAR
STARTCHAR 5010
ENCODING 20496
SWIDTH 520 0
DWIDTH 14 0
BBX 14 14 0 -2
BITMAP
1100
11f0
1210
2520
20c0
6920
ae18
2840
2948
2950
2a40
20a0
2110
2608
ENDCHAR
STARTCHAR 5011
ENCODING 20497
SWIDTH 520 0
DWIDTH 14 0
BBX 14 14 0 -2
BITMAP
1000
1f78
2948
2f78
6948
af78
2808
2808
2808
2808
2808
2808
2808
2838
ENDCHAR
STARTCHAR 5012
ENCODING 20498
SWIDTH 520 0
DWIDTH 14 0
BBX 14 14 0 -2
BITMAP
1008
1f88
2208
2228
64a8
afa8
2228
2228
2fa8
2228
2208
2388
2e08
2038
ENDCHAR
STARTCHAR 5013
ENCODING 20499
SWIDTH 520 0
DWIDTH 14 0
BBX 14 14 0 -2
BITMAP
1080
1290
12a0
2480
2140
6220
a410
2080
2290
22a0
2480
2140
2220
2418
ENDCHAR
STARTCHAR 5014
ENCODING 20500
SWIDTH 520 0
DWIDTH 14 0
BBX 14 14 0 -2
BITMAP
1000
17f8
1408
2408
27f8
6440
a548
2548
25f8
2440
2548
2948
29f8
3008
ENDCHAR
STARTCHAR 5015
ENCODING 20501
SWIDTH 520 0
DWIDTH 14 0
BBX 14 14 0 -2
BITMAP
1070
1780
1080
2080
27f0
62a0
a2a0
2ff8
22a0
22a0
27f0
2080
2080
27f0
ENDCHAR
STARTCHAR 5016
ENCODING 20502
SWIDTH 520 0
DWIDTH 14 0
BBX 14 14 0 -2
BITMAP
1080
1080
17f0
2080
2ff8
6220
a140
27f0
2080
2080
2ff8
2080
2080
2080
ENDCHAR
STARTCHAR 5017
ENCODING 20503
SWIDTH 520 0
DWIDTH 14 0
BBX 14 14 0 -2
BITMAP
2000
2f78
2948
4948
4948
cf78
4948
4948
4f78
4948
4948
4948
4948
5398
ENDCHAR
STARTCHAR 5018
ENCODING 20504
SWIDTH 520 0
DWIDTH 14 0
BBX 14 14 0 -2
BITMAP
1080
1488
1290
2080
27f8
6408
a5e8
2528
2528
2528
25e8
2408
2408
2438
ENDCHAR
STARTCHAR 5019
ENCODING 20505
SWIDTH 520 0
DWIDTH 14 0
BBX 14 14 0 -2
BITMAP
1000
11f0
2010
2810
6bf8
a900
29f8
2a40
2840
2bf8
2840
28a0
2110
2208
ENDCHAR
STARTCHAR 501A
ENCODING 20506
SWIDTH 520 0
DWIDTH 14 0
BBX 14 14 0 -2
BITMAP
1080
17f0
1140
2220
2410
6ff8
a010
27d0
2450
2450
27d0
2410
2010
2070
ENDCHAR
STARTCHAR 501B
ENCODING 20507
SWIDTH 520 0
DWIDTH 14 0
BBX 14 14 0 -2
BITMAP
1220
1220
27f0
2220
6220
a3e0
2220
23e0
2220
2220
27f8
2000
2220
2410
ENDCHAR
STARTCHAR 501C
ENCODING 20508
SWIDTH 520 0
DWIDTH 14 0
BBX 14 14 0 -2
BITMAP
1000
17f8
2488
2488
65e8
a488
27f8
2408
25e8
2528
2528
25e8
2408
2838
ENDCHAR
STARTCHAR 501D
ENCODING 20509
SWIDTH 520 0
DWIDTH 14 0
BBX 14 14 0 -2
BITMAP
1040
1040
fc40
1040
7c40
4440
7c40
4440
7ca0
10a0
fca0
1110
1110
1208
ENDCHAR
STARTCHAR 501E
ENCODING 20510
SWIDTH 520 0
DWIDTH 14 0
BBX 14 14 0 -2
BITMAP
1100
1080
2ff8
2000
6000
a7f0
2410
2410
27f0
2080
22a0
2490
2888
2380
ENDCHAR
STARTCHAR 501F
ENCODING 20511
SWIDTH 520 0
DWIDTH 14 0
BBX 14 14 0 -2
BITMAP
1220
1220
27f0
2220
6220
aff8
2000
27f0
2410
2410
27f0
2410
2410
27f0
ENDCHAR
STARTCHAR 5020
ENCODING 20512
SWIDTH 520 0
DWIDTH 14 0
BBX 14 14 0 -2
BITMAP
1240
1220
2400
27f8
6c40
b440
27f0
2440
2440
27f0
2440
2440
27f8
2400
ENDCHAR
STARTCHAR 5021
ENCODING 20513
SWIDTH 520 0
DWIDTH 14 0
BBX 14 14 0 -2
BITMAP
1000
17f0
1410
27f0
2410
67f0
a000
2ff8
2808
2ff8
2808
2808
2ff8
2808
ENDCHAR
STARTCHAR 5022
ENCODING 20514
SWIDTH 520 0
DWIDTH 14 0
BBX 14 14 0 -2
BITMAP
1080
1080
27f8
2080
67f0
a090
2ff8
2090
27f0
2080
24f0
2480
2a80
31f8
ENDCHAR
STARTCHAR 5023
ENCODING 20515
SWIDTH 520 0
DWIDTH 14 0
BBX 14 14 0 -2
BITMAP
1440
1240
2240
2f78
6490
a450
2750
2550
2550
2520
2920
2950
3350
2088
ENDCHAR
STARTCHAR 5024
ENCODING 20516
SWIDTH 520 0
DWIDTH 14 0
BBX 14 14 0 -2
BITMAP
1080
1080
27f8
2080
6bf0
aa10
2bf0
2a10
2bf0
2a10
2a10
2bf0
2800
2ff8
ENDCHAR
STARTCHAR 5025
ENCODING 20517
SWIDTH 520 0
DWIDTH 14 0
BBX 14 14 0 -2
BITMAP
1100
1080
17f8
2408
2120
6210
a408
2000
23f0
2080
2080
2080
2080
27f8
ENDCHAR
STARTCHAR 5026
ENCODING 20518
SWIDTH 520 0
DWIDTH 14 0
BBX 14 14 0 -2
BITMAP
1080
1490
12a0
27f0
2100
6ff8
a220
2410
2be8
2220
2220
22c0
2210
21f0
ENDCHAR
STARTCHAR 5027
ENCODING 20519
SWIDTH 520 0
DWIDTH 14 0
BBX 14 14 0 -2
BITMAP
1080
1040
17f8
2408
2000
63f0
a000
2000
27f8
2040
2250
2448
2848
21c0
ENDCHAR
STARTCHAR 5028
ENCODING 20520
SWIDTH 520 0
DWIDTH 14 0
BBX 14 14 0 -2
BITMAP
1000
17f0
1410
2410
27f0
6440
a440
27f8
2440
2440
25f0
2910
2910
31f0
ENDCHAR
STARTCHAR 5029
ENCODING 20521
SWIDTH 520 0
DWIDTH 14 0
BBX 14 14 0 -2
BITMAP
1080
17f0
1080
27f0
2080
6ff8
a000
27f0
2410
27f0
2410
27f0
2410
2470
ENDCHAR
STARTCHAR 502A
ENCODING 20522
SWIDTH 520 0
DWIDTH 14 0
BBX 14 14 0 -2
BITMAP
1100
1670
1410
2410
2770
6410
a410
27f0
2240
2240
2240
2448
2448
2838
ENDCHAR
STARTCHAR 502B
ENCODING 20523
SWIDTH 520 0
DWIDTH 14 0
BBX 14 14 0 -2
BITMAP
1080
1140
1220
2410
2be8
6000
a7f0
2550
2550
27f0
2550
2550
2510
2470
ENDCHAR
STARTCHAR 502C
ENCODING 20524
SWIDTH 520 0
DWIDTH 14 0
BBX 14 14 0 -2
BITMAP
1080
1080
10f8
2080
27f0
6410
a7f0
2410
27f0
2080
2ff8
2080
2080
2080
ENDCHAR
STARTCHAR 502D
ENCODING 20525
SWIDTH 520 0
DWIDTH 14 0
BBX 14 14 0 -2
BITMAP
1060
1380
1080
27f0
21c0
62a0
a498
2100
2ff8
2120
2340
20c0
2320
2c10
ENDCHAR
STARTCHAR 502E
ENCODING 20526
SWIDTH 520 0
DWIDTH 14 0
BBX 14 14 0 -2
BITMAP
1000
17f0
2490
27f0
6490
a7f0
2080
2ff8
2080
21c0
22a0
2490
2888
2080
ENDCHAR
STARTCHAR 502F
ENCODING 20527
SWIDTH 520 0
DWIDTH 14 0
BBX 14 14 0 -2
BITMAP
1400
14a0
24a0
3ea0
6510
a510
2e08
2d40
3440
2480
24a0
2510
25f0
2410
ENDCHAR
STARTCHAR 5030
ENCODING 20528
SWIDTH 520 0
DWIDTH 14 0
BBX 14 14 0 -2
BITMAP
1080
1080
17f0
2080
2080
6ff8
a220
2510
29e8
2220
2540
2080
2360
2c18
ENDCHAR
STARTCHAR 5031
ENCODING 20529
SWIDTH 520 0
DWIDTH 14 0
BBX 14 14 0 -2
BITMAP
1000
17f0
1410
27f0
2410
67f0
a000
2448
2450
2760
2440
2548
2648
2438
ENDCHAR
STARTCHAR 5032
ENCODING 20530
SWIDTH 520 0
DWIDTH 14 0
BBX 14 14 0 -2
BITMAP
1080
1080
2ff8
2080
67f0
a490
27f0
2490
27f0
21c0
22a0
2490
2888
2080
ENDCHAR
STARTCHAR 5033
ENCODING 20531
SWIDTH 520 0
DWIDTH 14 0
BBX 14 14 0 -2
BITMAP
1080
17f8
2080
27f0
6490
a7f0
2080
27f0
2090
2ff8
2090
27f0
2080
2380
ENDCHAR
STARTCHAR 5034
ENCODING 20532
SWIDTH 520 0
DWIDTH 14 0
BBX 14 14 0 -2
BITMAP
1080
1080
27f8
2140
6220
a490
2be8
2080
2220
2ff8
2220
2220
2420
2820
ENDCHAR
STARTCHAR 5035
ENCODING 20533
SWIDTH 520 0
DWIDTH 14 0
BBX 14 14 0 -2
BITMAP
1020
13b0
1028
2020
2ff8
6120
a120
2520
25a0
2520
2528
25a8
2e18
2008
ENDCHAR
STARTCHAR 5036
ENCODING 20534
SWIDTH 520 0
DWIDTH 14 0
BBX 14 14 0 -2
BITMAP
1000
17f0
1410
27f0
2410
67f0
a410
27f0
2000
2ff8
2000
2220
2410
2808
ENDCHAR
STARTCHAR 5037
ENCODING 20535
SWIDTH 520 0
DWIDTH 14 0
BBX 14 14 0 -2
BITMAP
1080
1080
27f8
2140
6220
ac18
23e0
2000
27f0
2080
2490
2488
2888
2380
ENDCHAR
STARTCHAR 5038
ENCODING 20536
SWIDTH 520 0
DWIDTH 14 0
BBX 14 14 0 -2
BITMAP
1070
1780
2110
2490
6220
a080
2080
27f8
2080
21c0
22a0
2490
2888
2080
ENDCHAR
STARTCHAR 5039
ENCODING 20537
SWIDTH 520 0
DWIDTH 14 0
BBX 14 14 0 -2
BITMAP
1080
1140
1220
2410
2be8
6080
a7f0
2490
2490
27f0
2080
2140
2220
2c18
ENDCHAR
STARTCHAR 503A
ENCODING 20538
SWIDTH 520 0
DWIDTH 14 0
BBX 14 14 0 -2
BITMAP
1080
17f0
1080
27f0
2080
6ff8
a000
27f0
2410
2490
2490
2140
2220
2410
ENDCHAR
STARTCHAR 503B
ENCODING 20539
SWIDTH 520 0
DWIDTH 14 0
BBX 14 14 0 -2
BITMAP
1000
1ff8
2548
2548
6748
a550
2550
2748
2548
25c8
2f48
2170
2140
2140
ENDCHAR
STARTCHAR 503C
ENCODING 20540
SWIDTH 520 0
DWIDTH 14 0
BBX 14 14 0 -2
BITMAP
1080
1080
2ff8
2080
67f0
a410
27f0
2410
27f0
2410
27f0
2410
2410
2ff8
ENDCHAR
STARTCHAR 503D
ENCODING 20541
SWIDTH 520 0
DWIDTH 14 0
BBX 14 14 0 -2
BITMAP
1080
1140
1220
25d0
2888
6080
a7f8
2080
2080
27f0
2410
2410
27f0
2410
ENDCHAR
STARTCHAR 503E
ENCODING 20542
SWIDTH 520 0
DWIDTH 14 0
BBX 14 14 0 -2
BITMAP
1000
13f8
2840
2880
69f0
af10
2950
2950
2b50
2d50
2950
20a0
2110
2208
ENDCHAR
STARTCHAR 503F
ENCODING 20543
SWIDTH 520 0
DWIDTH 14 0
BBX 14 14 0 -2
BITMAP
1100
1080
17f0
2220
2140
6ff8
a100
2100
2ff8
2220
2640
2180
2260
2c10
ENDCHAR
STARTCHAR 5040
ENCODING 20544
SWIDTH 520 0
DWIDTH 14 0
BBX 14 14 0 -2
BITMAP
1220
1220
27f8
2220
6080
a7f0
2490
2490
2490
2ff8
2140
2220
2410
2808
ENDCHAR
STARTCHAR 5041
ENCODING 20545
SWIDTH 520 0
DWIDTH 14 0
BBX 14 14 0 -2
BITMAP
1070
1780
2110
2490
6220
a080
27f0
2490
27f0
2490
2ff8
2410
2410
2470
ENDCHAR
STARTCHAR 5042
ENCODING 20546
SWIDTH 520 0
DWIDTH 14 0
BBX 14 14 0 -2
BITMAP
1420
1240
2ff8
2000
6f10
a950
2950
2f50
2950
2950
2f50
2910
2910
2b70
ENDCHAR
STARTCHAR 5043
ENCODING 20547
SWIDTH 520 0
DWIDTH 14 0
BBX 14 14 0 -2
BITMAP
1000
17f8
1400
25f0
2510
65f0
a510
25f0
2440
27f8
2490
2460
2590
27f8
ENDCHAR
STARTCHAR 5044
ENCODING 20548
SWIDTH 520 0
DWIDTH 14 0
BBX 14 14 0 -2
BITMAP
1000
17f0
2080
2100
67f0
a550
2550
2550
24b0
2080
2ff8
2140
2220
2c18
ENDCHAR
STARTCHAR 5045
ENCODING 20549
SWIDTH 520 0
DWIDTH 14 0
BBX 14 14 0 -2
BITMAP
1070
1780
1080
27f8
2080
67f0
a490
27f0
2490
27f0
2080
27f0
2080
2ff8
ENDCHAR
STARTCHAR 5046
ENCODING 20550
SWIDTH 520 0
DWIDTH 14 0
BBX 14 14 0 -2
BITMAP
1080
17f0
1080
23e0
2100
6ff8
a220
2410
2be8
2220
23e0
2220
23e0
2220
ENDCHAR
STARTCHAR 5047
ENCODING 20551
SWIDTH 520 0
DWIDTH 14 0
BBX 14 14 0 -2
BITMAP
1000
1770
2510
2510
6770
a400
2400
2770
2450
2450
2720
2420
2450
2488
ENDCHAR
STARTCHAR 5048
ENCODING 20552
SWIDTH 520 0
DWIDTH 14 0
BBX 14 14 0 -2
BITMAP
1000
17e0
1420
27e0
2420
67e0
a200
27f0
2890
2550
2410
27d0
2010
2060
ENDCHAR
STARTCHAR 5049
ENCODING 20553
SWIDTH 520 0
DWIDTH 14 0
BBX 14 14 0 -2
BITMAP
1080
17e0
2120
2ff8
6000
a7f0
2410
27f0
2080
27f0
2880
2ff8
2080
2080
ENDCHAR
STARTCHAR 504A
ENCODING 20554
SWIDTH 520 0
DWIDTH 14 0
BBX 14 14 0 -2
BITMAP
1038
1fc0
2080
27f0
6490
a7f0
2080
2ff8
2888
28a8
2be8
2808
2808
2838
ENDCHAR
STARTCHAR 504B
ENCODING 20555
SWIDTH 520 0
DWIDTH 14 0
BBX 14 14 0 -2
BITMAP
1000
17f0
2410
27f0
6400
a510
24a0
25f0
24a0
24a0
27f8
28a0
2920
3220
ENDCHAR
STARTCHAR 504C
ENCODING 20556
SWIDTH 520 0
DWIDTH 14 0
BBX 14 14 0 -2
BITMAP
1220
1220
1ff8
2220
22a0
6080
aff8
2100
2200
27f0
2a10
2210
23f0
2210
ENDCHAR
STARTCHAR 504D
ENCODING 20557
SWIDTH 520 0
DWIDTH 14 0
BBX 14 14 0 -2
BITMAP
1000
13f0
1210
23f0
2210
63f0
a000
27f8
2040
2240
2270
2240
2540
28f8
ENDCHAR
STARTCHAR 504E
ENCODING 20558
SWIDTH 520 0
DWIDTH 14 0
BBX 14 14 0 -2
BITMAP
17f0
1490
1490
27f0
2490
6490
a7f0
2000
2ff8
2510
24a0
2440
2620
2418
ENDCHAR
STARTCHAR 504F
ENCODING 20559
SWIDTH 520 0
DWIDTH 14 0
BBX 14 14 0 -2
BITMAP
1100
1080
17f0
2410
2410
67f0
a400
27f0
2d50
2d50
37f0
2550
2550
2430
ENDCHAR
STARTCHAR 5050
ENCODING 20560
SWIDTH 520 0
DWIDTH 14 0
BBX 14 14 0 -2
BITMAP
1080
17f8
1210
2120
27f8
6420
a440
2590
2420
2448
2590
2420
2840
3180
ENDCHAR
STARTCHAR 5051
ENCODING 20561
SWIDTH 520 0
DWIDTH 14 0
BBX 14 14 0 -2
BITMAP
2000
3ff0
5010
50d0
d710
5110
57d0
5550
57d0
5110
5150
57d0
5058
6008
ENDCHAR
STARTCHAR 5052
ENCODING 20562
SWIDTH 520 0
DWIDTH 14 0
BBX 14 14 0 -2
BITMAP
1000
17e0
1420
27e0
2420
67e0
a000
2ff8
2400
2ff0
3250
2490
2910
2260
ENDCHAR
STARTCHAR 5053
ENCODING 20563
SWIDTH 520 0
DWIDTH 14 0
BBX 14 14 0 -2
BITMAP
1000
17f8
1408
2408
27f8
6400
a5f8
2480
2510
25f8
2440
25f8
2440
2bf8
ENDCHAR
STARTCHAR 5054
ENCODING 20564
SWIDTH 520 0
DWIDTH 14 0
BBX 14 14 0 -2
BITMAP
1000
1770
2550
2550
6770
a000
23e0
2000
2ff8
2200
23f0
2010
2010
2060
ENDCHAR
STARTCHAR 5055
ENCODING 20565
SWIDTH 520 0
DWIDTH 14 0
BBX 14 14 0 -2
BITMAP
1448
1450
1760
2440
2548
6648
a438
2100
27f0
2410
27f0
2410
27f0
2410
ENDCHAR
STARTCHAR 5056
ENCODING 20566
SWIDTH 520 0
DWIDTH 14 0
BBX 14 14 0 -2
BITMAP
1080
1090
17d0
20a0
20c0
6ff8
a100
2200
27f0
2a10
23f0
2210
23f0
2210
ENDCHAR
STARTCHAR 5057
ENCODING 20567
SWIDTH 520 0
DWIDTH 14 0
BBX 14 14 0 -2
BITMAP
1080
1290
1288
24a8
2040
6080
a3f0
2e10
23f0
2210
23f0
2210
23f0
2210
ENDCHAR
STARTCHAR 5058
ENCODING 20568
SWIDTH 520 0
DWIDTH 14 0
BBX 14 14 0 -2
BITMAP
1000
17f0
1410
2410
2410
67f0
a000
2000
2f78
2948
2948
2948
2f78
2948
ENDCHAR
STARTCHAR 5059
ENCODING 20569
SWIDTH 520 0
DWIDTH 14 0
BBX 14 14 0 -2
BITMAP
1100
1080
17f0
2220
2140
6ff8
a808
2080
27f0
2490
2490
24b0
2080
2080
ENDCHAR
STARTCHAR 505A
ENCODING 20570
SWIDTH 520 0
DWIDTH 14 0
BBX 14 14 0 -2
BITMAP
1480
1480
2480
2ef8
6510
a490
2e90
2a90
2aa0
2aa0
2a40
2ea0
2910
2208
ENDCHAR
STARTCHAR 505B
ENCODING 20571
SWIDTH 520 0
DWIDTH 14 0
BBX 14 14 0 -2
BITMAP
1070
1780
1080
2080
2ff8
6080
a2b0
2490
2490
26b0
2490
2490
27f0
2410
ENDCHAR
STARTCHAR 505C
ENCODING 20572
SWIDTH 520 0
DWIDTH 14 0
BBX 14 14 0 -2
BITMAP
1080
1ff8
1000
27f0
2410
67f0
a000
2ff8
2808
27f0
2040
2040
2040
21c0
ENDCHAR
STARTCHAR 505D
ENCODING 20573
SWIDTH 520 0
DWIDTH 14 0
BBX 14 14 0 -2
BITMAP
1240
1248
2e70
2240
6648
aa38
2000
27f0
2410
27f0
2410
27f0
2410
2470
ENDCHAR
STARTCHAR 505E
ENCODING 20574
SWIDTH 520 0
DWIDTH 14 0
BBX 14 14 0 -2
BITMAP
1120
1520
2ff8
2520
65e0
a400
27f0
2080
27f8
21c0
22a0
2490
2888
2080
ENDCHAR
STARTCHAR 505F
ENCODING 20575
SWIDTH 520 0
DWIDTH 14 0
BBX 14 14 0 -2
BITMAP
1080
1100
17f0
2410
27f0
6410
a7f0
2000
27f0
2080
27f0
2080
2080
2ff8
ENDCHAR
STARTCHAR 5060
ENCODING 20576
SWIDTH 520 0
DWIDTH 14 0
BBX 14 14 0 -2
BITMAP
1000
17f8
2140
27f0
6550
a550
27f0
2080
27f8
2120
2340
20c0
2120
2610
ENDCHAR
STARTCHAR 5061
ENCODING 20577
SWIDTH 520 0
DWIDTH 14 0
BBX 14 14 0 -2
BITMAP
1220
1220
27f0
2220
63e0
a220
23e0
2220
2ff8
2400
2520
2610
2400
27f0
ENDCHAR
STARTCHAR 5062
ENCODING 20578
SWIDTH 520 0
DWIDTH 14 0
BBX 14 14 0 -2
BITMAP
1120
1620
2220
22a8
6fa8
a2a8
22b0
2720
26a0
2a20
2250
2250
2290
2308
ENDCHAR
STARTCHAR 5063
ENCODING 20579
SWIDTH 520 0
DWIDTH 14 0
BBX 14 14 0 -2
BITMAP
1100
1080
27f0
2000
6410
a220
2ff8
2000
27f0
2410
27f0
2410
27f0
2410
ENDCHAR
STARTCHAR 5064
ENCODING 20580
SWIDTH 520 0
DWIDTH 14 0
BBX 14 14 0 -2
BITMAP
1210
1120
17f8
2120
2120
67f8
a528
2528
2618
2408
27f8
2408
27f8
2408
ENDCHAR
STARTCHAR 5065
ENCODING 20581
SWIDTH 520 0
DWIDTH 14 0
BBX 14 14 0 -2
BITMAP
1040
1040
2ef0
2250
63f8
a450
26f0
2240
22f0
2240
2af8
2440
2b40
30f8
ENDCHAR
STARTCHAR 5066
ENCODING 20582
SWIDTH 520 0
DWIDTH 14 0
BBX 14 14 0 -2
BITMAP
1000
17f8
1088
24f0
2480
6bf8
b000
27f0
2410
27f0
2410
27f0
2410
2470
ENDCHAR
STARTCHAR 5067
ENCODING 20583
SWIDTH 520 0
DWIDTH 14 0
BBX 14 14 0 -2
BITMAP
1100
1ff8
1240
2420
2918
63e0
ac40
2280
2340
2cf0
2110
26a0
20c0
2f00
ENDCHAR
STARTCHAR 5068
ENCODING 20584
SWIDTH 520 0
DWIDTH 14 0
BBX 14 14 0 -2
BITMAP
2240
2250
2b60
4a40
4a48
cb38
5c00
4080
5ff8
41c0
42a0
4490
5888
4080
ENDCHAR
STARTCHAR 5069
ENCODING 20585
SWIDTH 520 0
DWIDTH 14 0
BBX 14 14 0 -2
BITMAP
1200
13e0
2420
2840
67f0
a410
27f0
2410
27f0
2410
27f0
2220
2410
2808
ENDCHAR
STARTCHAR 506A
ENCODING 20586
SWIDTH 520 0
DWIDTH 14 0
BBX 14 14 0 -2
BITMAP
1000
17f0
2000
23e0
6220
a220
23e0
2000
27f0
2490
27f0
2490
27f0
2410
ENDCHAR
STARTCHAR 506B
ENCODING 20587
SWIDTH 520 0
DWIDTH 14 0
BBX 14 14 0 -2
BITMAP
1240
1240
25f0
2840
6240
a3f8
2420
2c20
27f8
2420
2520
24a0
2420
24e0
ENDCHAR
STARTCHAR 506C
ENCODING 20588
SWIDTH 520 0
DWIDTH 14 0
BBX 14 14 0 -2
BITMAP
1100
1100
13f8
24a8
2328
62c8
a4a8
2118
2080
2050
2548
2508
2920
20e0
ENDCHAR
STARTCHAR 506D
ENCODING 20589
SWIDTH 520 0
DWIDTH 14 0
BBX 14 14 0 -2
BITMAP
1000
17f8
1080
2100
27f8
6528
a528
25e8
2528
25e8
2528
2528
27f8
2408
ENDCHAR
STARTCHAR 506E
ENCODING 20590
SWIDTH 520 0
DWIDTH 14 0
BBX 14 14 0 -2
BITMAP
1000
13f0
1210
23f0
2000
67f8
a210
23f0
2210
23f0
2210
2278
2790
2010
ENDCHAR
STARTCHAR 506F
ENCODING 20591
SWIDTH 520 0
DWIDTH 14 0
BBX 14 14 0 -2
BITMAP
1080
1040
27f8
2000
63f0
a210
2210
23f0
2080
2148
2350
2520
2990
2108
ENDCHAR
STARTCHAR 5070
ENCODING 20592
SWIDTH 520 0
DWIDTH 14 0
BBX 14 14 0 -2
BITMAP
1200
1f78
2228
2f28
6228
af48
2298
2200
2080
2ff8
2080
2140
2220
2c18
ENDCHAR
STARTCHAR 5071
ENCODING 20593
SWIDTH 520 0
DWIDTH 14 0
BBX 14 14 0 -2
BITMAP
1070
17c0
2440
2440
67f8
a440
25f0
2510
25f0
2510
25f0
2510
25f0
2910
ENDCHAR
STARTCHAR 5072
ENCODING 20594
SWIDTH 520 0
DWIDTH 14 0
BBX 14 14 0 -2
BITMAP
1000
17f0
2490
2490
67f0
a490
2490
27f0
2100
2090
2a88
2a08
3220
21e0
ENDCHAR
STARTCHAR 5073
ENCODING 20595
SWIDTH 520 0
DWIDTH 14 0
BBX 14 14 0 -2
BITMAP
1080
1490
2490
27f0
6000
aff8
2080
2100
27f0
2550
2550
2550
2550
2430
ENDCHAR
STARTCHAR 5074
ENCODING 20596
SWIDTH 520 0
DWIDTH 14 0
BBX 14 14 0 -2
BITMAP
1008
1788
2488
24a8
67a8
a4a8
27a8
24a8
24a8
27a8
2008
2508
2488
28b8
ENDCHAR
STARTCHAR 5075
ENCODING 20597
SWIDTH 520 0
DWIDTH 14 0
BBX 14 14 0 -2
BITMAP
1080
1080
20f8
2080
67f0
a410
27f0
2410
27f0
2410
27f0
2000
2220
2410
ENDCHAR
STARTCHAR 5076
ENCODING 20598
SWIDTH 520 0
DWIDTH 14 0
BBX 14 14 0 -2
BITMAP
1000
17f0
2490
27f0
6490
a7f0
2080
2ff8
2888
28a8
2be8
2808
2808
2838
ENDCHAR
STARTCHAR 5077
ENCODING 20599
SWIDTH 520 0
DWIDTH 14 0
BBX 14 14 0 -2
BITMAP
1080
1140
2220
2410
6be8
a000
2788
24a8
27a8
24a8
27a8
24a8
2488
25b8
ENDCHAR
STARTCHAR 5078
ENCODING 20600
SWIDTH 520 0
DWIDTH 14 0
BBX 14 14 0 -2
BITMAP
1380
1140
2220
2410
6be8
a000
27a8
24a8
27a8
24d0
27d0
24a8
24a8
25a8
ENDCHAR
STARTCHAR 5079
ENCODING 20601
SWIDTH 520 0
DWIDTH 14 0
BBX 14 14 0 -2
BITMAP
1100
11f0
1210
2520
20c0
6920
ae18
2800
2bf0
2a90
2bf0
2290
23f0
2210
ENDCHAR
STARTCHAR 507A
ENCODING 20602
SWIDTH 520 0
DWIDTH 14 0
BBX 14 14 0 -2
BITMAP
1220
1220
13b0
24a8
2aa0
6120
a2a0
2478
2800
23f0
2210
23f0
2210
23f0
ENDCHAR
STARTCHAR 507B
ENCODING 20603
SWIDTH 520 0
DWIDTH 14 0
BBX 14 14 0 -2
BITMAP
1080
1490
12a0
27f8
22a0
6490
a008
2080
27f8
2120
2320
20c0
2120
2610
ENDCHAR
STARTCHAR 507C
ENCODING 20604
SWIDTH 520 0
DWIDTH 14 0
BBX 14 14 0 -2
BITMAP
1080
1080
10f8
2080
27f0
6010
aff0
2010
27f0
2080
24f0
2480
2a80
31f8
ENDCHAR
STARTCHAR 507D
ENCODING 20605
SWIDTH 520 0
DWIDTH 14 0
BBX 14 14 0 -2
BITMAP
1480
1280
2fe0
2120
6140
a3f0
2210
2420
27f8
2808
32a8
2558
2808
2030
ENDCHAR
STARTCHAR 507E
ENCODING 20606
SWIDTH 520 0
DWIDTH 14 0
BBX 14 14 0 -2
BITMAP
1080
17f0
1080
2220
2ff8
6220
a000
27f0
2410
2490
2490
2140
2220
2410
ENDCHAR
STARTCHAR 507F
ENCODING 20607
SWIDTH 520 0
DWIDTH 14 0
BBX 14 14 0 -2
BITMAP
1080
1490
22a0
2ff8
6808
a808
23e0
2000
2000
2ff8
2100
2220
27f0
2010
ENDCHAR
STARTCHAR 5080
ENCODING 20608
SWIDTH 520 0
DWIDTH 14 0
BBX 14 14 0 -2
BITMAP
1080
1100
27f0
2490
6490
a7f0
2490
2510
27f0
21a0
22d0
22f8
2488
2878
ENDCHAR
STARTCHAR 5081
ENCODING 20609
SWIDTH 520 0
DWIDTH 14 0
BBX 14 14 0 -2
BITMAP
1080
1280
14b0
2490
26b0
6490
a7f0
2080
27e0
2220
2140
2080
2140
2630
ENDCHAR
STARTCHAR 5082
ENCODING 20610
SWIDTH 520 0
DWIDTH 14 0
BBX 14 14 0 -2
BITMAP
1038
17c0
2470
2440
65f8
a548
2560
25c8
2538
2500
2ae0
2aa0
32a8
2518
ENDCHAR
STARTCHAR 5083
ENCODING 20611
SWIDTH 520 0
DWIDTH 14 0
BBX 14 14 0 -2
BITMAP
1080
17f0
2080
23f0
6080
aff8
2100
2220
27c0
2110
2ff8
2080
24a0
2990
ENDCHAR
STARTCHAR 5084
ENCODING 20612
SWIDTH 520 0
DWIDTH 14 0
BBX 14 14 0 -2
BITMAP
1080
1080
2ff8
2550
6220
a410
2ff8
2410
27f0
2410
27f0
2410
27f0
2410
ENDCHAR
STARTCHAR 5085
ENCODING 20613
SWIDTH 520 0
DWIDTH 14 0
BBX 14 14 0 -2
BITMAP
10a0
17f8
2080
27f0
6490
a7f0
2490
27f0
2490
2020
2ff8
2220
2120
2060
ENDCHAR
STARTCHAR 5086
ENCODING 20614
SWIDTH 520 0
DWIDTH 14 0
BBX 14 14 0 -2
BITMAP
1000
17f8
2440
2480
65f0
a510
25f0
2510
25f0
2440
2550
2948
2a48
30c0
ENDCHAR
STARTCHAR 5087
ENCODING 20615
SWIDTH 520 0
DWIDTH 14 0
BBX 14 14 0 -2
BITMAP
1120
1120
27f8
2120
6000
a7f8
2210
23f0
2210
23f0
2210
2278
2790
2010
ENDCHAR
STARTCHAR 5088
ENCODING 20616
SWIDTH 520 0
DWIDTH 14 0
BBX 14 14 0 -2
BITMAP
1000
17f8
1140
27f0
2550
6550
a7f0
2080
2080
27f8
21c0
22a0
2c98
2080
ENDCHAR
STARTCHAR 5089
ENCODING 20617
SWIDTH 520 0
DWIDTH 14 0
BBX 14 14 0 -2
BITMAP
1000
17f8
2400
25f0
6400
a7f8
2550
2520
2598
2520
27f8
2a20
3120
2060
ENDCHAR
STARTCHAR 508A
ENCODING 20618
SWIDTH 520 0
DWIDTH 14 0
BBX 14 14 0 -2
BITMAP
1000
13f0
1210
23f0
2000
67f8
a408
27f8
2408
27f8
2408
27f8
2210
2408
ENDCHAR
STARTCHAR 508B
ENCODING 20619
SWIDTH 520 0
DWIDTH 14 0
BBX 14 14 0 -2
BITMAP
1220
1ff8
2220
27f0
6220
aff8
2080
27f0
2490
27f0
2490
2ff8
2410
2470
ENDCHAR
STARTCHAR 508C
ENCODING 20620
SWIDTH 520 0
DWIDTH 14 0
BBX 14 14 0 -2
BITMAP
1000
17f8
2480
27f0
6480
a7f0
2480
27f8
2008
2aa8
2aa8
3008
2008
2030
ENDCHAR
STARTCHAR 508D
ENCODING 20621
SWIDTH 520 0
DWIDTH 14 0
BBX 14 14 0 -2
BITMAP
1080
1040
17f8
2210
2120
67f8
a488
2040
27f8
2100
21f0
2110
2210
2460
ENDCHAR
STARTCHAR 508E
ENCODING 20622
SWIDTH 520 0
DWIDTH 14 0
BBX 14 14 0 -2
BITMAP
1080
17f8
2080
27f0
6410
a7f0
2410
27f0
2410
27f0
2410
2ff8
2220
2410
ENDCHAR
STARTCHAR 508F
ENCODING 20623
SWIDTH 520 0
DWIDTH 14 0
BBX 14 14 0 -2
BITMAP
1080
1040
27f8
2440
65f0
a450
27f8
2450
25f0
2440
25f0
2510
2510
29f0
ENDCHAR
STARTCHAR 5090
ENCODING 20624
SWIDTH 520 0
DWIDTH 14 0
BBX 14 14 0 -2
BITMAP
1080
17f8
2000
23f0
6210
a3f0
2000
27f8
2408
25e8
2528
25e8
2408
2438
ENDCHAR
STARTCHAR 5091
ENCODING 20625
SWIDTH 520 0
DWIDTH 14 0
BBX 14 14 0 -2
BITMAP
1210
1210
2778
2910
6550
a278
2410
2890
27f8
21c0
22a0
2490
2888
2080
ENDCHAR
STARTCHAR 5092
ENCODING 20626
SWIDTH 520 0
DWIDTH 14 0
BBX 14 14 0 -2
BITMAP
1070
1780
2510
22a0
6100
a220
27c0
2120
27f0
2080
27f0
2140
2220
2418
ENDCHAR
STARTCHAR 5093
ENCODING 20627
SWIDTH 520 0
DWIDTH 14 0
BBX 14 14 0 -2
BITMAP
1100
1080
27f8
2408
67f8
a400
27b8
2488
26a8
2598
26a8
2488
2488
2998
ENDCHAR
STARTCHAR 5094
ENCODING 20628
SWIDTH 520 0
DWIDTH 14 0
BBX 14 14 0 -2
BITMAP
1220
1140
27f8
2140
67f0
a150
2ff8
2150
27f0
2140
2360
2550
2948
2140
ENDCHAR
STARTCHAR 5095
ENCODING 20629
SWIDTH 520 0
DWIDTH 14 0
BBX 14 14 0 -2
BITMAP
1080
1080
27f8
2508
6140
a220
27f8
2a40
23f0
2240
23f0
2240
23f8
2200
ENDCHAR
STARTCHAR 5096
ENCODING 20630
SWIDTH 520 0
DWIDTH 14 0
BBX 14 14 0 -2
BITMAP
1080
1140
1220
2498
2be0
6220
a3e0
2220
23e0
2400
27f0
2a10
23f0
2210
ENDCHAR
STARTCHAR 5097
ENCODING 20631
SWIDTH 520 0
DWIDTH 14 0
BBX 14 14 0 -2
BITMAP
1100
1080
27f8
2100
6220
a7c0
2090
27f8
2008
27f0
2490
27f0
2490
27f0
ENDCHAR
STARTCHAR 5098
ENCODING 20632
SWIDTH 520 0
DWIDTH 14 0
BBX 14 14 0 -2
BITMAP
0200
0500
18c0
e038
1240
1240
2aa0
4710
1240
2aa0
4710
fff8
0200
0200
ENDCHAR
STARTCHAR 5099
ENCODING 20633
SWIDTH 520 0
DWIDTH 14 0
BBX 14 14 0 -2
BITMAP
1220
1220
27f0
2220
6ff8
a200
27f0
2c90
27f0
2490
27f0
2490
2490
24b0
ENDCHAR
STARTCHAR 509A
ENCODING 20634
SWIDTH 520 0
DWIDTH 14 0
BBX 14 14 0 -2
BITMAP
2840
2440
2040
5f78
4090
ca50
5150
4250
4a50
4420
4420
4a50
4a50
5088
ENDCHAR
STARTCHAR 509B
ENCODING 20635
SWIDTH 520 0
DWIDTH 14 0
BBX 14 14 0 -2
BITMAP
1100
1080
27f0
2410
6140
a220
2490
2140
2220
27f0
2a28
2220
23e0
2220
ENDCHAR
STARTCHAR 509C
ENCODING 20636
SWIDTH 520 0
DWIDTH 14 0
BBX 14 14 0 -2
BITMAP
1070
1780
2510
22a0
6400
a7f0
2880
2080
2ff8
2080
2490
2490
27f0
2010
ENDCHAR
STARTCHAR 509D
ENCODING 20637
SWIDTH 520 0
DWIDTH 14 0
BBX 14 14 0 -2
BITMAP
1000
17f0
2410
27f0
6410
a7f0
2000
2f78
2108
2948
2528
2948
2108
2630
ENDCHAR
STARTCHAR 509E
ENCODING 20638
SWIDTH 520 0
DWIDTH 14 0
BBX 14 14 0 -2
BITMAP
1210
1120
27f8
2080
63f0
a080
27f8
2100
2200
23f0
2440
2840
2040
27f8
ENDCHAR
STARTCHAR 509F
ENCODING 20639
SWIDTH 520 0
DWIDTH 14 0
BBX 14 14 0 -2
BITMAP
1140
1220
2490
2908
6220
a7f0
2000
2f78
2108
2528
2318
2528
2948
2318
ENDCHAR
STARTCHAR 50A0
ENCODING 20640
SWIDTH 520 0
DWIDTH 14 0
BBX 14 14 0 -2
BITMAP
1410
1210
2710
2078
6710
a010
2750
2030
2730
2510
2510
2510
2710
2570
ENDCHAR
STARTCHAR 50A1
ENCODING 20641
SWIDTH 520 0
DWIDTH 14 0
BBX 14 14 0 -2
BITMAP
2820
2410
4000
5ef8
c000
4208
4288
5248
5248
5450
4410
4710
7820
40f8
ENDCHAR
STARTCHAR 50A2
ENCODING 20642
SWIDTH 520 0
DWIDTH 14 0
BBX 14 14 0 -2
BITMAP
1080
1040
27f8
2408
6000
a7f0
2100
2288
2550
22e0
2550
2250
2448
2180
ENDCHAR
STARTCHAR 50A3
ENCODING 20643
SWIDTH 520 0
DWIDTH 14 0
BBX 14 14 0 -2
BITMAP
1080
17f0
1080
23e0
2100
6ff8
a220
2490
2888
2490
22a0
2490
2888
2380
ENDCHAR
STARTCHAR 50A4
ENCODING 20644
SWIDTH 520 0
DWIDTH 14 0
BBX 14 14 0 -2
BITMAP
2240
2250
2f48
4240
5ff8
c440
5f40
4850
5450
5f20
4428
4768
5c98
4408
ENDCHAR
STARTCHAR 50A5
ENCODING 20645
SWIDTH 520 0
DWIDTH 14 0
BBX 14 14 0 -2
BITMAP
1080
1490
22a0
2ff8
6808
a3e0
2220
2220
23e0
2140
2140
2240
2248
2438
ENDCHAR
STARTCHAR 50A6
ENCODING 20646
SWIDTH 520 0
DWIDTH 14 0
BBX 14 14 0 -2
BITMAP
17f0
1410
1790
2490
2ff8
6808
a7f0
2410
27f0
2410
27f0
2410
2410
2470
ENDCHAR
STARTCHAR 50A7
ENCODING 20647
SWIDTH 520 0
DWIDTH 14 0
BBX 14 14 0 -2
BITMAP
1080
1040
27f8
2408
6070
a380
2200
23f0
2220
2220
2ff8
2000
2220
2410
ENDCHAR
STARTCHAR 50A8
ENCODING 20648
SWIDTH 520 0
DWIDTH 14 0
BBX 14 14 0 -2
BITMAP
1040
1848
14e8
2450
21f8
6c40
a4f0
2590
2690
24f0
2490
2690
24f0
2090
ENDCHAR
STARTCHAR 50A9
ENCODING 20649
SWIDTH 520 0
DWIDTH 14 0
BBX 14 14 0 -2
BITMAP
1060
1050
2e40
22f8
62a0
aba0
2af0
24a0
24a0
2af0
2aa0
32a0
20f8
2080
ENDCHAR
STARTCHAR 50AA
ENCODING 20650
SWIDTH 520 0
DWIDTH 14 0
BBX 14 14 0 -2
BITMAP
1100
1220
17f0
2000
2528
6ff8
a140
2220
2c98
2340
2080
2320
20c0
2700
ENDCHAR
STARTCHAR 50AB
ENCODING 20651
SWIDTH 520 0
DWIDTH 14 0
BBX 14 14 0 -2
BITMAP
1000
17f0
1490
27f0
2490
67f0
a100
2220
23c0
2110
27f8
2080
22a0
2590
ENDCHAR
STARTCHAR 50AC
ENCODING 20652
SWIDTH 520 0
DWIDTH 14 0
BBX 14 14 0 -2
BITMAP
1080
1490
1490
27f0
2280
6440
aff8
3480
27f0
2480
27f0
2480
27f8
2400
ENDCHAR
STARTCHAR 50AD
ENCODING 20653
SWIDTH 520 0
DWIDTH 14 0
BBX 14 14 0 -2
BITMAP
1040
17f8
2440
25f0
6450
a5f8
2450
25f0
2440
25f0
2550
25f0
2950
3130
ENDCHAR
STARTCHAR 50AE
ENCODING 20654
SWIDTH 520 0
DWIDTH 14 0
BBX 14 14 0 -2
BITMAP
1240
1ff8
2240
2ff0
6a50
aff0
2a50
2ff0
2000
27e0
2420
27e0
2420
27e0
ENDCHAR
STARTCHAR 50AF
ENCODING 20655
SWIDTH 520 0
DWIDTH 14 0
BBX 14 14 0 -2
BITMAP
1080
17f0
1510
25d0
2750
6490
a550
2410
27f0
2080
2050
2548
2528
28e0
ENDCHAR
STARTCHAR 50B0
ENCODING 20656
SWIDTH 520 0
DWIDTH 14 0
BBX 14 14 0 -2
BITMAP
1080
1490
27f0
2000
6770
a550
2550
2770
2550
2770
2550
2550
2b50
30b0
ENDCHAR
STARTCHAR 50B1
ENCODING 20657
SWIDTH 520 0
DWIDTH 14 0
BBX 14 14 0 -2
BITMAP
1250
1250
2450
28a8
62a8
a300
2420
2c20
24a0
24b8
24a0
24a0
2560
2638
ENDCHAR
STARTCHAR 50B2
ENCODING 20658
SWIDTH 520 0
DWIDTH 14 0
BBX 14 14 0 -2
BITMAP
1240
1240
2f40
2278
6f90
a250
2f50
2450
2750
2520
2520
2950
2b50
3088
ENDCHAR
STARTCHAR 50B3
ENCODING 20659
SWIDTH 520 0
DWIDTH 14 0
BBX 14 14 0 -2
BITMAP
1080
1ff8
2080
27f0
6490
a7f0
2490
27f0
2088
2ff8
2020
27f8
2220
2160
ENDCHAR
STARTCHAR 50B4
ENCODING 20660
SWIDTH 520 0
DWIDTH 14 0
BBX 14 14 0 -2
BITMAP
1000
1ff8
2800
29f0
6910
a910
29f0
2800
2bb8
2aa8
2aa8
2bb8
2800
2ff8
ENDCHAR
STARTCHAR 50B5
ENCODING 20661
SWIDTH 520 0
DWIDTH 14 0
BBX 14 14 0 -2
BITMAP
1080
17f0
2080
27f0
6080
aff8
2410
27f0
2410
27f0
2410
27f0
2220
2410
ENDCHAR
STARTCHAR 50B6
ENCODING 20662
SWIDTH 520 0
DWIDTH 14 0
BBX 14 14 0 -2
BITMAP
2020
2028
2ff8
4820
4920
c9a8
4928
4fe8
4930
4bb0
4d68
5128
5158
6388
ENDCHAR
STARTCHAR 50B7
ENCODING 20663
SWIDTH 520 0
DWIDTH 14 0
BBX 14 14 0 -2
BITMAP
1200
13f8
2400
2bf0
6210
a3f0
2210
23f0
2000
27f8
2200
27f8
2948
2298
ENDCHAR
STARTCHAR 50B8
ENCODING 20664
SWIDTH 520 0
DWIDTH 14 0
BBX 14 14 0 -2
BITMAP
1080
1ff8
2080
2aa8
6490
aaa8
2080
2aa8
2490
2aa8
2140
2220
2410
2808
ENDCHAR
STARTCHAR 50B9
ENCODING 20665
SWIDTH 520 0
DWIDTH 14 0
BBX 14 14 0 -2
BITMAP
1080
17f0
2220
2140
6ff8
a000
27f0
2410
27f0
2410
27f0
2140
2248
2c38
ENDCHAR
STARTCHAR 50BA
ENCODING 20666
SWIDTH 520 0
DWIDTH 14 0
BBX 14 14 0 -2
BITMAP
2440
2770
4950
5550
ca20
4420
4bd0
4008
4000
4ff0
4080
44a0
4890
4380
ENDCHAR
STARTCHAR 50BB
ENCODING 20667
SWIDTH 520 0
DWIDTH 14 0
BBX 14 14 0 -2
BITMAP
1080
17f0
1550
2490
2550
67f0
a220
2510
29e8
2220
2540
2080
2360
2c18
ENDCHAR
STARTCHAR 50BC
ENCODING 20668
SWIDTH 520 0
DWIDTH 14 0
BBX 14 14 0 -2
BITMAP
1220
1ff8
2220
23e0
6080
a7f0
2490
27f0
2080
27f0
2080
2ff8
2140
2630
ENDCHAR
STARTCHAR 50BD
ENCODING 20669
SWIDTH 520 0
DWIDTH 14 0
BBX 14 14 0 -2
BITMAP
1080
17f0
2220
2ff8
6000
a7f0
2410
27f0
2410
27f0
2080
2ff8
2080
2080
ENDCHAR
STARTCHAR 50BE
ENCODING 20670
SWIDTH 520 0
DWIDTH 14 0
BBX 14 14 0 -2
BITMAP
1000
10f8
1420
2440
24f8
6788
a4f8
2488
24f8
2588
26f8
2400
2050
2088
ENDCHAR
STARTCHAR 50BF
ENCODING 20671
SWIDTH 520 0
DWIDTH 14 0
BBX 14 14 0 -2
BITMAP
1000
1ff8
2080
22f0
6280
aff8
2200
23f0
2400
27f8
2008
2aa8
32a8
2030
ENDCHAR
STARTCHAR 50C0
ENCODING 20672
SWIDTH 520 0
DWIDTH 14 0
BBX 14 14 0 -2
BITMAP
2aa0
2aa0
3ff0
4aa8
5398
c000
5ff0
5110
4100
4fe0
4920
4920
4960
4100
ENDCHAR
STARTCHAR 50C1
ENCODING 20673
SWIDTH 520 0
DWIDTH 14 0
BBX 14 14 0 -2
BITMAP
1070
1780
2490
22a0
67f8
a1c0
22a0
2498
2000
2080
2050
2548
2528
28e0
ENDCHAR
STARTCHAR 50C2
ENCODING 20674
SWIDTH 520 0
DWIDTH 14 0
BBX 14 14 0 -2
BITMAP
1080
17f0
2490
2ff8
6490
a7f0
22a0
23e0
2100
2ff8
2220
2640
21c0
2e38
ENDCHAR
STARTCHAR 50C3
ENCODING 20675
SWIDTH 520 0
DWIDTH 14 0
BBX 14 14 0 -2
BITMAP
1240
17f0
2240
2400
67f0
a810
37d0
2550
27d0
2550
27d0
2550
24d0
2030
ENDCHAR
STARTCHAR 50C4
ENCODING 20676
SWIDTH 520 0
DWIDTH 14 0
BBX 14 14 0 -2
BITMAP
1000
17f8
2120
27f8
6528
a7f8
2000
23f0
2000
27f8
2040
2250
2448
29c8
ENDCHAR
STARTCHAR 50C5
ENCODING 20677
SWIDTH 520 0
DWIDTH 14 0
BBX 14 14 0 -2
BITMAP
1220
1ff8
2220
23e0
6080
a7f0
2490
27f0
2080
27f0
2080
27f0
2080
2ff8
ENDCHAR
STARTCHAR 50C6
ENCODING 20678
SWIDTH 520 0
DWIDTH 14 0
BBX 14 14 0 -2
BITMAP
1040
1840
25f0
2440
61f0
a150
2df0
2550
25f0
2440
27f8
2440
2640
29f8
ENDCHAR
STARTCHAR 50C7
ENCODING 20679
SWIDTH 520 0
DWIDTH 14 0
BBX 14 14 0 -2
BITMAP
1ef0
1210
2a50
2630
6a50
a080
2140
2220
2c98
2340
2080
2320
20c0
2700
ENDCHAR
STARTCHAR 50C8
ENCODING 20680
SWIDTH 520 0
DWIDTH 14 0
BBX 14 14 0 -2
BITMAP
13f0
1210
23f0
2210
63f0
a000
27f8
2528
27f8
2000
23f0
2120
20c0
2738
ENDCHAR
STARTCHAR 50C9
ENCODING 20681
SWIDTH 520 0
DWIDTH 14 0
BBX 14 14 0 -2
BITMAP
0200
0500
0880
3060
cf98
0000
7df0
4510
4510
7df0
1040
1040
28a0
4510
ENDCHAR
STARTCHAR 50CA
ENCODING 20682
SWIDTH 520 0
DWIDTH 14 0
BBX 14 14 0 -2
BITMAP
1000
17f0
2140
27f0
6550
a7f0
2080
2ff8
2220
27f0
2a28
23e0
2210
21f0
ENDCHAR
STARTCHAR 50CB
ENCODING 20683
SWIDTH 520 0
DWIDTH 14 0
BBX 14 14 0 -2
BITMAP
1080
1140
22a0
25d0
6848
a7f0
2410
27f0
2410
27f0
2410
27f0
2220
2410
ENDCHAR
STARTCHAR 50CC
ENCODING 20684
SWIDTH 520 0
DWIDTH 14 0
BBX 14 14 0 -2
BITMAP
2440
2440
5f40
4478
df90
5550
5f50
5550
5f50
4420
5f20
4450
4450
4488
ENDCHAR
STARTCHAR 50CD
ENCODING 20685
SWIDTH 520 0
DWIDTH 14 0
BBX 14 14 0 -2
BITMAP
11a0
1e20
2220
2fa0
6278
afa8
2aa8
2fa8
2aa8
2fa8
2228
2fa8
2248
2f98
ENDCHAR
STARTCHAR 50CE
ENCODING 20686
SWIDTH 520 0
DWIDTH 14 0
BBX 14 14 0 -2
BITMAP
1000
1f78
2948
2f78
6840
a948
2738
2220
27f0
2220
2ff8
2000
2220
2410
ENDCHAR
STARTCHAR 50CF
ENCODING 20687
SWIDTH 520 0
DWIDTH 14 0
BBX 14 14 0 -2
BITMAP
1100
13e0
2440
2ff0
6490
a7f0
2100
2288
2550
22e0
2560
2250
2c48
2180
ENDCHAR
STARTCHAR 50D0
ENCODING 20688
SWIDTH 520 0
DWIDTH 14 0
BBX 14 14 0 -2
BITMAP
1220
1140
1ff8
2080
27f0
6080
aff8
2490
22a0
2ff8
2000
27f0
2410
27f0
ENDCHAR
STARTCHAR 50D1
ENCODING 20689
SWIDTH 520 0
DWIDTH 14 0
BBX 14 14 0 -2
BITMAP
27e0
2100
2ff0
4240
47e0
ca58
53c0
4000
4ff0
4810
4bd0
4a50
4bd0
4830
ENDCHAR
STARTCHAR 50D2
ENCODING 20690
SWIDTH 520 0
DWIDTH 14 0
BBX 14 14 0 -2
BITMAP
1080
1ff8
2948
2220
67f0
a110
2ff8
2110
27f0
2200
27f0
2a10
23f0
2210
ENDCHAR
STARTCHAR 50D3
ENCODING 20691
SWIDTH 520 0
DWIDTH 14 0
BBX 14 14 0 -2
BITMAP
1080
17f0
2490
27f0
6080
aff8
2410
27f0
2410
27f0
2410
27f0
2220
2410
ENDCHAR
STARTCHAR 50D4
ENCODING 20692
SWIDTH 520 0
DWIDTH 14 0
BBX 14 14 0 -2
BITMAP
1220
17f8
2140
27f0
6550
a630
25d0
2410
27f0
2020
2ff8
2220
2120
2060
ENDCHAR
STARTCHAR 50D5
ENCODING 20693
SWIDTH 520 0
DWIDTH 14 0
BBX 14 14 0 -2
BITMAP
1140
1550
2360
2ff8
6000
a220
2ff8
2080
27f0
2080
2ff8
2140
2220
2c18
ENDCHAR
STARTCHAR 50D6
ENCODING 20694
SWIDTH 520 0
DWIDTH 14 0
BBX 14 14 0 -2
BITMAP
1080
1ff8
1080
27f0
2000
67f0
a410
27f0
2220
2ff8
2000
27f0
2410
27f0
ENDCHAR
STARTCHAR 50D7
ENCODING 20695
SWIDTH 520 0
DWIDTH 14 0
BBX 14 14 0 -2
BITMAP
1220
16a8
2b70
2220
6550
a888
27f8
2408
2080
27f0
2090
2110
2210
2460
ENDCHAR
STARTCHAR 50D8
ENCODING 20696
SWIDTH 520 0
DWIDTH 14 0
BBX 14 14 0 -2
BITMAP
2440
2540
5640
4478
df90
5150
5150
5d50
5550
5520
5d20
5150
5150
5788
ENDCHAR
STARTCHAR 50D9
ENCODING 20697
SWIDTH 520 0
DWIDTH 14 0
BBX 14 14 0 -2
BITMAP
1220
1220
17f0
2220
2ff8
6080
a7f0
2490
27f0
2490
27f0
2000
2220
2410
ENDCHAR
STARTCHAR 50DA
ENCODING 20698
SWIDTH 520 0
DWIDTH 14 0
BBX 14 14 0 -2
BITMAP
1080
17f0
2080
2550
6220
a7f0
2a28
23e0
2220
23e0
2080
2490
2888
2180
ENDCHAR
STARTCHAR 50DB
ENCODING 20699
SWIDTH 520 0
DWIDTH 14 0
BBX 14 14 0 -2
BITMAP
1520
1520
2fa0
2578
6548
a790
2520
2720
2520
2520
2fd0
2050
2550
2888
ENDCHAR
STARTCHAR 50DC
ENCODING 20700
SWIDTH 520 0
DWIDTH 14 0
BBX 14 14 0 -2
BITMAP
1040
1750
2120
2528
6210
a410
2be8
2000
27f0
2410
27f0
2220
2140
2ff8
ENDCHAR
STARTCHAR 50DD
ENCODING 20701
SWIDTH 520 0
DWIDTH 14 0
BBX 14 14 0 -2
BITMAP
17f8
1408
27f8
2400
65f0
a420
27f8
2440
24c0
27b8
2510
2bb8
3110
2330
ENDCHAR
STARTCHAR 50DE
ENCODING 20702
SWIDTH 520 0
DWIDTH 14 0
BBX 14 14 0 -2
BITMAP
20e0
2f00
4a20
4540
cfc0
4840
4fe0
4820
4ff0
4810
4ab0
5550
5010
6060
ENDCHAR
STARTCHAR 50DF
ENCODING 20703
SWIDTH 520 0
DWIDTH 14 0
BBX 14 14 0 -2
BITMAP
1490
1aa8
2eb8
2490
6aa8
aeb8
2490
2ff8
2480
2450
2658
2528
2458
2888
ENDCHAR
STARTCHAR 50E0
ENCODING 20704
SWIDTH 520 0
DWIDTH 14 0
BBX 14 14 0 -2
BITMAP
1070
1f80
2490
22a0
6ff8
a2a0
2490
2808
27f0
2490
27f0
2490
27f0
2410
ENDCHAR
STARTCHAR 50E1
ENCODING 20705
SWIDTH 520 0
DWIDTH 14 0
BBX 14 14 0 -2
BITMAP
1080
1ff8
2080
27f0
6490
a7f0
2490
27f0
2088
2ff8
2108
2090
2a28
31e0
ENDCHAR
STARTCHAR 50E2
ENCODING 20706
SWIDTH 520 0
DWIDTH 14 0
BBX 14 14 0 -2
BITMAP
1038
1fc0
2510
22a0
6ff8
a808
2210
2210
2778
2910
2550
2278
2410
2810
ENDCHAR
STARTCHAR 50E3
ENCODING 20707
SWIDTH 520 0
DWIDTH 14 0
BBX 14 14 0 -2
BITMAP
1220
1220
2770
2220
6778
a220
2550
2888
27f0
2410
27f0
2410
27f0
2410
ENDCHAR
STARTCHAR 50E4
ENCODING 20708
SWIDTH 520 0
DWIDTH 14 0
BBX 14 14 0 -2
BITMAP
1000
1770
2550
2770
6000
a7f0
2490
27f0
2490
27f0
2080
2ff8
2080
2080
ENDCHAR
STARTCHAR 50E5
ENCODING 20709
SWIDTH 520 0
DWIDTH 14 0
BBX 14 14 0 -2
BITMAP
1080
17f0
2080
27f8
6220
a770
2220
2f78
2000
2ff8
2240
2240
2448
2838
ENDCHAR
STARTCHAR 50E6
ENCODING 20710
SWIDTH 520 0
DWIDTH 14 0
BBX 14 14 0 -2
BITMAP
1420
1230
2fa8
2020
6778
a530
2550
2750
2250
2250
2750
2ad8
2258
2688
ENDCHAR
STARTCHAR 50E7
ENCODING 20711
SWIDTH 520 0
DWIDTH 14 0
BBX 14 14 0 -2
BITMAP
1410
1220
1ff8
2888
2aa8
6888
aff8
2000
27f0
2410
27f0
2410
27f0
2410
ENDCHAR
STARTCHAR 50E8
ENCODING 20712
SWIDTH 520 0
DWIDTH 14 0
BBX 14 14 0 -2
BITMAP
1080
17f0
12a0
27f8
2220
67f0
a410
27f0
2410
27f0
2410
27f0
2220
2410
ENDCHAR
STARTCHAR 50E9
ENCODING 20713
SWIDTH 520 0
DWIDTH 14 0
BBX 14 14 0 -2
BITMAP
1738
1528
2738
2528
6738
a408
25e8
2528
25e8
2528
25e8
2528
2668
2418
ENDCHAR
STARTCHAR 50EA
ENCODING 20714
SWIDTH 520 0
DWIDTH 14 0
BBX 14 14 0 -2
BITMAP
13f0
10a0
2040
27f8
6148
a250
20c0
27f8
2528
2618
25e8
2528
25e8
2418
ENDCHAR
STARTCHAR 50EB
ENCODING 20715
SWIDTH 520 0
DWIDTH 14 0
BBX 14 14 0 -2
BITMAP
1000
1ff8
2140
2770
6410
a410
2770
2140
2ff8
2100
2090
2a88
2a28
31e0
ENDCHAR
STARTCHAR 50EC
ENCODING 20716
SWIDTH 520 0
DWIDTH 14 0
BBX 14 14 0 -2
BITMAP
1140
1120
1200
23f8
2640
6bf0
a240
23f0
2240
23f8
2200
2550
24a8
28a8
ENDCHAR
STARTCHAR 50ED
ENCODING 20717
SWIDTH 520 0
DWIDTH 14 0
BBX 14 14 0 -2
BITMAP
1000
1778
2210
2a50
6f78
a620
2b28
3258
27f0
2410
27f0
2410
27f0
2410
ENDCHAR
STARTCHAR 50EE
ENCODING 20718
SWIDTH 520 0
DWIDTH 14 0
BBX 14 14 0 -2
BITMAP
1080
17f0
2220
2ff8
6000
a7f0
2490
27f0
2490
27f0
2080
27f0
2080
2ff8
ENDCHAR
STARTCHAR 50EF
ENCODING 20719
SWIDTH 520 0
DWIDTH 14 0
BBX 14 14 0 -2
BITMAP
1080
1490
22a0
27f8
61c0
a2a0
2498
2220
2370
2520
2aa0
22f8
2420
2820
ENDCHAR
STARTCHAR 50F0
ENCODING 20720
SWIDTH 520 0
DWIDTH 14 0
BBX 14 14 0 -2
BITMAP
1040
7df8
1040
7df0
5550
5550
38e0
5550
9248
1240
0500
0880
3060
c018
ENDCHAR
STARTCHAR 50F1
ENCODING 20721
SWIDTH 520 0
DWIDTH 14 0
BBX 14 14 0 -2
BITMAP
1040
17f8
2408
27f8
64a0
a490
25f8
2720
25f8
2520
29f8
2920
31f8
2100
ENDCHAR
STARTCHAR 50F2
ENCODING 20722
SWIDTH 520 0
DWIDTH 14 0
BBX 14 14 0 -2
BITMAP
1000
17f8
2120
27f8
6528
a528
27f8
2210
2778
2910
2550
2278
2410
2810
ENDCHAR
STARTCHAR 50F3
ENCODING 20723
SWIDTH 520 0
DWIDTH 14 0
BBX 14 14 0 -2
BITMAP
1000
17f8
2140
27f0
6550
a550
27f0
2490
22a0
27f8
21c0
22a0
2c98
2080
ENDCHAR
STARTCHAR 50F4
ENCODING 20724
SWIDTH 520 0
DWIDTH 14 0
BBX 14 14 0 -2
BITMAP
1000
1f78
2948
2f78
6948
af78
2808
2be8
2a28
2be8
2a28
2be8
2808
2838
ENDCHAR
STARTCHAR 50F5
ENCODING 20725
SWIDTH 520 0
DWIDTH 14 0
BBX 14 14 0 -2
BITMAP
1000
1ff8
2000
27f0
6490
a7f0
2490
2ff8
2000
27f0
2490
27f0
2490
2ff8
ENDCHAR
STARTCHAR 50F6
ENCODING 20726
SWIDTH 520 0
DWIDTH 14 0
BBX 14 14 0 -2
BITMAP
1000
1ff8
2948
2948
6f78
a140
2f78
2948
2f78
2948
2f78
2140
2148
20f8
ENDCHAR
STARTCHAR 50F7
ENCODING 20727
SWIDTH 520 0
DWIDTH 14 0
BBX 14 14 0 -2
BITMAP
1240
1ff8
2240
2520
6ff8
a520
25e0
2400
27f8
2080
2ff8
22a0
2490
2888
ENDCHAR
STARTCHAR 50F8
ENCODING 20728
SWIDTH 520 0
DWIDTH 14 0
BBX 14 14 0 -2
BITMAP
1220
1220
2f78
2220
6770
aaa8
2220
27f0
2000
2ff8
2080
2490
2888
2380
ENDCHAR
STARTCHAR 50F9
ENCODING 20729
SWIDTH 520 0
DWIDTH 14 0
BBX 14 14 0 -2
BITMAP
1ff8
1140
2ff8
2948
6ff8
a000
27f0
2410
27f0
2410
27f0
2410
27f0
2220
ENDCHAR
STARTCHAR 50FA
ENCODING 20730
SWIDTH 520 0
DWIDTH 14 0
BBX 14 14 0 -2
BITMAP
13e0
1220
23e0
2000
6770
a550
2770
2000
2080
2ff8
21c0
22a0
2c98
2080
ENDCHAR
STARTCHAR 50FB
ENCODING 20731
SWIDTH 520 0
DWIDTH 14 0
BBX 14 14 0 -2
BITMAP
1040
1720
25f8
2500
6750
a420
24f8
2f20
2d20
3570
2520
2720
2520
2020
ENDCHAR
STARTCHAR 50FC
ENCODING 20732
SWIDTH 520 0
DWIDTH 14 0
BBX 14 14 0 -2
BITMAP
1120
17f8
2528
27f8
6528
a7f8
2000
27f8
2000
23f0
2210
23f0
2120
27f8
ENDCHAR
STARTCHAR 50FD
ENCODING 20733
SWIDTH 520 0
DWIDTH 14 0
BBX 14 14 0 -2
BITMAP
1220
1c20
24a8
3ea8
64b0
a520
2e50
3550
2490
2508
2090
2a88
2a28
31e0
ENDCHAR
STARTCHAR 50FE
ENCODING 20734
SWIDTH 520 0
DWIDTH 14 0
BBX 14 14 0 -2
BITMAP
1038
1fd0
2490
2220
6ff8
a888
2150
2528
28e0
2200
27f0
2a20
21c0
2e38
ENDCHAR
STARTCHAR 50FF
ENCODING 20735
SWIDTH 520 0
DWIDTH 14 0
BBX 14 14 0 -2
BITMAP
1100
1080
2ff8
2948
67f0
a140
27f0
2140
2ff8
2220
2490
2be8
2080
27f0
ENDCHAR
STARTCHAR 5100
ENCODING 20736
SWIDTH 520 0
DWIDTH 14 0
BBX 14 14 0 -2
BITMAP
1220
17f0
2080
23f0
6080
a7f8
2160
2650
2240
27f8
2250
2760
2250
26b0
ENDCHAR
STARTCHAR 5101
ENCODING 20737
SWIDTH 520 0
DWIDTH 14 0
BBX 14 14 0 -2
BITMAP
1280
1240
27f8
2c80
77f0
a480
27f0
2480
27f8
2400
2f78
2948
29c8
2818
ENDCHAR
STARTCHAR 5102
ENCODING 20738
SWIDTH 520 0
DWIDTH 14 0
BBX 14 14 0 -2
BITMAP
1140
17f0
2550
27f0
6550
a7f0
2000
27f8
2400
25f0
2400
27f8
2a50
3338
ENDCHAR
STARTCHAR 5103
ENCODING 20739
SWIDTH 520 0
DWIDTH 14 0
BBX 14 14 0 -2
BITMAP
1080
17f8
2000
27f0
6550
a5d0
2410
27f0
2220
23e0
2220
23e0
2000
2ff8
ENDCHAR
STARTCHAR 5104
ENCODING 20740
SWIDTH 520 0
DWIDTH 14 0
BBX 14 14 0 -2
BITMAP
1080
17f0
2220
2ff8
6000
a7f0
2410
27f0
2410
27f0
2100
2090
2a28
31e0
ENDCHAR
STARTCHAR 5105
ENCODING 20741
SWIDTH 520 0
DWIDTH 14 0
BBX 14 14 0 -2
BITMAP
1080
1490
2ff8
2808
63e0
a220
23e0
2000
27f0
2490
27f0
2490
27f0
2410
ENDCHAR
STARTCHAR 5106
ENCODING 20742
SWIDTH 520 0
DWIDTH 14 0
BBX 14 14 0 -2
BITMAP
2a40
2a40
5f40
4a78
d090
5f50
6150
5d50
5550
5520
5d20
4150
4150
4688
ENDCHAR
STARTCHAR 5107
ENCODING 20743
SWIDTH 520 0
DWIDTH 14 0
BBX 14 14 0 -2
BITMAP
1000
17f0
2550
27f0
6000
aff8
2000
27f0
2410
27f0
2288
2650
2aa0
2318
ENDCHAR
STARTCHAR 5108
ENCODING 20744
SWIDTH 520 0
DWIDTH 14 0
BBX 14 14 0 -2
BITMAP
11c0
1220
2dd8
2000
6ff8
a888
2aa8
2ff8
2000
27f0
2410
27f0
2410
27f0
ENDCHAR
STARTCHAR 5109
ENCODING 20745
SWIDTH 520 0
DWIDTH 14 0
BBX 14 14 0 -2
BITMAP
1080
1080
1140
2220
2410
6be8
a000
2770
2550
2770
2220
2220
2550
2888
ENDCHAR
STARTCHAR 510A
ENCODING 20746
SWIDTH 520 0
DWIDTH 14 0
BBX 14 14 0 -2
BITMAP
1220
1220
2f78
2220
6770
aaa8
2220
2ff8
2088
2480
24f0
2480
2a80
31f8
ENDCHAR
STARTCHAR 510B
ENCODING 20747
SWIDTH 520 0
DWIDTH 14 0
BBX 14 14 0 -2
BITMAP
1200
13e0
2420
2ff8
7550
a6e8
2400
25f0
2400
25f0
2400
29f0
2910
31f0
ENDCHAR
STARTCHAR 510C
ENCODING 20748
SWIDTH 520 0
DWIDTH 14 0
BBX 14 14 0 -2
BITMAP
1240
1740
1540
2778
2590
6750
a250
2f50
2450
2720
2520
2550
2550
2b88
ENDCHAR
STARTCHAR 510D
ENCODING 20749
SWIDTH 520 0
DWIDTH 14 0
BBX 14 14 0 -2
BITMAP
12a0
1550
26b0
2550
66b0
a7f0
2220
2510
29e8
2220
2540
2080
2360
2c18
ENDCHAR
STARTCHAR 510E
ENCODING 20750
SWIDTH 520 0
DWIDTH 14 0
BBX 14 14 0 -2
BITMAP
2220
2fa8
2220
5ff8
4220
cfa8
4aa8
4fa8
4ab0
4fb0
4228
5fe8
4258
4288
ENDCHAR
STARTCHAR 510F
ENCODING 20751
SWIDTH 520 0
DWIDTH 14 0
BBX 14 14 0 -2
BITMAP
1100
11b8
2508
27a8
6890
b528
2248
2480
2c90
22a0
2ff8
22a0
2490
2888
ENDCHAR
STARTCHAR 5110
ENCODING 20752
SWIDTH 520 0
DWIDTH 14 0
BBX 14 14 0 -2
BITMAP
1080
17f8
1408
23f0
22a0
64c0
a3f0
2610
23f0
2210
23f0
2210
23f0
2120
ENDCHAR
STARTCHAR 5111
ENCODING 20753
SWIDTH 520 0
DWIDTH 14 0
BBX 14 14 0 -2
BITMAP
1000
17f0
1410
27f0
2410
67f0
a220
2548
2770
2220
2550
2778
2000
2550
ENDCHAR
STARTCHAR 5112
ENCODING 20754
SWIDTH 520 0
DWIDTH 14 0
BBX 14 14 0 -2
BITMAP
17f0
1080
2ff8
2888
66b0
a080
26b0
2000
2ff8
2080
2ff8
2948
2948
2818
ENDCHAR
STARTCHAR 5113
ENCODING 20755
SWIDTH 520 0
DWIDTH 14 0
BBX 14 14 0 -2
BITMAP
1080
1ff8
2080
27f0
6220
aff8
2808
27f0
2220
27f0
2080
27f0
2080
2ff8
ENDCHAR
STARTCHAR 5114
ENCODING 20756
SWIDTH 520 0
DWIDTH 14 0
BBX 14 14 0 -2
BITMAP
1080
1ff8
2080
27f0
6000
aff8
2008
27f0
2080
2ff8
2010
2ef8
2a50
2e30
ENDCHAR
STARTCHAR 5115
ENCODING 20757
SWIDTH 520 0
DWIDTH 14 0
BBX 14 14 0 -2
BITMAP
2080
2ff0
2140
5e90
4aa0
cab0
56a8
4000
4420
47e0
4420
47e0
4820
5020
ENDCHAR
STARTCHAR 5116
ENCODING 20758
SWIDTH 520 0
DWIDTH 14 0
BBX 14 14 0 -2
BITMAP
1020
17a0
2520
27b8
64c0
a7a0
2510
2790
2000
27f0
2550
2550
2550
2ff8
ENDCHAR
STARTCHAR 5117
ENCODING 20759
SWIDTH 520 0
DWIDTH 14 0
BBX 14 14 0 -2
BITMAP
1400
1578
2608
2550
6320
a4f8
2728
2a20
22a0
2fb8
22a0
22a0
2560
2918
ENDCHAR
STARTCHAR 5118
ENCODING 20760
SWIDTH 520 0
DWIDTH 14 0
BBX 14 14 0 -2
BITMAP
1080
17f0
2090
2ff8
6090
a7f0
2080
2ff8
2550
28a8
27f0
2550
2550
2ff8
ENDCHAR
STARTCHAR 5119
ENCODING 20761
SWIDTH 520 0
DWIDTH 14 0
BBX 14 14 0 -2
BITMAP
1040
19f0
2550
25f0
6040
a3f8
2d10
25f0
2500
25f0
2510
25f0
2400
2bf8
ENDCHAR
STARTCHAR 511A
ENCODING 20762
SWIDTH 520 0
DWIDTH 14 0
BBX 14 14 0 -2
BITMAP
1220
1ff8
2220
27f0
6550
a7f0
2000
2ff8
2908
23e0
2420
2a40
2180
2e00
ENDCHAR
STARTCHAR 511B
ENCODING 20763
SWIDTH 520 0
DWIDTH 14 0
BBX 14 14 0 -2
BITMAP
1400
1ff8
1550
2550
2ff8
6550
a550
2ff8
2210
2778
2910
2550
2278
2410
ENDCHAR
STARTCHAR 511C
ENCODING 20764
SWIDTH 520 0
DWIDTH 14 0
BBX 14 14 0 -2
BITMAP
1080
1ff8
2888
2550
6528
a8e0
2000
27f0
2550
2ff8
2000
27f0
2080
2180
ENDCHAR
STARTCHAR 511D
ENCODING 20765
SWIDTH 520 0
DWIDTH 14 0
BBX 14 14 0 -2
BITMAP
1220
16a8
2b70
2220
6550
a888
27f0
2410
2080
27f0
21c0
22a0
2490
2080
ENDCHAR
STARTCHAR 511E
ENCODING 20766
SWIDTH 520 0
DWIDTH 14 0
BBX 14 14 0 -2
BITMAP
2ff8
22a0
2490
4ff8
4888
cdd8
4aa8
4dd8
4888
4dd8
4aa8
4dd8
4888
4818
ENDCHAR
STARTCHAR 511F
ENCODING 20767
SWIDTH 520 0
DWIDTH 14 0
BBX 14 14 0 -2
BITMAP
1490
1ff8
2808
23e0
6220
a7f0
2410
27f0
2410
27f0
2410
27f0
2220
2410
ENDCHAR
STARTCHAR 5120
ENCODING 20768
SWIDTH 520 0
DWIDTH 14 0
BBX 14 14 0 -2
BITMAP
2490
2920
4490
4ff0
ca50
4990
4a50
4ff0
4920
4da0
4920
4da8
4918
4d88
ENDCHAR
STARTCHAR 5121
ENCODING 20769
SWIDTH 520 0
DWIDTH 14 0
BBX 14 14 0 -2
BITMAP
17f0
1490
27f0
2490
67f0
a000
2ff8
2aa8
2aa8
2ff8
2aa8
2aa8
2ff8
2888
ENDCHAR
STARTCHAR 5122
ENCODING 20770
SWIDTH 520 0
DWIDTH 14 0
BBX 14 14 0 -2
BITMAP
10f8
1080
27f8
2488
67f0
a488
25f8
2550
25f0
2550
25f0
2808
2950
34f0
ENDCHAR
STARTCHAR 5123
ENCODING 20771
SWIDTH 520 0
DWIDTH 14 0
BBX 14 14 0 -2
BITMAP
1040
17f8
24a0
25f0
64a0
a7f8
2440
25f0
2550
25f0
2550
29f0
28a0
3110
ENDCHAR
STARTCHAR 5124
ENCODING 20772
SWIDTH 520 0
DWIDTH 14 0
BBX 14 14 0 -2
BITMAP
17f0
1410
27f0
2410
67f0
a220
27f0
2220
2ff8
2490
2aa8
21c0
22a0
2590
ENDCHAR
STARTCHAR 5125
ENCODING 20773
SWIDTH 520 0
DWIDTH 14 0
BBX 14 14 0 -2
BITMAP
1080
17f8
2080
27f0
6000
aff8
2948
2ff8
2650
2530
2490
27f0
2220
2410
ENDCHAR
STARTCHAR 5126
ENCODING 20774
SWIDTH 520 0
DWIDTH 14 0
BBX 14 14 0 -2
BITMAP
2100
2080
2ff8
4940
4ff0
c950
4ff0
4a40
4b50
4a60
4b50
4a30
4800
5550
ENDCHAR
STARTCHAR 5127
ENCODING 20775
SWIDTH 520 0
DWIDTH 14 0
BBX 14 14 0 -2
BITMAP
1220
1770
2220
2f78
6550
a888
27f0
2410
27f0
2410
27f0
2410
27f0
2220
ENDCHAR
STARTCHAR 5128
ENCODING 20776
SWIDTH 520 0
DWIDTH 14 0
BBX 14 14 0 -2
BITMAP
1110
1660
2440
27f8
6550
a990
27f0
2410
27f0
2410
27f0
2410
27f0
2220
ENDCHAR
STARTCHAR 5129
ENCODING 20777
SWIDTH 520 0
DWIDTH 14 0
BBX 14 14 0 -2
BITMAP
2000
3ef0
5290
52f0
de90
52f0
5240
5ef8
5358
52a8
5f28
4048
5488
6230
ENDCHAR
STARTCHAR 512A
ENCODING 20778
SWIDTH 520 0
DWIDTH 14 0
BBX 14 14 0 -2
BITMAP
17f8
1080
23f0
2290
6250
a7f8
2488
2220
25e8
2100
23f0
2520
20c0
2738
ENDCHAR
STARTCHAR 512B
ENCODING 20779
SWIDTH 520 0
DWIDTH 14 0
BBX 14 14 0 -2
BITMAP
1080
1ff8
2000
23e0
6220
aff8
2808
27f0
2100
2690
2160
26d0
2148
26c0
ENDCHAR
STARTCHAR 512C
ENCODING 20780
SWIDTH 520 0
DWIDTH 14 0
BBX 14 14 0 -2
BITMAP
2400
3ef0
4490
5e90
c4f0
5f90
40f0
5e90
5290
5ef0
5240
5e60
52a8
5718
ENDCHAR
STARTCHAR 512D
ENCODING 20781
SWIDTH 520 0
DWIDTH 14 0
BBX 14 14 0 -2
BITMAP
2800
24f0
4e90
4090
caf0
4490
4ef0
4490
4e90
44f0
5640
6560
44a8
5d18
ENDCHAR
STARTCHAR 512E
ENCODING 20782
SWIDTH 520 0
DWIDTH 14 0
BBX 14 14 0 -2
BITMAP
2000
2ff8
4888
4b30
c910
4fb8
4910
4bb8
4d50
4910
4a40
4a78
5240
4ff8
ENDCHAR
STARTCHAR 512F
ENCODING 20783
SWIDTH 520 0
DWIDTH 14 0
BBX 14 14 0 -2
BITMAP
12a0
17f0
2100
27f8
6220
a7d0
2a88
23e0
2280
23e0
2280
23f0
2550
2ab0
ENDCHAR
STARTCHAR 5130
ENCODING 20784
SWIDTH 520 0
DWIDTH 14 0
BBX 14 14 0 -2
BITMAP
1220
17f8
2220
2078
6790
a2a0
27e0
2420
27f0
2410
27f8
2808
22a8
2558
ENDCHAR
STARTCHAR 5131
ENCODING 20785
SWIDTH 520 0
DWIDTH 14 0
BBX 14 14 0 -2
BITMAP
1240
1f78
2940
2670
6f10
a070
2f40
2970
2f40
2970
2f40
2970
2948
2b38
ENDCHAR
STARTCHAR 5132
ENCODING 20786
SWIDTH 520 0
DWIDTH 14 0
BBX 14 14 0 -2
BITMAP
2820
2420
5f78
4028
ce30
40f8
4e20
4070
4ed0
4a50
4a70
4a50
4e50
4a70
ENDCHAR
STARTCHAR 5133
ENCODING 20787
SWIDTH 520 0
DWIDTH 14 0
BBX 14 14 0 -2
BITMAP
1200
13e0
2440
2ff0
6410
a7f0
2200
23e0
2420
2ff0
2490
27f0
2148
2e38
ENDCHAR
STARTCHAR 5134
ENCODING 20788
SWIDTH 520 0
DWIDTH 14 0
BBX 14 14 0 -2
BITMAP
1080
1ff8
2000
2770
6550
a770
2220
2ff8
2220
27f0
2220
2ff8
2650
2b38
ENDCHAR
STARTCHAR 5135
ENCODING 20789
SWIDTH 520 0
DWIDTH 14 0
BBX 14 14 0 -2
BITMAP
2200
27f0
4a20
41c0
ce38
57f0
56b0
55d0
57f0
5080
57f0
5080
4ff8
4550
ENDCHAR
STARTCHAR 5136
ENCODING 20790
SWIDTH 520 0
DWIDTH 14 0
BBX 14 14 0 -2
BITMAP
1490
17f0
2280
27f8
6c80
a7f0
2480
27f8
2000
2ff8
2a28
2fd8
2a48
2bd8
ENDCHAR
STARTCHAR 5137
ENCODING 20791
SWIDTH 520 0
DWIDTH 14 0
BBX 14 14 0 -2
BITMAP
1f78
1550
2770
2550
6080
a7f8
2540
27f0
2550
27f0
2528
25b0
2528
2998
ENDCHAR
STARTCHAR 5138
ENCODING 20792
SWIDTH 520 0
DWIDTH 14 0
BBX 14 14 0 -2
BITMAP
1000
1ff8
2948
2ff8
64a0
aa90
2df8
24a0
2af0
2ea0
20f0
2aa0
35f8
2080
ENDCHAR
STARTCHAR 5139
ENCODING 20793
SWIDTH 520 0
DWIDTH 14 0
BBX 14 14 0 -2
BITMAP
2a50
2f78
2290
4f78
4630
cb58
47f0
4410
47f0
4410
47f0
4410
47f0
4220
ENDCHAR
STARTCHAR 513A
ENCODING 20794
SWIDTH 520 0
DWIDTH 14 0
BBX 14 14 0 -2
BITMAP
2a30
3f28
4a20
4e78
c450
5fd0
5578
5f50
4450
5f78
4450
5f50
4a78
5140
ENDCHAR
STARTCHAR 513B
ENCODING 20795
SWIDTH 520 0
DWIDTH 14 0
BBX 14 14 0 -2
BITMAP
12a0
1ff8
2808
23e0
6220
aff8
2888
2aa8
2ff8
2080
27f0
2080
2ff8
2550
ENDCHAR
STARTCHAR 513C
ENCODING 20796
SWIDTH 520 0
DWIDTH 14 0
BBX 14 14 0 -2
BITMAP
2f78
2948
4f78
4000
cff8
4ba0
48b8
4fc8
4aa8
4ba8
4aa8
4b90
4ad0
57a8
ENDCHAR
STARTCHAR 513D
ENCODING 20797
SWIDTH 520 0
DWIDTH 14 0
BBX 14 14 0 -2
BITMAP
23e0
22a0
4ff8
4aa8
cff8
4aa8
4ff8
4220
4fc0
4108
5ff8
4080
4890
5388
ENDCHAR
STARTCHAR 513E
ENCODING 20798
SWIDTH 520 0
DWIDTH 14 0
BBX 14 14 0 -2
BITMAP
2080
2ff8
4490
47f0
c080
4ff8
5558
4770
4220
4ff8
4220
5ff8
4650
4b38
ENDCHAR
STARTCHAR 513F
ENCODING 20799
SWIDTH 520 0
DWIDTH 14 0
BBX 14 14 0 -2
BITMAP
1080
1080
1080
1080
1080
1080
1080
1080
1080
1080
2080
2088
4088
8078
ENDCHAR
STARTCHAR 5140
ENCODING 20800
SWIDTH 520 0
DWIDTH 14 0
BBX 14 14 0 -2
BITMAP
0000
fff8
0880
0880
0880
0880
0880
0880
0880
1080
1080
2088
4088
8078
ENDCHAR
STARTCHAR 5141
ENCODING 20801
SWIDTH 520 0
DWIDTH 14 0
BBX 14 14 0 -2
BITMAP
0400
0400
0880
1040
2020
7ff0
0890
0880
0880
0880
0880
1088
2088
c078
ENDCHAR
STARTCHAR 5142
ENCODING 20802
SWIDTH 520 0
DWIDTH 14 0
BBX 14 14 0 -2
BITMAP
0200
0200
7fe0
0200
2200
2200
4400
7ff0
0500
0900
0900
1108
2108
c0f8
ENDCHAR
STARTCHAR 5143
ENCODING 20803
SWIDTH 520 0
DWIDTH 14 0
BBX 14 14 0 -2
BITMAP
0000
3fe0
0000
0000
0000
fff8
0880
0880
0880
1080
1080
2088
4088
8078
ENDCHAR
STARTCHAR 5144
ENCODING 20804
SWIDTH 520 0
DWIDTH 14 0
BBX 14 14 0 -2
BITMAP
0000
3fe0
2020
2020
2020
2020
3fe0
0880
0880
0880
0880
1088
2088
c078
ENDCHAR
STARTCHAR 5145
ENCODING 20805
SWIDTH 520 0
DWIDTH 14 0
BBX 14 14 0 -2
BITMAP
0400
0200
fff8
0800
1040
2020
7ff0
0890
0880
0880
0880
1088
2088
c078
ENDCHAR
STARTCHAR 5146
ENCODING 20806
SWIDTH 520 0
DWIDTH 14 0
BBX 14 14 0 -2
BITMAP
0880
0880
4890
2890
28a0
0880
18c0
28a0
4890
9088
1080
2088
4088
8078
ENDCHAR
STARTCHAR 5147
ENCODING 20807
SWIDTH 520 0
DWIDTH 14 0
BBX 14 14 0 -2
BITMAP
0880
4510
4210
4510
4890
4010
7ff0
0880
0880
0880
0880
1088
2088
c078
ENDCHAR
STARTCHAR 5148
ENCODING 20808
SWIDTH 520 0
DWIDTH 14 0
BBX 14 14 0 -2
BITMAP
0200
1200
1200
3fe0
4200
0200
0200
fff8
0880
0880
0880
1088
2088
c078
ENDCHAR
STARTCHAR 5149
ENCODING 20809
SWIDTH 520 0
DWIDTH 14 0
BBX 14 14 0 -2
BITMAP
0200
4210
2220
1240
0200
fff8
0880
0880
0880
0880
1080
1088
2088
4078
ENDCHAR
STARTCHAR 514A
ENCODING 20810
SWIDTH 520 0
DWIDTH 14 0
BBX 14 14 0 -2
BITMAP
0880
0880
1240
2220
c418
0880
1040
3fe0
08a0
0880
0880
1088
2088
c078
ENDCHAR
STARTCHAR 514B
ENCODING 20811
SWIDTH 520 0
DWIDTH 14 0
BBX 14 14 0 -2
BITMAP
0200
fff8
0200
0200
3fe0
2020
2020
2020
3fe0
0880
0880
1088
2088
c078
ENDCHAR
STARTCHAR 514C
ENCODING 20812
SWIDTH 520 0
DWIDTH 14 0
BBX 14 14 0 -2
BITMAP
0880
0880
1040
2020
7ff0
a028
2020
2020
3fe0
0880
0880
1080
2088
c078
ENDCHAR
STARTCHAR 514D
ENCODING 20813
SWIDTH 520 0
DWIDTH 14 0
BBX 14 14 0 -2
BITMAP
1000
1000
3fc0
4040
8080
7ff0
4210
4210
7ff0
0500
0900
1108
2108
c0f8
ENDCHAR
STARTCHAR 514E
ENCODING 20814
SWIDTH 520 0
DWIDTH 14 0
BBX 14 14 0 -2
BITMAP
0000
00f0
7f00
0200
0200
7ff0
4210
4210
7ff0
0500
0940
1128
2108
c0f8
ENDCHAR
STARTCHAR 514F
ENCODING 20815
SWIDTH 520 0
DWIDTH 14 0
BBX 14 14 0 -2
BITMAP
0070
3f80
2100
2100
21f0
2100
2100
2100
3ff8
2240
2240
4248
4448
9838
ENDCHAR
STARTCHAR 5150
ENCODING 20816
SWIDTH 520 0
DWIDTH 14 0
BBX 14 14 0 -2
BITMAP
0000
4fe0
4820
4820
4fe0
4820
4820
4fe0
0000
0880
0880
1080
2088
c078
ENDCHAR
STARTCHAR 5151
ENCODING 20817
SWIDTH 520 0
DWIDTH 14 0
BBX 14 14 0 -2
BITMAP
2020
1040
0880
3fe0
2020
2020
2020
3fe0
0880
0880
0880
1088
2088
c078
ENDCHAR
STARTCHAR 5152
ENCODING 20818
SWIDTH 520 0
DWIDTH 14 0
BBX 14 14 0 -2
BITMAP
0400
39e0
2020
2020
3de0
2020
2020
3fe0
0880
0880
0880
1088
2088
c078
ENDCHAR
STARTCHAR 5153
ENCODING 20819
SWIDTH 520 0
DWIDTH 14 0
BBX 14 14 0 -2
BITMAP
0000
7df0
1040
5140
5140
5140
7df0
1040
28a0
28a0
2aa0
4d20
4928
8218
ENDCHAR
STARTCHAR 5154
ENCODING 20820
SWIDTH 520 0
DWIDTH 14 0
BBX 14 14 0 -2
BITMAP
1000
1000
3fc0
4040
8080
7ff0
4210
4210
7ff0
0500
0940
1128
2108
c0f8
ENDCHAR
STARTCHAR 5155
ENCODING 20821
SWIDTH 520 0
DWIDTH 14 0
BBX 14 14 0 -2
BITMAP
0000
78f0
4890
4890
4f90
4010
4010
7ff0
0880
0880
0880
1088
2088
c078
ENDCHAR
STARTCHAR 5156
ENCODING 20822
SWIDTH 520 0
DWIDTH 14 0
BBX 14 14 0 -2
BITMAP
0400
0200
fff8
1040
2420
4890
9048
3fe0
08a0
0880
0880
1088
2088
c078
ENDCHAR
STARTCHAR 5157
ENCODING 20823
SWIDTH 520 0
DWIDTH 14 0
BBX 14 14 0 -2
BITMAP
0400
0200
fff8
1040
2020
5fd0
9048
1040
1fc0
0880
0880
1080
2088
c078
ENDCHAR
STARTCHAR 5158
ENCODING 20824
SWIDTH 520 0
DWIDTH 14 0
BBX 14 14 0 -2
BITMAP
0040
7880
0110
03f8
0008
fc00
29f0
2910
2910
2910
29f0
4808
4808
87f8
ENDCHAR
STARTCHAR 5159
ENCODING 20825
SWIDTH 520 0
DWIDTH 14 0
BBX 14 14 0 -2
BITMAP
1040
1040
fe40
1040
11f8
7c40
4440
4440
7c40
2840
2840
2840
4808
87f8
ENDCHAR
STARTCHAR 515A
ENCODING 20826
SWIDTH 520 0
DWIDTH 14 0
BBX 14 14 0 -2
BITMAP
0200
2220
1240
fff8
8008
1fc0
1040
1040
1fc0
0880
0880
1088
2088
c078
ENDCHAR
STARTCHAR 515B
ENCODING 20827
SWIDTH 520 0
DWIDTH 14 0
BBX 14 14 0 -2
BITMAP
1030
11c0
fe40
1040
1040
7df8
4440
4440
7c40
2840
2840
2840
4808
87f8
ENDCHAR
STARTCHAR 515C
ENCODING 20828
SWIDTH 520 0
DWIDTH 14 0
BBX 14 14 0 -2
BITMAP
1200
6fb0
4890
4890
4f90
4890
5890
6fb0
0000
0880
0880
1080
2088
c078
ENDCHAR
STARTCHAR 515D
ENCODING 20829
SWIDTH 520 0
DWIDTH 14 0
BBX 14 14 0 -2
BITMAP
1020
10a0
fe90
1110
1208
7df0
4490
4490
7c90
2910
2910
2a60
4808
87f8
ENDCHAR
STARTCHAR 515E
ENCODING 20830
SWIDTH 520 0
DWIDTH 14 0
BBX 14 14 0 -2
BITMAP
1030
10c0
fe40
1070
10c0
7c40
4478
45c0
7c48
2848
2838
2800
4808
87f8
ENDCHAR
STARTCHAR 515F
ENCODING 20831
SWIDTH 520 0
DWIDTH 14 0
BBX 14 14 0 -2
BITMAP
1040
5140
5140
7df0
9240
1040
fdf8
28a0
28a0
28a0
2aa0
4d28
4928
8218
ENDCHAR
STARTCHAR 5160
ENCODING 20832
SWIDTH 520 0
DWIDTH 14 0
BBX 14 14 0 -2
BITMAP
2220
2420
efa8
28b0
2fa0
28a0
68a8
afa8
2018
0880
0880
1080
2088
c078
ENDCHAR
STARTCHAR 5161
ENCODING 20833
SWIDTH 520 0
DWIDTH 14 0
BBX 14 14 0 -2
BITMAP
1000
11f8
fe40
1080
11f0
7d10
4510
45f0
7d10
2910
29f0
2800
4808
87f8
ENDCHAR
STARTCHAR 5162
ENCODING 20834
SWIDTH 520 0
DWIDTH 14 0
BBX 14 14 0 -2
BITMAP
1040
1040
7df8
1040
7df0
4510
4510
7df0
28a0
28a0
2aa0
4d28
4928
8218
ENDCHAR
STARTCHAR 5163
ENCODING 20835
SWIDTH 520 0
DWIDTH 14 0
BBX 14 14 0 -2
BITMAP
23f8
2200
faf8
22a8
faf8
8aa8
8af8
fa20
52f8
5220
54f8
9808
9008
0ff8
ENDCHAR
STARTCHAR 5164
ENCODING 20836
SWIDTH 520 0
DWIDTH 14 0
BBX 14 14 0 -2
BITMAP
2040
27f8
aca0
75f0
24a0
fdf8
5440
55f0
5550
55f0
5550
59f0
50a8
8ff8
ENDCHAR
STARTCHAR 5165
ENCODING 20837
SWIDTH 520 0
DWIDTH 14 0
BBX 14 14 0 -2
BITMAP
0800
0400
0400
0200
0200
0500
0500
0880
0880
1040
1040
2020
4010
8008
ENDCHAR
STARTCHAR 5166
ENCODING 20838
SWIDTH 520 0
DWIDTH 14 0
BBX 14 14 0 -2
BITMAP
0400
4200
4100
4100
4280
4280
4440
4440
4820
5010
6008
4000
4000
7ff8
ENDCHAR
STARTCHAR 5167
ENCODING 20839
SWIDTH 520 0
DWIDTH 14 0
BBX 14 14 0 -2
BITMAP
0800
0400
0200
7ff0
4210
4210
4510
4510
4890
5090
6050
4010
4010
4070
ENDCHAR
STARTCHAR 5168
ENCODING 20840
SWIDTH 520 0
DWIDTH 14 0
BBX 14 14 0 -2
BITMAP
0200
0200
0500
0880
1040
2020
dfd8
0200
0200
1fc0
0200
0200
0200
fff8
ENDCHAR
STARTCHAR 5169
ENCODING 20841
SWIDTH 520 0
DWIDTH 14 0
BBX 14 14 0 -2
BITMAP
0000
fff8
0200
0200
7ff0
4210
5290
4a50
4a50
56b0
6310
4210
4210
4070
ENDCHAR
STARTCHAR 516A
ENCODING 20842
SWIDTH 520 0
DWIDTH 14 0
BBX 14 14 0 -2
BITMAP
0e00
0500
0880
3060
dfd8
0000
7c90
4490
7d20
4640
7d20
4520
4490
4c90
ENDCHAR
STARTCHAR 516B
ENCODING 20843
SWIDTH 520 0
DWIDTH 14 0
BBX 14 14 0 -2
BITMAP
0080
0080
0880
0880
0880
0880
0840
1040
1040
1040
2020
2020
4010
8008
ENDCHAR
STARTCHAR 516C
ENCODING 20844
SWIDTH 520 0
DWIDTH 14 0
BBX 14 14 0 -2
BITMAP
0100
0900
0880
1080
1040
2020
4410
8408
0800
0900
1080
2040
7fe0
0020
ENDCHAR
STARTCHAR 516D
ENCODING 20845
SWIDTH 520 0
DWIDTH 14 0
BBX 14 14 0 -2
BITMAP
0400
0200
0100
0100
fff8
0000
0000
0880
0840
1020
1010
2010
4008
8008
ENDCHAR
STARTCHAR 516E
ENCODING 20846
SWIDTH 520 0
DWIDTH 14 0
BBX 14 14 0 -2
BITMAP
0880
0880
1040
2020
4010
bfe8
0400
0800
1fc0
0040
0040
0040
0040
0180
ENDCHAR
STARTCHAR 516F
ENCODING 20847
SWIDTH 520 0
DWIDTH 14 0
BBX 14 14 0 -2
BITMAP
2020
1040
0880
0000
fff0
0410
0410
0410
0410
0410
0460
0400
0400
0400
ENDCHAR
STARTCHAR 5170
ENCODING 20848
SWIDTH 520 0
DWIDTH 14 0
BBX 14 14 0 -2
BITMAP
2020
1040
0880
7ff0
0000
0000
0000
0000
3fe0
0000
0000
0000
0000
fff8
ENDCHAR
STARTCHAR 5171
ENCODING 20849
SWIDTH 520 0
DWIDTH 14 0
BBX 14 14 0 -2
BITMAP
1040
1040
1040
7ff0
1040
1040
1040
1040
fff8
0000
1040
2020
4010
8008
ENDCHAR
STARTCHAR 5172
ENCODING 20850
SWIDTH 520 0
DWIDTH 14 0
BBX 14 14 0 -2
BITMAP
0000
7ff0
0200
0200
3fe0
0200
0200
fff8
0000
0880
0880
1040
2020
c018
ENDCHAR
STARTCHAR 5173
ENCODING 20851
SWIDTH 520 0
DWIDTH 14 0
BBX 14 14 0 -2
BITMAP
1040
0840
0880
7ff0
0200
0200
0200
fff8
0500
0500
0880
1040
2020
c018
ENDCHAR
STARTCHAR 5174
ENCODING 20852
SWIDTH 520 0
DWIDTH 14 0
BBX 14 14 0 -2
BITMAP
0810
4410
2220
1240
1080
0000
fff8
0000
0880
0840
1020
2010
4008
8008
ENDCHAR
STARTCHAR 5175
ENCODING 20853
SWIDTH 520 0
DWIDTH 14 0
BBX 14 14 0 -2
BITMAP
00e0
1f00
1000
1000
1ff0
1040
1040
1040
fff8
0000
1040
1020
2010
4010
ENDCHAR
STARTCHAR 5176
ENCODING 20854
SWIDTH 520 0
DWIDTH 14 0
BBX 14 14 0 -2
BITMAP
1040
1040
7ff0
1040
1040
1fc0
1040
1fc0
1040
1040
fff8
1040
2020
4010
ENDCHAR
STARTCHAR 5177
ENCODING 20855
SWIDTH 520 0
DWIDTH 14 0
BBX 14 14 0 -2
BITMAP
3fe0
2020
3fe0
2020
3fe0
2020
3fe0
2020
2020
fff8
0000
1040
2020
4010
ENDCHAR
STARTCHAR 5178
ENCODING 20856
SWIDTH 520 0
DWIDTH 14 0
BBX 14 14 0 -2
BITMAP
0880
0880
7ff0
4890
4890
4890
7ff0
4890
4890
4890
fff8
1040
2020
4010
ENDCHAR
STARTCHAR 5179
ENCODING 20857
SWIDTH 520 0
DWIDTH 14 0
BBX 14 14 0 -2
BITMAP
1040
0840
0880
fff8
1040
1040
2488
4508
f9f0
1020
2040
4890
fdf8
0408
ENDCHAR
STARTCHAR 517A
ENCODING 20858
SWIDTH 520 0
DWIDTH 14 0
BBX 14 14 0 -2
BITMAP
0880
1040
2020
dfd8
0840
0840
1040
6180
0000
7d30
45c0
4500
7d08
44f8
ENDCHAR
STARTCHAR 517B
ENCODING 20859
SWIDTH 520 0
DWIDTH 14 0
BBX 14 14 0 -2
BITMAP
0840
0480
7ff0
0200
3fe0
0400
7ff0
0880
3060
c898
0880
0880
1080
2080
ENDCHAR
STARTCHAR 517C
ENCODING 20860
SWIDTH 520 0
DWIDTH 14 0
BBX 14 14 0 -2
BITMAP
1080
0900
7ff0
0900
7fe0
0920
fff8
0920
7fe0
1980
2940
4920
8918
0900
ENDCHAR
STARTCHAR 517D
ENCODING 20861
SWIDTH 520 0
DWIDTH 14 0
BBX 14 14 0 -2
BITMAP
1040
0880
7ff0
4210
7ff0
4210
7ff0
0000
fff8
0000
3fe0
2020
2020
3fe0
ENDCHAR
STARTCHAR 517E
ENCODING 20862
SWIDTH 520 0
DWIDTH 14 0
BBX 14 14 0 -2
BITMAP
2020
1040
7ff0
4210
7ff0
4210
7ff0
1040
7ff0
1040
fff8
1040
2020
4010
ENDCHAR
STARTCHAR 517F
ENCODING 20863
SWIDTH 520 0
DWIDTH 14 0
BBX 14 14 0 -2
BITMAP
1040
0880
fff8
2080
fbe0
20a0
faa8
2118
6288
3fe0
0000
fff8
1040
3fe0
ENDCHAR
STARTCHAR 5180
ENCODING 20864
SWIDTH 520 0
DWIDTH 14 0
BBX 14 14 0 -2
BITMAP
0890
78e0
0888
f878
3fe0
2220
3fe0
2220
3fe0
1040
7ff0
1040
fff8
2020
ENDCHAR
STARTCHAR 5181
ENCODING 20865
SWIDTH 520 0
DWIDTH 14 0
BBX 14 14 0 -2
BITMAP
8800
53f0
fa10
abf0
aaa0
fbf0
aaa0
aaa0
fbf8
2280
fad0
22a0
22d0
2488
ENDCHAR
STARTCHAR 5182
ENCODING 20866
SWIDTH 520 0
DWIDTH 14 0
BBX 14 14 0 -2
BITMAP
0000
7ff8
4008
4008
4008
4008
4008
4008
4008
4008
4008
4008
4008
4038
ENDCHAR
STARTCHAR 5183
ENCODING 20867
SWIDTH 520 0
DWIDTH 14 0
BBX 14 14 0 -2
BITMAP
0000
7ff8
4008
4008
4008
5fe8
4008
4008
4008
5fe8
4008
4008
4008
4038
ENDCHAR
STARTCHAR 5184
ENCODING 20868
SWIDTH 520 0
DWIDTH 14 0
BBX 14 14 0 -2
BITMAP
0000
3fe0
2020
2020
2020
fff8
2020
2020
2020
fff8
2020
2020
2020
20e0
ENDCHAR
STARTCHAR 5185
ENCODING 20869
SWIDTH 520 0
DWIDTH 14 0
BBX 14 14 0 -2
BITMAP
0200
0200
0200
7ff8
4208
4208
4508
4888
5048
6028
4008
4008
4008
4038
ENDCHAR
STARTCHAR 5186
ENCODING 20870
SWIDTH 520 0
DWIDTH 14 0
BBX 14 14 0 -2
BITMAP
0000
7ff8
4208
4208
4208
4208
4208
7ff8
4008
4008
4008
4008
4008
4038
ENDCHAR
STARTCHAR 5187
ENCODING 20871
SWIDTH 520 0
DWIDTH 14 0
BBX 14 14 0 -2
BITMAP
0400
0400
fff8
0800
1000
3fe0
5020
9020
1020
1020
1020
1020
1020
10e0
ENDCHAR
STARTCHAR 5188
ENCODING 20872
SWIDTH 520 0
DWIDTH 14 0
BBX 14 14 0 -2
BITMAP
0000
7ff8
4008
4028
4828
4448
4288
4108
4288
4448
4828
5028
4008
4038
ENDCHAR
STARTCHAR 5189
ENCODING 20873
SWIDTH 520 0
DWIDTH 14 0
BBX 14 14 0 -2
BITMAP
0200
0200
7ff0
4210
4210
7ff0
4210
4210
4210
fff8
4010
4010
4010
4070
ENDCHAR
STARTCHAR 518A
ENCODING 20874
SWIDTH 520 0
DWIDTH 14 0
BBX 14 14 0 -2
BITMAP
0000
7ff0
4890
4890
4890
4890
fff8
4890
4890
4890
4890
4890
4890
4030
ENDCHAR
STARTCHAR 518B
ENCODING 20875
SWIDTH 520 0
DWIDTH 14 0
BBX 14 14 0 -2
BITMAP
0000
7ff8
4008
4008
4fc8
4848
4848
4848
4848
4fc8
4008
4008
4008
4038
ENDCHAR
STARTCHAR 518C
ENCODING 20876
SWIDTH 520 0
DWIDTH 14 0
BBX 14 14 0 -2
BITMAP
0000
3cf0
2490
2490
2490
2490
fff8
2490
2490
2490
2490
4510
5d10
8270
ENDCHAR
STARTCHAR 518D
ENCODING 20877
SWIDTH 520 0
DWIDTH 14 0
BBX 14 14 0 -2
BITMAP
fff8
0200
0200
7ff0
4210
4210
7ff0
4210
4210
fff8
4010
4010
4010
4070
ENDCHAR
STARTCHAR 518E
ENCODING 20878
SWIDTH 520 0
DWIDTH 14 0
BBX 14 14 0 -2
BITMAP
0000
1fc0
1040
1e40
1240
1240
7ff0
4010
4010
4010
4010
4010
4010
4070
ENDCHAR
STARTCHAR 518F
ENCODING 20879
SWIDTH 520 0
DWIDTH 14 0
BBX 14 14 0 -2
BITMAP
0000
7ff8
4008
4848
5028
6018
4fc8
4848
4848
4848
4fc8
4008
4008
4038
ENDCHAR
STARTCHAR 5190
ENCODING 20880
SWIDTH 520 0
DWIDTH 14 0
BBX 14 14 0 -2
BITMAP
0000
7ff0
4010
5fd0
4010
5fd0
0000
3fe0
2020
3fe0
2020
3fe0
2020
20e0
ENDCHAR
STARTCHAR 5191
ENCODING 20881
SWIDTH 520 0
DWIDTH 14 0
BBX 14 14 0 -2
BITMAP
0200
7ff0
4210
7ff0
4210
7ff0
0000
3fe0
2020
2fa0
2020
2fa0
2020
20e0
ENDCHAR
STARTCHAR 5192
ENCODING 20882
SWIDTH 520 0
DWIDTH 14 0
BBX 14 14 0 -2
BITMAP
0000
7ff0
4010
5fd0
4010
5fd0
0000
3fe0
2020
3fe0
2020
3fe0
2020
3fe0
ENDCHAR
STARTCHAR 5193
ENCODING 20883
SWIDTH 520 0
DWIDTH 14 0
BBX 14 14 0 -2
BITMAP
0880
7ff0
0880
3fe0
0880
fff8
0200
3fe0
2220
3fe0
2220
fff8
2020
20e0
ENDCHAR
STARTCHAR 5194
ENCODING 20884
SWIDTH 520 0
DWIDTH 14 0
BBX 14 14 0 -2
BITMAP
0000
7ff0
4010
5fd0
4010
5fd0
0000
79f0
4840
4840
4bf8
7840
4840
01c0
ENDCHAR
STARTCHAR 5195
ENCODING 20885
SWIDTH 520 0
DWIDTH 14 0
BBX 14 14 0 -2
BITMAP
7ff0
4010
5fd0
4010
5fd0
1000
1f80
2100
7fe0
a220
3fe0
0500
1908
e0f8
ENDCHAR
STARTCHAR 5196
ENCODING 20886
SWIDTH 520 0
DWIDTH 14 0
BBX 14 14 0 -2
BITMAP
0000
fff8
8008
8008
0000
0000
0000
0000
0000
0000
0000
0000
0000
0000
ENDCHAR
STARTCHAR 5197
ENCODING 20887
SWIDTH 520 0
DWIDTH 14 0
BBX 14 14 0 -2
BITMAP
0000
fff8
8008
8008
0000
1fc0
1040
1040
1040
1040
2040
2048
4048
8038
ENDCHAR
STARTCHAR 5198
ENCODING 20888
SWIDTH 520 0
DWIDTH 14 0
BBX 14 14 0 -2
BITMAP
0200
0200
0200
7ff0
4210
4410
0500
0500
0900
0900
1100
2108
4108
80f8
ENDCHAR
STARTCHAR 5199
ENCODING 20889
SWIDTH 520 0
DWIDTH 14 0
BBX 14 14 0 -2
BITMAP
0000
fff8
8008
1000
1fe0
1000
2000
3ff0
0010
0010
ffd0
0010
0010
0060
ENDCHAR
STARTCHAR 519A
ENCODING 20890
SWIDTH 520 0
DWIDTH 14 0
BBX 14 14 0 -2
BITMAP
0000
fff8
8008
8208
0200
0200
4210
4210
4210
4210
4210
4210
7ff0
0010
ENDCHAR
STARTCHAR 519B
ENCODING 20891
SWIDTH 520 0
DWIDTH 14 0
BBX 14 14 0 -2
BITMAP
0000
fff8
8408
0400
7ff0
0800
1200
3fe0
0200
0200
fff8
0200
0200
0200
ENDCHAR
STARTCHAR 519C
ENCODING 20892
SWIDTH 520 0
DWIDTH 14 0
BBX 14 14 0 -2
BITMAP
0200
0200
7ff0
4210
4410
0400
0a10
1220
3140
5080
9040
1420
1818
1000
ENDCHAR
STARTCHAR 519D
ENCODING 20893
SWIDTH 520 0
DWIDTH 14 0
BBX 14 14 0 -2
BITMAP
0000
fff8
8008
8008
3fe0
2020
2020
3fe0
2020
2020
3fe0
2020
2020
fff8
ENDCHAR
STARTCHAR 519E
ENCODING 20894
SWIDTH 520 0
DWIDTH 14 0
BBX 14 14 0 -2
BITMAP
0000
fff8
8008
8008
0200
2220
1240
0200
7ff0
0a80
1240
2220
c218
0200
ENDCHAR
STARTCHAR 519F
ENCODING 20895
SWIDTH 520 0
DWIDTH 14 0
BBX 14 14 0 -2
BITMAP
0000
fff8
8808
3fe0
2020
3fe0
2020
3fe0
0000
20e0
3f00
2000
2010
1ff0
ENDCHAR
STARTCHAR 51A0
ENCODING 20896
SWIDTH 520 0
DWIDTH 14 0
BBX 14 14 0 -2
BITMAP
0000
fff8
8008
0020
7c20
01f8
0020
fd20
28a0
2820
2820
28e8
4808
87f8
ENDCHAR
STARTCHAR 51A1
ENCODING 20897
SWIDTH 520 0
DWIDTH 14 0
BBX 14 14 0 -2
BITMAP
fff8
8008
1fc0
0000
7ff0
0c00
1220
6540
0980
3340
c540
1920
e118
0600
ENDCHAR
STARTCHAR 51A2
ENCODING 20898
SWIDTH 520 0
DWIDTH 14 0
BBX 14 14 0 -2
BITMAP
0000
fff8
8008
0000
7ff0
0c00
1220
7540
0d80
3340
c540
1920
e118
0600
ENDCHAR
STARTCHAR 51A3
ENCODING 20899
SWIDTH 520 0
DWIDTH 14 0
BBX 14 14 0 -2
BITMAP
0000
fff8
8008
0000
fc00
49f0
7890
4890
7890
48a0
4ea0
f840
08a0
0918
ENDCHAR
STARTCHAR 51A4
ENCODING 20900
SWIDTH 520 0
DWIDTH 14 0
BBX 14 14 0 -2
BITMAP
0000
fff8
9008
1fc0
2080
4100
bff0
2210
2210
3ff0
0500
0940
3128
c0f8
ENDCHAR
STARTCHAR 51A5
ENCODING 20901
SWIDTH 520 0
DWIDTH 14 0
BBX 14 14 0 -2
BITMAP
0000
fff8
8008
3fe0
2020
3fe0
2020
3fe0
0400
0200
fff8
1040
2020
4010
ENDCHAR
STARTCHAR 51A6
ENCODING 20902
SWIDTH 520 0
DWIDTH 14 0
BBX 14 14 0 -2
BITMAP
0000
fff8
8008
0080
7ce0
0080
01e0
fc20
2940
2880
2940
2a28
4808
87f8
ENDCHAR
STARTCHAR 51A7
ENCODING 20903
SWIDTH 520 0
DWIDTH 14 0
BBX 14 14 0 -2
BITMAP
0000
fff8
8008
1040
1040
fdf8
1040
3060
38e0
54d0
5150
9248
1040
1040
ENDCHAR
STARTCHAR 51A8
ENCODING 20904
SWIDTH 520 0
DWIDTH 14 0
BBX 14 14 0 -2
BITMAP
0000
fff8
8008
3fe0
0000
3fe0
2020
3fe0
0000
7ff0
4210
7ff0
4210
7ff0
ENDCHAR
STARTCHAR 51A9
ENCODING 20905
SWIDTH 520 0
DWIDTH 14 0
BBX 14 14 0 -2
BITMAP
0000
fff8
8008
0400
39e0
2020
3de0
2020
3fe0
1000
3ff0
4010
aa90
2ab0
ENDCHAR
STARTCHAR 51AA
ENCODING 20906
SWIDTH 520 0
DWIDTH 14 0
BBX 14 14 0 -2
BITMAP
fff8
8888
3fe0
0880
3fe0
2020
3fe0
2020
fff8
0880
3260
dfd8
1240
12c0
ENDCHAR
STARTCHAR 51AB
ENCODING 20907
SWIDTH 520 0
DWIDTH 14 0
BBX 14 14 0 -2
BITMAP
0000
4000
2000
2000
0000
0000
0000
1000
1000
2000
2000
4000
4000
0000
ENDCHAR
STARTCHAR 51AC
ENCODING 20908
SWIDTH 520 0
DWIDTH 14 0
BBX 14 14 0 -2
BITMAP
0800
0800
0fc0
1040
2880
4500
0200
0d80
3060
c618
0180
1c00
0300
0080
ENDCHAR
STARTCHAR 51AD
ENCODING 20909
SWIDTH 520 0
DWIDTH 14 0
BBX 14 14 0 -2
BITMAP
0200
0200
fff8
0500
0880
3060
c018
0600
0180
0040
1800
0600
0180
0040
ENDCHAR
STARTCHAR 51AE
ENCODING 20910
SWIDTH 520 0
DWIDTH 14 0
BBX 14 14 0 -2
BITMAP
0000
4000
2ff8
2080
0080
0080
0080
2080
2080
4080
4080
8080
8080
1ff8
ENDCHAR
STARTCHAR 51AF
ENCODING 20911
SWIDTH 520 0
DWIDTH 14 0
BBX 14 14 0 -2
BITMAP
0000
4fe0
2020
2420
0420
0420
07f8
2008
2008
4fe8
4008
8008
8008
0030
ENDCHAR
STARTCHAR 51B0
ENCODING 20912
SWIDTH 520 0
DWIDTH 14 0
BBX 14 14 0 -2
BITMAP
0080
4080
2088
2e90
02a0
02c0
02c0
24a0
24a0
4890
5088
8080
8080
0380
ENDCHAR
STARTCHAR 51B1
ENCODING 20913
SWIDTH 520 0
DWIDTH 14 0
BBX 14 14 0 -2
BITMAP
0000
4ff8
2200
2200
03f0
0210
0210
1410
1410
27f0
2020
4020
4020
0ff8
ENDCHAR
STARTCHAR 51B2
ENCODING 20914
SWIDTH 520 0
DWIDTH 14 0
BBX 14 14 0 -2
BITMAP
0080
4080
2080
2ff8
0888
0888
0888
2888
2ff8
4888
4080
8080
8080
0080
ENDCHAR
STARTCHAR 51B3
ENCODING 20915
SWIDTH 520 0
DWIDTH 14 0
BBX 14 14 0 -2
BITMAP
0100
4100
27f0
2110
0110
0110
0110
2ff8
2140
4140
4220
8220
8410
0808
ENDCHAR
STARTCHAR 51B4
ENCODING 20916
SWIDTH 520 0
DWIDTH 14 0
BBX 14 14 0 -2
BITMAP
0000
4ff0
2040
2440
0440
0840
0ff8
2140
2240
4240
4440
8840
9040
01c0
ENDCHAR
STARTCHAR 51B5
ENCODING 20917
SWIDTH 520 0
DWIDTH 14 0
BBX 14 14 0 -2
BITMAP
0000
4ff0
2810
2810
0810
0810
0ff0
2240
2240
4240
4440
8448
8848
1038
ENDCHAR
STARTCHAR 51B6
ENCODING 20918
SWIDTH 520 0
DWIDTH 14 0
BBX 14 14 0 -2
BITMAP
0200
4200
2420
2410
0810
1ff8
0008
2000
2ff0
4810
4810
8810
8ff0
0810
ENDCHAR
STARTCHAR 51B7
ENCODING 20919
SWIDTH 520 0
DWIDTH 14 0
BBX 14 14 0 -2
BITMAP
0080
4080
2140
2220
0510
0888
0000
17f0
1010
2020
2240
4180
4080
0040
ENDCHAR
STARTCHAR 51B8
ENCODING 20920
SWIDTH 520 0
DWIDTH 14 0
BBX 14 14 0 -2
BITMAP
0080
4490
2290
22a0
0080
07f0
0080
1080
1080
2ff8
2080
4080
4080
0080
ENDCHAR
STARTCHAR 51B9
ENCODING 20921
SWIDTH 520 0
DWIDTH 14 0
BBX 14 14 0 -2
BITMAP
0120
8110
4100
5ff8
0200
0200
0400
47e0
4a20
4a20
9140
a080
8360
0c18
ENDCHAR
STARTCHAR 51BA
ENCODING 20922
SWIDTH 520 0
DWIDTH 14 0
BBX 14 14 0 -2
BITMAP
0000
47f0
2410
2410
07f0
0440
0440
17f8
1440
2440
2428
4528
4618
0408
ENDCHAR
STARTCHAR 51BB
ENCODING 20923
SWIDTH 520 0
DWIDTH 14 0
BBX 14 14 0 -2
BITMAP
0100
4100
2ff8
2200
0480
0480
07f0
2080
2080
44a0
4490
8888
9088
0380
ENDCHAR
STARTCHAR 51BC
ENCODING 20924
SWIDTH 520 0
DWIDTH 14 0
BBX 14 14 0 -2
BITMAP
0080
4480
2480
27f0
0480
0880
0080
2ff8
2240
4240
4240
8448
8848
1038
ENDCHAR
STARTCHAR 51BD
ENCODING 20925
SWIDTH 520 0
DWIDTH 14 0
BBX 14 14 0 -2
BITMAP
0010
9f90
4410
4450
0750
0950
0950
4950
5550
4250
8210
8410
8810
1070
ENDCHAR
STARTCHAR 51BE
ENCODING 20926
SWIDTH 520 0
DWIDTH 14 0
BBX 14 14 0 -2
BITMAP
0080
4080
2140
2220
0410
0be8
0000
1000
17f0
2410
2410
4410
47f0
0410
ENDCHAR
STARTCHAR 51BF
ENCODING 20927
SWIDTH 520 0
DWIDTH 14 0
BBX 14 14 0 -2
BITMAP
0080
4080
27f0
2090
0ff8
0090
07f0
2080
27f0
4080
4ff8
8080
8080
0080
ENDCHAR
STARTCHAR 51C0
ENCODING 20928
SWIDTH 520 0
DWIDTH 14 0
BBX 14 14 0 -2
BITMAP
0200
43e0
2420
2840
07f0
0090
0090
2ff8
2090
4090
47f0
8090
8080
0380
ENDCHAR
STARTCHAR 51C1
ENCODING 20929
SWIDTH 520 0
DWIDTH 14 0
BBX 14 14 0 -2
BITMAP
0080
4080
2ff8
2080
0080
07f0
0490
2490
27f0
41c0
42a0
8490
8888
0080
ENDCHAR
STARTCHAR 51C2
ENCODING 20930
SWIDTH 520 0
DWIDTH 14 0
BBX 14 14 0 -2
BITMAP
0100
4100
23e0
2420
0840
07f0
0490
2490
27f0
4140
4140
8240
8448
0838
ENDCHAR
STARTCHAR 51C3
ENCODING 20931
SWIDTH 520 0
DWIDTH 14 0
BBX 14 14 0 -2
BITMAP
0080
4080
2140
2220
0410
0be8
0080
2080
27f0
4080
4490
8488
8888
0380
ENDCHAR
STARTCHAR 51C4
ENCODING 20932
SWIDTH 520 0
DWIDTH 14 0
BBX 14 14 0 -2
BITMAP
0080
4ff8
2080
27f0
0090
0ff8
0090
27f0
2100
4ff8
4220
8720
80c0
0730
ENDCHAR
STARTCHAR 51C5
ENCODING 20933
SWIDTH 520 0
DWIDTH 14 0
BBX 14 14 0 -2
BITMAP
0000
4ff8
2888
2888
0ff8
0888
0888
2be8
2a28
4a28
4be8
8808
8ff8
0808
ENDCHAR
STARTCHAR 51C6
ENCODING 20934
SWIDTH 520 0
DWIDTH 14 0
BBX 14 14 0 -2
BITMAP
0240
4220
2400
27f8
0c40
1440
07f0
2440
2440
47f0
4440
8440
87f8
0400
ENDCHAR
STARTCHAR 51C7
ENCODING 20935
SWIDTH 520 0
DWIDTH 14 0
BBX 14 14 0 -2
BITMAP
0400
84a0
44a0
5ea0
0510
0510
0e08
4d40
5440
4480
84a0
8510
85f0
0410
ENDCHAR
STARTCHAR 51C8
ENCODING 20936
SWIDTH 520 0
DWIDTH 14 0
BBX 14 14 0 -2
BITMAP
0038
4fc0
2510
22a0
07f0
0090
0090
2ff8
2090
4090
47f0
8090
8080
0380
ENDCHAR
STARTCHAR 51C9
ENCODING 20937
SWIDTH 520 0
DWIDTH 14 0
BBX 14 14 0 -2
BITMAP
0100
4080
2ff8
2000
0000
07f0
0410
2410
27f0
4080
44a0
8890
9088
0380
ENDCHAR
STARTCHAR 51CA
ENCODING 20938
SWIDTH 520 0
DWIDTH 14 0
BBX 14 14 0 -2
BITMAP
0080
47f0
2080
27f0
0080
0ff8
0000
27f0
2410
47f0
4410
87f0
8410
0470
ENDCHAR
STARTCHAR 51CB
ENCODING 20939
SWIDTH 520 0
DWIDTH 14 0
BBX 14 14 0 -2
BITMAP
0000
47f8
2488
2488
05e8
0488
07f8
1408
15e8
2528
2528
45e8
4408
0838
ENDCHAR
STARTCHAR 51CC
ENCODING 20940
SWIDTH 520 0
DWIDTH 14 0
BBX 14 14 0 -2
BITMAP
0080
4080
27f0
2080
0080
0ff8
0220
2510
29e8
4220
4540
8080
8360
0c18
ENDCHAR
STARTCHAR 51CD
ENCODING 20941
SWIDTH 520 0
DWIDTH 14 0
BBX 14 14 0 -2
BITMAP
0080
4080
2ff8
2080
07f0
0490
07f0
2490
27f0
41c0
42a0
8490
8888
0080
ENDCHAR
STARTCHAR 51CE
ENCODING 20942
SWIDTH 520 0
DWIDTH 14 0
BBX 14 14 0 -2
BITMAP
0080
4080
2140
2220
0c18
03e0
0080
2080
27f0
4080
4490
82a0
8080
0ff8
ENDCHAR
STARTCHAR 51CF
ENCODING 20943
SWIDTH 520 0
DWIDTH 14 0
BBX 14 14 0 -2
BITMAP
0028
4020
2ff8
2820
0820
0ba0
0828
2ba8
2ab0
4ab0
4ba8
8868
8898
1108
ENDCHAR
STARTCHAR 51D0
ENCODING 20944
SWIDTH 520 0
DWIDTH 14 0
BBX 14 14 0 -2
BITMAP
0000
47f0
2140
2140
07f0
0550
0550
27f0
2080
4080
47f0
8080
8080
0ff8
ENDCHAR
STARTCHAR 51D1
ENCODING 20945
SWIDTH 520 0
DWIDTH 14 0
BBX 14 14 0 -2
BITMAP
0080
47f0
2080
23e0
0100
0ff8
0220
2410
2be8
4080
47f0
8140
8220
0c10
ENDCHAR
STARTCHAR 51D2
ENCODING 20946
SWIDTH 520 0
DWIDTH 14 0
BBX 14 14 0 -2
BITMAP
0080
4490
2490
27f0
0000
07f0
0000
27f0
2410
4410
47f0
8220
8140
0ff8
ENDCHAR
STARTCHAR 51D3
ENCODING 20947
SWIDTH 520 0
DWIDTH 14 0
BBX 14 14 0 -2
BITMAP
0000
47f8
2140
27f0
0550
0550
07f0
1080
1080
27f8
21c0
42a0
4c98
0080
ENDCHAR
STARTCHAR 51D4
ENCODING 20948
SWIDTH 520 0
DWIDTH 14 0
BBX 14 14 0 -2
BITMAP
0080
4140
2220
2498
0be0
0220
03e0
1220
13e0
2400
27f0
4a10
43f0
0210
ENDCHAR
STARTCHAR 51D5
ENCODING 20949
SWIDTH 520 0
DWIDTH 14 0
BBX 14 14 0 -2
BITMAP
0000
47f8
2408
23f0
0210
03f0
0210
13f0
1080
2040
27f8
4000
4210
0408
ENDCHAR
STARTCHAR 51D6
ENCODING 20950
SWIDTH 520 0
DWIDTH 14 0
BBX 14 14 0 -2
BITMAP
4280
27f8
0440
07f0
2c40
27f0
4440
47f8
0400
0200
fff8
0200
0200
0200
ENDCHAR
STARTCHAR 51D7
ENCODING 20951
SWIDTH 520 0
DWIDTH 14 0
BBX 14 14 0 -2
BITMAP
0080
4490
2490
27f0
0280
0440
0ff8
3480
27f0
4480
47f0
8480
87f8
0400
ENDCHAR
STARTCHAR 51D8
ENCODING 20952
SWIDTH 520 0
DWIDTH 14 0
BBX 14 14 0 -2
BITMAP
0518
4560
2fc0
2540
0540
0778
0550
2750
2550
4550
4fd0
8050
8550
0890
ENDCHAR
STARTCHAR 51D9
ENCODING 20953
SWIDTH 520 0
DWIDTH 14 0
BBX 14 14 0 -2
BITMAP
0000
47f0
2550
27f0
0080
07f0
0080
2ff8
2140
47f0
4080
8ff8
8080
0080
ENDCHAR
STARTCHAR 51DA
ENCODING 20954
SWIDTH 520 0
DWIDTH 14 0
BBX 14 14 0 -2
BITMAP
0220
4220
2f78
2220
0770
0aa8
0220
27f0
2000
4ff8
4080
8490
8888
0380
ENDCHAR
STARTCHAR 51DB
ENCODING 20955
SWIDTH 520 0
DWIDTH 14 0
BBX 14 14 0 -2
BITMAP
0080
4ff8
2000
27f0
0410
05d0
0550
27f0
2000
47f0
4000
8ff8
8490
0988
ENDCHAR
STARTCHAR 51DC
ENCODING 20956
SWIDTH 520 0
DWIDTH 14 0
BBX 14 14 0 -2
BITMAP
0080
4ff8
2000
27f0
0410
05d0
0550
27f0
2010
47e0
4080
8ff8
82a0
0c98
ENDCHAR
STARTCHAR 51DD
ENCODING 20957
SWIDTH 520 0
DWIDTH 14 0
BBX 14 14 0 -2
BITMAP
0800
8af0
4c10
4aa0
0640
09f0
0e50
5440
4540
5f70
8540
8540
8ac0
1230
ENDCHAR
STARTCHAR 51DE
ENCODING 20958
SWIDTH 520 0
DWIDTH 14 0
BBX 14 14 0 -2
BITMAP
17b8
9528
5528
57a8
14b8
17a0
1520
5528
5528
5798
a000
8a90
8948
1148
ENDCHAR
STARTCHAR 51DF
ENCODING 20959
SWIDTH 520 0
DWIDTH 14 0
BBX 14 14 0 -2
BITMAP
0080
47f8
2080
27f0
0000
0ff8
0948
2ff8
2650
4530
4490
87f0
8220
0410
ENDCHAR
STARTCHAR 51E0
ENCODING 20960
SWIDTH 520 0
DWIDTH 14 0
BBX 14 14 0 -2
BITMAP
1fc0
1040
1040
1040
1040
1040
1040
1040
1040
1040
2040
2048
4048
8038
ENDCHAR
STARTCHAR 51E1
ENCODING 20961
SWIDTH 520 0
DWIDTH 14 0
BBX 14 14 0 -2
BITMAP
1fc0
1040
1040
1040
1040
1440
1240
1240
1040
1040
2040
2048
4048
8038
ENDCHAR
STARTCHAR 51E2
ENCODING 20962
SWIDTH 520 0
DWIDTH 14 0
BBX 14 14 0 -2
BITMAP
0200
0200
0400
1f80
1080
1080
1080
1080
1080
1080
2080
2088
4088
8078
ENDCHAR
STARTCHAR 51E3
ENCODING 20963
SWIDTH 520 0
DWIDTH 14 0
BBX 14 14 0 -2
BITMAP
0400
0400
0400
1f80
1080
1080
1080
1080
1080
1080
2080
2088
4088
8078
ENDCHAR
STARTCHAR 51E4
ENCODING 20964
SWIDTH 520 0
DWIDTH 14 0
BBX 14 14 0 -2
BITMAP
7fe0
4020
4020
5fa0
40a0
40a0
48a0
4520
4220
4520
48a8
50a8
4018
8008
ENDCHAR
STARTCHAR 51E5
ENCODING 20965
SWIDTH 520 0
DWIDTH 14 0
BBX 14 14 0 -2
BITMAP
0000
3ff0
2010
2010
3ff0
2000
2000
27c0
2440
2440
2440
4848
4848
9038
ENDCHAR
STARTCHAR 51E6
ENCODING 20966
SWIDTH 520 0
DWIDTH 14 0
BBX 14 14 0 -2
BITMAP
2000
21e0
2120
3d20
4520
4520
4520
a528
2928
2a18
1000
2c00
43f8
8000
ENDCHAR
STARTCHAR 51E7
ENCODING 20967
SWIDTH 520 0
DWIDTH 14 0
BBX 14 14 0 -2
BITMAP
0000
7fe0
4420
4420
4420
5fa0
54a0
54a0
54a0
54a0
55a0
4428
4418
8408
ENDCHAR
STARTCHAR 51E8
ENCODING 20968
SWIDTH 520 0
DWIDTH 14 0
BBX 14 14 0 -2
BITMAP
0000
7fe0
4020
4020
5f20
4020
4020
7fe0
4420
4420
4920
48a8
5f98
8008
ENDCHAR
STARTCHAR 51E9
ENCODING 20969
SWIDTH 520 0
DWIDTH 14 0
BBX 14 14 0 -2
BITMAP
0000
7fe0
4020
4220
4220
5fa0
4220
4620
4720
4aa0
52a0
4228
4218
8008
ENDCHAR
STARTCHAR 51EA
ENCODING 20970
SWIDTH 520 0
DWIDTH 14 0
BBX 14 14 0 -2
BITMAP
0000
7fe0
4020
4220
4220
4a20
4a20
4ba0
4a20
4a20
4a20
4a28
5fd8
8008
ENDCHAR
STARTCHAR 51EB
ENCODING 20971
SWIDTH 520 0
DWIDTH 14 0
BBX 14 14 0 -2
BITMAP
0800
1000
7fc0
4040
4840
4580
4000
7ff0
0010
3f10
2160
2100
4108
80f8
ENDCHAR
STARTCHAR 51EC
ENCODING 20972
SWIDTH 520 0
DWIDTH 14 0
BBX 14 14 0 -2
BITMAP
0000
7fe0
4020
4020
5fa0
4020
5fa0
50a0
50a0
5fa0
50a0
50a8
5f98
8008
ENDCHAR
STARTCHAR 51ED
ENCODING 20973
SWIDTH 520 0
DWIDTH 14 0
BBX 14 14 0 -2
BITMAP
1070
1780
2080
6080
aff8
2080
2080
27f0
0000
1f80
1080
1080
2088
c078
ENDCHAR
STARTCHAR 51EE
ENCODING 20974
SWIDTH 520 0
DWIDTH 14 0
BBX 14 14 0 -2
BITMAP
0000
7fe0
4020
4020
5fa0
4420
5fa0
50a0
50a0
5fa0
50a0
50a8
5f98
8008
ENDCHAR
STARTCHAR 51EF
ENCODING 20975
SWIDTH 520 0
DWIDTH 14 0
BBX 14 14 0 -2
BITMAP
1000
95e0
9520
9520
fd20
0120
fd20
0520
0520
fd20
8120
8d28
b128
c218
ENDCHAR
STARTCHAR 51F0
ENCODING 20976
SWIDTH 520 0
DWIDTH 14 0
BBX 14 14 0 -2
BITMAP
7fe0
4420
5fa0
50a0
5fa0
50a0
5fa0
4020
5fa0
4420
5fa8
4428
4418
bfc8
ENDCHAR
STARTCHAR 51F1
ENCODING 20977
SWIDTH 520 0
DWIDTH 14 0
BBX 14 14 0 -2
BITMAP
1000
95e0
9520
fd20
0120
fd20
0120
fd20
8520
fd20
4520
2928
1d28
e218
ENDCHAR
STARTCHAR 51F2
ENCODING 20978
SWIDTH 520 0
DWIDTH 14 0
BBX 14 14 0 -2
BITMAP
7ff0
4890
4510
5ff0
4510
5fd0
4550
7ff0
4550
5fd0
4510
4d90
5558
a528
ENDCHAR
STARTCHAR 51F3
ENCODING 20979
SWIDTH 520 0
DWIDTH 14 0
BBX 14 14 0 -2
BITMAP
0120
7940
0888
5750
2020
5fd8
9040
1fc0
0880
fff8
0000
1f80
1090
6070
ENDCHAR
STARTCHAR 51F4
ENCODING 20980
SWIDTH 520 0
DWIDTH 14 0
BBX 14 14 0 -2
BITMAP
0000
47f8
2480
07f0
0480
27f0
4480
87f8
8008
2ab0
0000
1f80
1090
6070
ENDCHAR
STARTCHAR 51F5
ENCODING 20981
SWIDTH 520 0
DWIDTH 14 0
BBX 14 14 0 -2
BITMAP
0000
0000
0000
8008
8008
8008
8008
8008
8008
8008
8008
8008
fff8
0008
ENDCHAR
STARTCHAR 51F6
ENCODING 20982
SWIDTH 520 0
DWIDTH 14 0
BBX 14 14 0 -2
BITMAP
0020
2020
1040
8888
8508
8208
8508
8888
9048
a048
8008
8008
fff8
0008
ENDCHAR
STARTCHAR 51F7
ENCODING 20983
SWIDTH 520 0
DWIDTH 14 0
BBX 14 14 0 -2
BITMAP
0200
0200
0200
9fc8
8208
8208
8208
8208
bfe8
8008
8008
8008
fff8
0008
ENDCHAR
STARTCHAR 51F8
ENCODING 20984
SWIDTH 520 0
DWIDTH 14 0
BBX 14 14 0 -2
BITMAP
0000
0fc0
0840
0840
0840
0840
7878
4008
4008
4008
4008
4008
7ff8
4008
ENDCHAR
STARTCHAR 51F9
ENCODING 20985
SWIDTH 520 0
DWIDTH 14 0
BBX 14 14 0 -2
BITMAP
0000
7878
4848
4848
4848
4848
4848
4848
4fc8
4008
4008
4008
7ff8
4008
ENDCHAR
STARTCHAR 51FA
ENCODING 20986
SWIDTH 520 0
DWIDTH 14 0
BBX 14 14 0 -2
BITMAP
0200
4210
4210
4210
4210
7ff0
0200
0200
8208
8208
8208
8208
fff8
0008
ENDCHAR
STARTCHAR 51FB
ENCODING 20987
SWIDTH 520 0
DWIDTH 14 0
BBX 14 14 0 -2
BITMAP
0200
0200
7ff0
0200
0200
0200
fff8
0200
0200
4210
4210
4210
4210
7ff0
ENDCHAR
STARTCHAR 51FC
ENCODING 20988
SWIDTH 520 0
DWIDTH 14 0
BBX 14 14 0 -2
BITMAP
0200
0200
0220
ba28
8b48
8b08
9288
9288
a248
c248
8e08
8008
fff8
0008
ENDCHAR
STARTCHAR 51FD
ENCODING 20989
SWIDTH 520 0
DWIDTH 14 0
BBX 14 14 0 -2
BITMAP
3fc0
0080
2120
9248
8a88
8208
8a88
9248
a228
8208
8e08
8008
fff8
0008
ENDCHAR
STARTCHAR 51FE
ENCODING 20990
SWIDTH 520 0
DWIDTH 14 0
BBX 14 14 0 -2
BITMAP
1fc0
0080
0100
bae8
aa28
ab28
aaa8
aa48
baa8
8328
8e08
8008
fff8
0008
ENDCHAR
STARTCHAR 51FF
ENCODING 20991
SWIDTH 520 0
DWIDTH 14 0
BBX 14 14 0 -2
BITMAP
0880
4890
28a0
0880
fff8
0880
4510
5fd0
4210
4210
5fd0
4210
4210
7ff0
ENDCHAR
STARTCHAR 5200
ENCODING 20992
SWIDTH 520 0
DWIDTH 14 0
BBX 14 14 0 -2
BITMAP
0000
fff0
0810
0810
0810
0810
0810
0810
0810
1010
1010
2010
4020
80c0
ENDCHAR
STARTCHAR 5201
ENCODING 20993
SWIDTH 520 0
DWIDTH 14 0
BBX 14 14 0 -2
BITMAP
0000
7ff0
0010
0010
0090
0110
0210
0410
0810
1010
2010
c010
0020
00c0
ENDCHAR
STARTCHAR 5202
ENCODING 20994
SWIDTH 520 0
DWIDTH 14 0
BBX 14 14 0 -2
BITMAP
0010
0010
0010
0090
0090
0090
0090
0090
0090
0090
0010
0010
0010
0070
ENDCHAR
STARTCHAR 5203
ENCODING 20995
SWIDTH 520 0
DWIDTH 14 0
BBX 14 14 0 -2
BITMAP
0000
7ff0
0410
0410
2410
2410
2410
4410
0810
0810
1010
2010
4020
80c0
ENDCHAR
STARTCHAR 5204
ENCODING 20996
SWIDTH 520 0
DWIDTH 14 0
BBX 14 14 0 -2
BITMAP
0000
7fe0
0420
0420
4420
2420
1420
0c20
0720
08e0
0838
1020
2040
4180
ENDCHAR
STARTCHAR 5205
ENCODING 20997
SWIDTH 520 0
DWIDTH 14 0
BBX 14 14 0 -2
BITMAP
0000
7fc0
0840
0840
0840
4850
4848
4848
8848
1040
1040
2040
4080
8300
ENDCHAR
STARTCHAR 5206
ENCODING 20998
SWIDTH 520 0
DWIDTH 14 0
BBX 14 14 0 -2
BITMAP
0880
0880
1040
1040
2020
4010
bfc8
0840
0840
0840
1040
2040
4040
8180
ENDCHAR
STARTCHAR 5207
ENCODING 20999
SWIDTH 520 0
DWIDTH 14 0
BBX 14 14 0 -2
BITMAP
2000
23f8
2088
2088
3c88
e088
2088
2088
2488
2908
3108
2208
0408
0830
ENDCHAR
STARTCHAR 5208
ENCODING 21000
SWIDTH 520 0
DWIDTH 14 0
BBX 14 14 0 -2
BITMAP
0010
0410
8410
4490
2890
2890
1090
1090
2890
2490
4410
4210
8210
0070
ENDCHAR
STARTCHAR 5209
ENCODING 21001
SWIDTH 520 0
DWIDTH 14 0
BBX 14 14 0 -2
BITMAP
4010
4010
7e10
8090
0090
0090
7c90
0490
0890
1090
2010
4210
4210
3e70
ENDCHAR
STARTCHAR 520A
ENCODING 21002
SWIDTH 520 0
DWIDTH 14 0
BBX 14 14 0 -2
BITMAP
0010
7c10
1010
1090
1090
1090
fe90
1090
1090
1090
1010
1010
1010
1070
ENDCHAR
STARTCHAR 520B
ENCODING 21003
SWIDTH 520 0
DWIDTH 14 0
BBX 14 14 0 -2
BITMAP
0010
0e10
f010
1090
1090
1090
fe90
1090
1090
1090
2010
2010
4010
8070
ENDCHAR
STARTCHAR 520C
ENCODING 21004
SWIDTH 520 0
DWIDTH 14 0
BBX 14 14 0 -2
BITMAP
0408
0408
0408
ff48
0448
0448
4448
2448
2448
2448
0408
0408
0408
1c38
ENDCHAR
STARTCHAR 520D
ENCODING 21005
SWIDTH 520 0
DWIDTH 14 0
BBX 14 14 0 -2
BITMAP
1000
1000
3ff0
4020
8040
7ff8
0008
0008
3ff8
0008
0008
0008
7ff8
0008
ENDCHAR
STARTCHAR 520E
ENCODING 21006
SWIDTH 520 0
DWIDTH 14 0
BBX 14 14 0 -2
BITMAP
2010
2010
3f50
5550
5550
9550
1550
2550
4950
8950
1110
2110
4110
8670
ENDCHAR
STARTCHAR 520F
ENCODING 21007
SWIDTH 520 0
DWIDTH 14 0
BBX 14 14 0 -2
BITMAP
2008
2008
3e08
4048
be48
0048
7c48
0448
0448
0448
0508
0508
0308
0138
ENDCHAR
STARTCHAR 5210
ENCODING 21008
SWIDTH 520 0
DWIDTH 14 0
BBX 14 14 0 -2
BITMAP
0008
3e08
2208
3248
2a48
2a48
2248
7f48
2248
2248
2208
4208
4208
8e38
ENDCHAR
STARTCHAR 5211
ENCODING 21009
SWIDTH 520 0
DWIDTH 14 0
BBX 14 14 0 -2
BITMAP
0010
7e10
2410
2490
2490
2490
ff90
2490
2490
2490
2410
2410
4410
8470
ENDCHAR
STARTCHAR 5212
ENCODING 21010
SWIDTH 520 0
DWIDTH 14 0
BBX 14 14 0 -2
BITMAP
2810
2410
2010
2e90
f090
2090
2490
2490
2890
1090
3210
4a10
8610
0270
ENDCHAR
STARTCHAR 5213
ENCODING 21011
SWIDTH 520 0
DWIDTH 14 0
BBX 14 14 0 -2
BITMAP
0008
7e08
0008
0048
0048
ff48
2448
2448
2448
2448
2508
4608
4408
8038
ENDCHAR
STARTCHAR 5214
ENCODING 21012
SWIDTH 520 0
DWIDTH 14 0
BBX 14 14 0 -2
BITMAP
1008
1008
1008
7e48
1248
1248
1248
ff48
1048
1048
2808
2408
4208
8038
ENDCHAR
STARTCHAR 5215
ENCODING 21013
SWIDTH 520 0
DWIDTH 14 0
BBX 14 14 0 -2
BITMAP
0000
7ff0
0810
1010
2010
4060
0000
fdf8
2448
2448
2448
4488
4488
9930
ENDCHAR
STARTCHAR 5216
ENCODING 21014
SWIDTH 520 0
DWIDTH 14 0
BBX 14 14 0 -2
BITMAP
0008
3f08
2108
2148
2148
3f48
2148
2148
3f48
2148
2108
4108
4108
8738
ENDCHAR
STARTCHAR 5217
ENCODING 21015
SWIDTH 520 0
DWIDTH 14 0
BBX 14 14 0 -2
BITMAP
0008
7e08
1008
1048
1e48
2248
2248
5248
8c48
0448
0808
1008
2008
4038
ENDCHAR
STARTCHAR 5218
ENCODING 21016
SWIDTH 520 0
DWIDTH 14 0
BBX 14 14 0 -2
BITMAP
1008
0808
0808
ff48
0248
0248
4248
2448
1448
0848
1408
2208
4108
8038
ENDCHAR
STARTCHAR 5219
ENCODING 21017
SWIDTH 520 0
DWIDTH 14 0
BBX 14 14 0 -2
BITMAP
0008
7f08
4108
4148
4948
4948
4948
4948
4948
4948
1408
2208
4108
8138
ENDCHAR
STARTCHAR 521A
ENCODING 21018
SWIDTH 520 0
DWIDTH 14 0
BBX 14 14 0 -2
BITMAP
0008
7f08
4108
4548
6548
5548
4948
4948
5548
5548
6108
4108
4108
4738
ENDCHAR
STARTCHAR 521B
ENCODING 21019
SWIDTH 520 0
DWIDTH 14 0
BBX 14 14 0 -2
BITMAP
1010
1010
2810
2490
4290
8090
7c90
4490
4490
4490
5810
4210
4210
3e70
ENDCHAR
STARTCHAR 521C
ENCODING 21020
SWIDTH 520 0
DWIDTH 14 0
BBX 14 14 0 -2
BITMAP
2810
2810
fe50
2a50
2a50
fe50
a850
a850
ff50
2950
2910
4910
4b10
8870
ENDCHAR
STARTCHAR 521D
ENCODING 21021
SWIDTH 520 0
DWIDTH 14 0
BBX 14 14 0 -2
BITMAP
4000
2000
03f8
f888
1088
2088
2888
7088
a888
2908
2108
2208
2408
2830
ENDCHAR
STARTCHAR 521E
ENCODING 21022
SWIDTH 520 0
DWIDTH 14 0
BBX 14 14 0 -2
BITMAP
0008
3e08
2208
2248
3e48
2248
2248
3e48
2248
2248
2208
2f08
f008
0038
ENDCHAR
STARTCHAR 521F
ENCODING 21023
SWIDTH 520 0
DWIDTH 14 0
BBX 14 14 0 -2
BITMAP
0008
ff08
2108
2148
2148
4148
8648
0048
7f48
4148
4108
4108
7f08
4138
ENDCHAR
STARTCHAR 5220
ENCODING 21024
SWIDTH 520 0
DWIDTH 14 0
BBX 14 14 0 -2
BITMAP
0008
3b88
2a88
2aa8
2aa8
2aa8
7fe8
2aa8
2aa8
2aa8
2a88
2a88
5a88
85b8
ENDCHAR
STARTCHAR 5221
ENCODING 21025
SWIDTH 520 0
DWIDTH 14 0
BBX 14 14 0 -2
BITMAP
7f08
4108
4108
7f48
4848
4848
4848
7f48
4848
4848
4508
5508
6308
4138
ENDCHAR
STARTCHAR 5222
ENCODING 21026
SWIDTH 520 0
DWIDTH 14 0
BBX 14 14 0 -2
BITMAP
1010
1010
2810
2490
5290
8890
0090
7c90
0490
0890
2810
1010
0810
0870
ENDCHAR
STARTCHAR 5223
ENCODING 21027
SWIDTH 520 0
DWIDTH 14 0
BBX 14 14 0 -2
BITMAP
1008
1008
2408
4248
ff48
0148
0048
7e48
4248
4248
4208
4208
7e08
4238
ENDCHAR
STARTCHAR 5224
ENCODING 21028
SWIDTH 520 0
DWIDTH 14 0
BBX 14 14 0 -2
BITMAP
0808
4908
2a08
0848
7f48
0848
0848
0848
ff48
1048
1008
2008
4008
8038
ENDCHAR
STARTCHAR 5225
ENCODING 21029
SWIDTH 520 0
DWIDTH 14 0
BBX 14 14 0 -2
BITMAP
0008
7e08
4208
4248
4248
7e48
0048
2048
3e48
2248
2208
4208
4208
8c38
ENDCHAR
STARTCHAR 5226
ENCODING 21030
SWIDTH 520 0
DWIDTH 14 0
BBX 14 14 0 -2
BITMAP
1008
1008
1008
7e48
1048
1048
1048
ff48
1048
2048
2408
4208
fe08
0238
ENDCHAR
STARTCHAR 5227
ENCODING 21031
SWIDTH 520 0
DWIDTH 14 0
BBX 14 14 0 -2
BITMAP
1000
1000
11f8
7c88
1088
1088
fe88
1088
2088
2888
4488
fd08
0108
0230
ENDCHAR
STARTCHAR 5228
ENCODING 21032
SWIDTH 520 0
DWIDTH 14 0
BBX 14 14 0 -2
BITMAP
2008
2008
3e08
4248
8248
7a48
4a48
4a48
7a48
4248
4c08
4108
4108
3f38
ENDCHAR
STARTCHAR 5229
ENCODING 21033
SWIDTH 520 0
DWIDTH 14 0
BBX 14 14 0 -2
BITMAP
0e08
7808
0808
0848
0848
ff48
1848
1c48
2a48
2948
4808
8808
0808
0838
ENDCHAR
STARTCHAR 522A
ENCODING 21034
SWIDTH 520 0
DWIDTH 14 0
BBX 14 14 0 -2
BITMAP
0008
7f08
5508
5528
5528
5528
ffa8
5528
5528
5528
5508
5508
4108
4738
ENDCHAR
STARTCHAR 522B
ENCODING 21035
SWIDTH 520 0
DWIDTH 14 0
BBX 14 14 0 -2
BITMAP
0008
7e08
4208
4248
7e48
1048
1048
ff48
1148
1148
2108
2108
4108
8638
ENDCHAR
STARTCHAR 522C
ENCODING 21036
SWIDTH 520 0
DWIDTH 14 0
BBX 14 14 0 -2
BITMAP
1408
1208
1008
1e48
f048
1048
1f48
f048
1248
1448
0908
3508
c308
0138
ENDCHAR
STARTCHAR 522D
ENCODING 21037
SWIDTH 520 0
DWIDTH 14 0
BBX 14 14 0 -2
BITMAP
0010
fc10
0810
1090
2890
4490
8290
0090
fc90
1090
1010
1c10
f010
0070
ENDCHAR
STARTCHAR 522E
ENCODING 21038
SWIDTH 520 0
DWIDTH 14 0
BBX 14 14 0 -2
BITMAP
0010
0c10
7010
1090
1090
fe90
1090
1090
7c90
4490
4410
4410
7c10
4470
ENDCHAR
STARTCHAR 522F
ENCODING 21039
SWIDTH 520 0
DWIDTH 14 0
BBX 14 14 0 -2
BITMAP
0010
fe10
0010
7c90
4490
4490
7c90
4490
4490
7c90
0010
0e10
f010
0070
ENDCHAR
STARTCHAR 5230
ENCODING 21040
SWIDTH 520 0
DWIDTH 14 0
BBX 14 14 0 -2
BITMAP
0010
fe10
1010
2490
4290
fe90
1290
1090
fe90
1090
1010
1e10
f010
0070
ENDCHAR
STARTCHAR 5231
ENCODING 21041
SWIDTH 520 0
DWIDTH 14 0
BBX 14 14 0 -2
BITMAP
2800
29e0
28a0
7ca0
28a0
2ab0
2aa8
fca8
28a0
28a0
2920
4920
4a20
8cc0
ENDCHAR
STARTCHAR 5232
ENCODING 21042
SWIDTH 520 0
DWIDTH 14 0
BBX 14 14 0 -2
BITMAP
1010
1010
7c10
1090
1090
fe90
0090
1090
7c90
1090
1010
1c10
e010
0070
ENDCHAR
STARTCHAR 5233
ENCODING 21043
SWIDTH 520 0
DWIDTH 14 0
BBX 14 14 0 -2
BITMAP
1010
1010
ff50
2450
4250
bd50
0050
ff50
4050
7e50
0210
0210
0210
0c70
ENDCHAR
STARTCHAR 5234
ENCODING 21044
SWIDTH 520 0
DWIDTH 14 0
BBX 14 14 0 -2
BITMAP
0008
fe08
2208
2748
4148
4148
8e48
0848
ff48
1c48
2a08
4908
8808
0838
ENDCHAR
STARTCHAR 5235
ENCODING 21045
SWIDTH 520 0
DWIDTH 14 0
BBX 14 14 0 -2
BITMAP
0010
fe10
4410
4490
7c90
4490
4490
7c90
4490
4490
4710
fc10
0410
0470
ENDCHAR
STARTCHAR 5236
ENCODING 21046
SWIDTH 520 0
DWIDTH 14 0
BBX 14 14 0 -2
BITMAP
0810
4810
7f50
8850
0850
ff50
0850
0850
7f50
4950
4910
4910
4b10
0870
ENDCHAR
STARTCHAR 5237
ENCODING 21047
SWIDTH 520 0
DWIDTH 14 0
BBX 14 14 0 -2
BITMAP
0008
7f88
4088
40a8
7fa8
4428
4428
5fa8
54a8
54a8
5488
5588
8408
0438
ENDCHAR
STARTCHAR 5238
ENCODING 21048
SWIDTH 520 0
DWIDTH 14 0
BBX 14 14 0 -2
BITMAP
0200
2220
1240
7ff0
0400
fff8
1040
2020
dfd8
0440
0440
0840
1040
6180
ENDCHAR
STARTCHAR 5239
ENCODING 21049
SWIDTH 520 0
DWIDTH 14 0
BBX 14 14 0 -2
BITMAP
4410
2810
1010
2890
c490
1090
1090
fc90
1090
5490
9210
1210
1010
7070
ENDCHAR
STARTCHAR 523A
ENCODING 21050
SWIDTH 520 0
DWIDTH 14 0
BBX 14 14 0 -2
BITMAP
1010
1010
fe10
1090
1090
fe90
9290
9290
9690
3890
5410
9210
1010
1070
ENDCHAR
STARTCHAR 523B
ENCODING 21051
SWIDTH 520 0
DWIDTH 14 0
BBX 14 14 0 -2
BITMAP
1010
0810
ff50
0850
1050
2250
7c50
0950
1250
2450
c810
1410
2210
c070
ENDCHAR
STARTCHAR 523C
ENCODING 21052
SWIDTH 520 0
DWIDTH 14 0
BBX 14 14 0 -2
BITMAP
1000
10f8
1028
7c28
10a8
10a8
fea8
10a8
2128
2828
4448
7c48
0488
0130
ENDCHAR
STARTCHAR 523D
ENCODING 21053
SWIDTH 520 0
DWIDTH 14 0
BBX 14 14 0 -2
BITMAP
0808
0808
1408
2248
4148
be48
0048
0048
7f48
1048
1408
2208
7f08
0138
ENDCHAR
STARTCHAR 523E
ENCODING 21054
SWIDTH 520 0
DWIDTH 14 0
BBX 14 14 0 -2
BITMAP
0808
0808
7f08
0848
4948
2a48
0848
ff48
0848
1448
1208
2108
4108
8038
ENDCHAR
STARTCHAR 523F
ENCODING 21055
SWIDTH 520 0
DWIDTH 14 0
BBX 14 14 0 -2
BITMAP
1010
1010
9210
9290
fe90
0090
2090
3e90
4290
a490
1810
1010
2010
c070
ENDCHAR
STARTCHAR 5240
ENCODING 21056
SWIDTH 520 0
DWIDTH 14 0
BBX 14 14 0 -2
BITMAP
1010
9210
9210
9290
fe90
0090
fe90
0290
0290
fe90
8010
8610
9810
e070
ENDCHAR
STARTCHAR 5241
ENCODING 21057
SWIDTH 520 0
DWIDTH 14 0
BBX 14 14 0 -2
BITMAP
0008
3e08
2208
2248
2248
49c8
8848
7f48
0848
1c48
2a08
4908
0808
0838
ENDCHAR
STARTCHAR 5242
ENCODING 21058
SWIDTH 520 0
DWIDTH 14 0
BBX 14 14 0 -2
BITMAP
1008
0808
7f08
0248
3448
0c48
3348
c0c8
2248
2248
2208
2208
2208
4238
ENDCHAR
STARTCHAR 5243
ENCODING 21059
SWIDTH 520 0
DWIDTH 14 0
BBX 14 14 0 -2
BITMAP
4410
2810
fe50
1250
1250
fe50
9050
9050
ff50
3150
5110
9110
1610
1070
ENDCHAR
STARTCHAR 5244
ENCODING 21060
SWIDTH 520 0
DWIDTH 14 0
BBX 14 14 0 -2
BITMAP
0008
7f88
0008
4928
4928
9228
4928
4928
0028
7f28
0808
0808
0f08
f838
ENDCHAR
STARTCHAR 5245
ENCODING 21061
SWIDTH 520 0
DWIDTH 14 0
BBX 14 14 0 -2
BITMAP
0008
ff08
0008
0048
7e48
4248
4248
7e48
0048
4248
2408
0f08
f008
0038
ENDCHAR
STARTCHAR 5246
ENCODING 21062
SWIDTH 520 0
DWIDTH 14 0
BBX 14 14 0 -2
BITMAP
2010
1010
fc10
8490
8490
fc90
8490
8490
fc90
a090
9010
a810
c410
8070
ENDCHAR
STARTCHAR 5247
ENCODING 21063
SWIDTH 520 0
DWIDTH 14 0
BBX 14 14 0 -2
BITMAP
0010
fc10
8410
8490
fc90
8490
8490
fc90
8490
8490
fc10
0010
4810
8470
ENDCHAR
STARTCHAR 5248
ENCODING 21064
SWIDTH 520 0
DWIDTH 14 0
BBX 14 14 0 -2
BITMAP
0008
7e08
4208
4248
7e48
0048
ff48
8148
ff48
8148
ff08
8108
8108
8738
ENDCHAR
STARTCHAR 5249
ENCODING 21065
SWIDTH 520 0
DWIDTH 14 0
BBX 14 14 0 -2
BITMAP
0808
0808
2a08
2a48
2a48
5d48
88c8
0848
7f48
0848
0808
0808
0f88
f838
ENDCHAR
STARTCHAR 524A
ENCODING 21066
SWIDTH 520 0
DWIDTH 14 0
BBX 14 14 0 -2
BITMAP
0808
4908
2a08
0848
7f48
4148
4148
7f48
4148
4148
7f08
4108
4108
4738
ENDCHAR
STARTCHAR 524B
ENCODING 21067
SWIDTH 520 0
DWIDTH 14 0
BBX 14 14 0 -2
BITMAP
1010
1010
fe10
1090
1090
7c90
4490
4490
7c90
2810
2810
2870
4808
87f8
ENDCHAR
STARTCHAR 524C
ENCODING 21068
SWIDTH 520 0
DWIDTH 14 0
BBX 14 14 0 -2
BITMAP
1010
1010
fe10
1090
fe90
9290
9290
fe90
1090
3890
5410
9210
1010
1070
ENDCHAR
STARTCHAR 524D
ENCODING 21069
SWIDTH 520 0
DWIDTH 14 0
BBX 14 14 0 -2
BITMAP
2020
1040
fff8
0000
7e10
4290
4290
7e90
4290
4290
7e90
4210
4210
4e70
ENDCHAR
STARTCHAR 524E
ENCODING 21070
SWIDTH 520 0
DWIDTH 14 0
BBX 14 14 0 -2
BITMAP
0208
6408
1808
2448
d248
1848
1448
ff48
1048
3848
3408
5208
9208
1038
ENDCHAR
STARTCHAR 524F
ENCODING 21071
SWIDTH 520 0
DWIDTH 14 0
BBX 14 14 0 -2
BITMAP
4200
24f8
0028
7e28
24a8
24a8
24a8
fea8
2528
2428
2448
4448
4488
8530
ENDCHAR
STARTCHAR 5250
ENCODING 21072
SWIDTH 520 0
DWIDTH 14 0
BBX 14 14 0 -2
BITMAP
0008
7f08
4108
4128
7f28
0828
0828
ffa8
88a8
94a8
9288
a288
8088
83b8
ENDCHAR
STARTCHAR 5251
ENCODING 21073
SWIDTH 520 0
DWIDTH 14 0
BBX 14 14 0 -2
BITMAP
1010
1010
2810
2490
4290
bc90
0090
2490
9490
4490
4810
0e10
f010
0070
ENDCHAR
STARTCHAR 5252
ENCODING 21074
SWIDTH 520 0
DWIDTH 14 0
BBX 14 14 0 -2
BITMAP
2810
2810
7c10
2890
2890
fe90
0090
7c90
4490
7c90
4410
4410
7c10
4470
ENDCHAR
ENDFONT
